<svg xmlns="http://www.w3.org/2000/svg" width="70" height="50" fill="none" viewBox="0 0 70 50">
  <g clip-path="url(#a)">
    <rect width="70" height="50" fill="#fff" rx="4"/>
    <g clip-path="url(#b)">
      <path fill="#323232" d="M28.885 24.94c.353.196.644.489.838.843.203.361.305.783.305 1.265 0 .482-.102.903-.305 1.265a2.153 2.153 0 0 1-.838.843 2.387 2.387 0 0 1-1.187.3c-.644 0-1.134-.203-1.467-.608v.54h-1.294v-6.452h1.356v2.269c.342-.377.812-.565 1.409-.565.414-.005.821.099 1.183.3Zm-.566 3.05c.223-.234.334-.548.334-.942 0-.394-.111-.709-.334-.943a1.13 1.13 0 0 0-.856-.353c-.348 0-.634.117-.857.353-.222.234-.334.549-.334.943 0 .394.112.708.334.943.223.235.508.352.856.352.349 0 .634-.118.857-.352Zm6.09-2.833c.388.345.582.865.584 1.56v2.67h-1.27v-.583c-.256.434-.73.652-1.427.652-.359 0-.67-.061-.934-.183a1.392 1.392 0 0 1-.604-.504 1.312 1.312 0 0 1-.209-.73c0-.435.164-.777.491-1.026.328-.25.833-.375 1.517-.376h1.078c0-.295-.09-.523-.27-.682-.179-.16-.448-.238-.808-.236-.25 0-.497.04-.734.117a1.94 1.94 0 0 0-.613.318l-.487-.948c.28-.19.59-.332.918-.417.358-.1.727-.15 1.099-.15.724 0 1.28.173 1.669.518Zm-1.157 3.225a.882.882 0 0 0 .383-.474v-.478h-.93c-.557 0-.835.182-.835.547a.488.488 0 0 0 .204.414c.137.101.323.152.561.151.217.005.43-.05.618-.16Zm4.917-3.568a2.43 2.43 0 0 1 .952-.174v1.251a4.822 4.822 0 0 0-.305-.017c-.39 0-.693.108-.913.326-.219.217-.329.543-.33.98v2.207h-1.356V24.71h1.293v.617c.167-.23.395-.407.659-.512Zm6.271 2.616h-3.538a1.1 1.1 0 0 0 .453.686c.237.167.533.25.886.25.221.005.44-.032.648-.108a1.56 1.56 0 0 0 .526-.343l.721.782c-.44.505-1.083.757-1.93.757-.528 0-.994-.103-1.4-.31a2.263 2.263 0 0 1-.938-.855 2.358 2.358 0 0 1-.33-1.243 2.39 2.39 0 0 1 .326-1.239c.213-.364.523-.662.895-.86a2.772 2.772 0 0 1 2.517-.014c.366.193.67.487.873.848.212.368.318.795.318 1.282 0 .019-.009.141-.026.367Zm-3.172-1.502a1.109 1.109 0 0 0-.383.712h2.304a1.122 1.122 0 0 0-.383-.71 1.144 1.144 0 0 0-.764-.264 1.16 1.16 0 0 0-.774.262Zm6.111 1.624-.652.643v1.191h-1.356v-6.45h1.356v3.65l1.982-1.877h1.617l-1.947 1.982 2.12 2.695h-1.642l-1.478-1.834Zm4.007 1.76c-.37-.095-.666-.216-.886-.36l.452-.974c.235.146.49.256.756.328.283.082.575.124.87.125.573 0 .86-.142.86-.426 0-.133-.078-.229-.235-.287-.156-.058-.397-.107-.721-.147a6.931 6.931 0 0 1-.948-.2 1.468 1.468 0 0 1-.647-.4c-.183-.191-.274-.464-.274-.817a1.28 1.28 0 0 1 .256-.787c.171-.229.42-.407.748-.535.327-.127.714-.191 1.16-.191.332 0 .663.037.987.109.327.072.598.172.813.3l-.452.964a2.703 2.703 0 0 0-1.348-.347c-.29 0-.507.04-.652.122-.144.08-.217.185-.217.313 0 .145.078.246.235.304.156.058.405.113.747.167.317.049.63.117.94.204.242.072.462.209.634.395.18.192.27.458.27.8.003.28-.09.553-.262.774-.173.226-.427.401-.76.526-.333.124-.729.187-1.187.187-.384 0-.767-.05-1.139-.147Zm7.737-4.155c.39.345.584.865.584 1.56v2.67h-1.27v-.583c-.254.434-.729.652-1.424.652a2.21 2.21 0 0 1-.935-.183 1.39 1.39 0 0 1-.604-.504 1.313 1.313 0 0 1-.209-.73c0-.435.164-.777.491-1.026.328-.25.833-.375 1.517-.376h1.078c0-.295-.09-.523-.27-.682-.18-.16-.449-.238-.808-.236-.25 0-.497.04-.734.117-.222.069-.43.176-.613.318l-.489-.95c.28-.19.59-.331.918-.416a4.105 4.105 0 0 1 1.1-.148c.724 0 1.28.172 1.668.517Zm-1.156 3.225a.88.88 0 0 0 .382-.474v-.478h-.93c-.556 0-.834.182-.834.547a.49.49 0 0 0 .204.414c.136.1.323.151.56.151.217.005.43-.05.618-.16Z"/>
      <path fill="#82C341" d="M17.144 23.703h-1.3v7.63h1.3v-7.63ZM10 24.19v3.573a1.623 1.623 0 0 0 1.623 1.624h3.572v-3.572a1.624 1.624 0 0 0-1.623-1.625H10Zm3.897 3.896h-1.949a.65.65 0 0 1-.65-.649V25.49h1.949a.65.65 0 0 1 .65.65v1.947Zm5.519-3.896a1.623 1.623 0 0 0-1.623 1.624v3.571h3.572a1.623 1.623 0 0 0 1.623-1.622v-3.571l-3.572-.002Zm-.324 1.948a.65.65 0 0 1 .65-.649h1.947v1.948a.649.649 0 0 1-.649.65h-1.948v-1.949Z"/>
      <path fill="#82C341" d="M13.968 20.526a1.623 1.623 0 0 0 0 2.294l2.526 2.526 2.526-2.526a1.624 1.624 0 0 0 0-2.294L16.494 18l-2.526 2.526Zm1.149 1.607a.65.65 0 0 1 0-.918l1.377-1.377 1.376 1.377a.65.65 0 0 1 0 .918l-1.377 1.377-1.376-1.377Z"/>
    </g>
  </g>
  <defs>
    <clipPath id="a">
      <path fill="#fff" d="M0 0h70v50H0z"/>
    </clipPath>
    <clipPath id="b">
      <path fill="#fff" d="M10 18h50v13.333H10z"/>
    </clipPath>
  </defs>
</svg>
