<svg xmlns="http://www.w3.org/2000/svg" width="70" height="50" fill="none" viewBox="0 0 70 50">
  <g clip-path="url(#a)">
    <rect width="70" height="50" fill="#fff" rx="4"/>
    <g clip-path="url(#b)">
      <path fill="#333" d="M35.615 23.455a2.487 2.487 0 0 0-.936-.69 3.379 3.379 0 0 0-1.354-.248 2.345 2.345 0 0 0-.995.188 1.889 1.889 0 0 0-.706.543h-.09V20.79a.608.608 0 0 0-.22-.454.83.83 0 0 0-.586-.208.91.91 0 0 0-.618.208.603.603 0 0 0-.198.454v6.268c-.004.382.067.76.209 1.116.134.342.345.649.617.898.287.263.626.465.995.592.466.148.954.218 1.443.208.474.012.946-.076 1.384-.257.378-.16.718-.399.995-.7.26-.287.46-.623.587-.988.129-.402.193-.822.19-1.244v-.869a4.457 4.457 0 0 0-.19-1.313 2.952 2.952 0 0 0-.527-1.046Zm-.936 3.228c.028.44-.115.874-.398 1.214a1.363 1.363 0 0 1-1.075.454 2.143 2.143 0 0 1-1.165-.296.99.99 0 0 1-.467-.928V25.49a1.401 1.401 0 0 1 .448-1.096 1.59 1.59 0 0 1 .995-.346 1.573 1.573 0 0 1 1.174.454c.322.368.483.848.448 1.333l.04.85Zm4.31-4.166a.91.91 0 0 0-.617.208.604.604 0 0 0-.239.454v6.002a.597.597 0 0 0 .239.454.91.91 0 0 0 .617.207.83.83 0 0 0 .587-.207.613.613 0 0 0 .22-.454v-6.002a.608.608 0 0 0-.22-.454.83.83 0 0 0-.587-.208Zm0-2.517a.91.91 0 0 0-.617.207.592.592 0 0 0-.239.454v.326a.587.587 0 0 0 .239.454.91.91 0 0 0 .617.208.84.84 0 0 0 .587-.208.613.613 0 0 0 .22-.454v-.335a.608.608 0 0 0-.22-.455.84.84 0 0 0-.587-.197Zm8.54 3.455a2.486 2.486 0 0 0-.936-.69 3.379 3.379 0 0 0-1.353-.248 2.345 2.345 0 0 0-.996.188 1.89 1.89 0 0 0-.706.543h-.09V20.79a.608.608 0 0 0-.219-.454.83.83 0 0 0-.587-.208.91.91 0 0 0-.617.208.602.602 0 0 0-.17.454v6.268c-.003.382.068.76.21 1.116.134.342.345.649.617.898.287.263.626.465.995.592.466.148.954.218 1.443.208.474.012.946-.076 1.384-.257.379-.16.718-.399.995-.7.261-.287.46-.623.587-.988a3.95 3.95 0 0 0 .19-1.244v-.869a4.457 4.457 0 0 0-.19-1.313 2.952 2.952 0 0 0-.557-1.046Zm-.936 3.228a1.72 1.72 0 0 1-.408 1.214 1.364 1.364 0 0 1-1.075.454 2.143 2.143 0 0 1-1.164-.296.99.99 0 0 1-.468-.928V25.49a1.401 1.401 0 0 1 .448-1.096 1.59 1.59 0 0 1 .995-.346 1.573 1.573 0 0 1 1.175.454c.321.368.482.848.448 1.333l.05.85Zm4.3-6.683a.91.91 0 0 0-.617.207.592.592 0 0 0-.239.454v.326a.587.587 0 0 0 .24.454.91.91 0 0 0 .616.208.84.84 0 0 0 .587-.208.614.614 0 0 0 .23-.454v-.335a.607.607 0 0 0-.22-.455.84.84 0 0 0-.597-.197Zm0 2.517a.91.91 0 0 0-.617.208.603.603 0 0 0-.239.454v6.002a.597.597 0 0 0 .24.454.91.91 0 0 0 .616.207.83.83 0 0 0 .587-.207.613.613 0 0 0 .22-.454v-6.002a.61.61 0 0 0-.22-.454.83.83 0 0 0-.587-.208Zm6.957 5.943a.589.589 0 0 0-.477-.178 1.905 1.905 0 0 0-.458 0 2 2 0 0 1-.478 0 .531.531 0 0 1-.457-.207 1.442 1.442 0 0 1-.19-.71v-3.416h1.055a.602.602 0 0 0 .428-.178.641.641 0 0 0 .19-.484.607.607 0 0 0-.19-.454.597.597 0 0 0-.428-.177H55.79v-1.442.07a.373.373 0 0 0-.217-.364.381.381 0 0 0-.42.067l-2.09 2.31a.374.374 0 0 0 .289.632h.816v3.376a2.943 2.943 0 0 0 .508 1.974 2.063 2.063 0 0 0 1.612.593c.215.015.432.015.647 0 .185-.024.366-.074.537-.148a.995.995 0 0 0 .379-.277.657.657 0 0 0 .139-.434.723.723 0 0 0-.14-.553Z"/>
      <path fill="#1AA86E" d="m20.456 20.128-1.493 1.975h5.972v5.923H12.99v-5.923h5.972l-1.493-1.975h-4.48c-.527 0-1.034.208-1.407.579-.373.37-.583.872-.583 1.396v5.923c0 .523.21 1.026.583 1.396A2 2 0 0 0 12.99 30h11.944c.528 0 1.034-.208 1.407-.578.374-.37.584-.873.584-1.396v-5.923c0-.524-.21-1.026-.584-1.396a1.999 1.999 0 0 0-1.407-.579h-4.48Z"/>
      <path fill="#1AA86E" d="M16.972 24.077h-1.99v1.974h1.99v-1.974Zm5.972 0h-1.99v1.974h1.99v-1.974Z"/>
    </g>
  </g>
  <defs>
    <clipPath id="a">
      <path fill="#fff" d="M0 0h70v50H0z"/>
    </clipPath>
    <clipPath id="b">
      <path fill="#fff" d="M11 20h47v10H11z"/>
    </clipPath>
  </defs>
</svg>
