<svg xmlns="http://www.w3.org/2000/svg" width="70" height="50" fill="none" viewBox="0 0 70 50">
  <g clip-path="url(#a)">
    <rect width="70" height="50" fill="#fff" rx="4"/>
    <g clip-path="url(#b)">
      <path fill="#4A98F7" d="M19.934 20.47a5.82 5.82 0 1 1-8.23 8.23c-2.273-2.273 5.957-10.503 8.23-8.23"/>
      <path fill="#D2E5FD" d="M11.704 28.7a5.821 5.821 0 0 1 8.23-8.23"/>
      <path fill="#0070D1" d="M19.467 23.295c.923-.923 1.129-2.165.467-2.825-.628-.628-1.948-.41-2.825.468-1.001 1-1.157 2.34-1.29 3.647 1.306-.133 2.647-.29 3.648-1.29Z"/>
      <path fill="#A4CBFB" d="M12.171 25.875c-.923.923-1.128 2.164-.467 2.824.627.628 1.948.41 2.824-.467 1.001-1.001 1.157-2.342 1.29-3.648-1.305.134-2.645.29-3.647 1.29Z"/>
      <path fill="#000" d="M34.024 27.55a.676.676 0 0 1-.676-.676v-7.433a.675.675 0 1 1 1.352 0v7.433a.676.676 0 0 1-.676.676Zm4.123 0a2.664 2.664 0 0 1-2.661-2.66v-2.595a.676.676 0 0 1 1.352 0v2.595a1.309 1.309 0 0 0 2.617 0v-2.595a.676.676 0 0 1 1.352 0v2.595a2.663 2.663 0 0 1-2.66 2.66Zm-8.418 0h-2.096a.676.676 0 1 1 0-1.352h2.096a1.614 1.614 0 0 0 0-3.227.676.676 0 1 1 0-1.351 2.965 2.965 0 0 1 0 5.93Z"/>
      <path fill="#000" d="M26.31 27.55a.752.752 0 0 0 0 1.503h.037a.61.61 0 0 0 .608-.608v-.895h-.644Zm.036 2.854h-.035a2.103 2.103 0 0 1 0-4.207h1.32c.373 0 .676.303.676.676v1.57a1.963 1.963 0 0 1-1.96 1.961Zm26.331-2.854a.676.676 0 0 1-.676-.676V24.28a1.309 1.309 0 1 0-2.617 0v2.594a.676.676 0 0 1-1.352 0V24.28a2.66 2.66 0 0 1 5.321 0v2.594a.676.676 0 0 1-.676.676Zm4.168-4.579a1.614 1.614 0 1 0 0 3.228 1.614 1.614 0 0 0 0-3.228Zm0 4.579a2.965 2.965 0 1 1 0-5.93 2.965 2.965 0 0 1 0 5.93Z"/>
      <path fill="#000" d="M56.845 30.405c-.975 0-1.889-.48-2.442-1.284a.676.676 0 1 1 1.113-.767 1.614 1.614 0 0 0 2.943-.915v-2.853a.676.676 0 1 1 1.352 0v2.854a2.969 2.969 0 0 1-2.966 2.965Zm-10.2-2.855a.676.676 0 0 1-.676-.676v-2.29a.676.676 0 0 1 1.352 0v2.29a.676.676 0 0 1-.677.676Z"/>
      <path fill="#000" d="M44.347 22.971a1.614 1.614 0 1 0 0 3.228 1.614 1.614 0 0 0 0-3.228Zm0 4.579a2.965 2.965 0 1 1 0-5.93 2.965 2.965 0 0 1 0 5.93Zm-16.716 0a.676.676 0 0 1-.676-.676v-2.518a2.74 2.74 0 0 1 2.738-2.737.676.676 0 1 1 0 1.352c-.766 0-1.386.62-1.386 1.385v2.518a.676.676 0 0 1-.676.676"/>
    </g>
  </g>
  <defs>
    <clipPath id="a">
      <path fill="#fff" d="M0 0h70v50H0z"/>
    </clipPath>
    <clipPath id="b">
      <path fill="#fff" d="M10 18.765h50V30.53H10z"/>
    </clipPath>
  </defs>
</svg>
