<svg xmlns="http://www.w3.org/2000/svg" width="32" height="32" fill="none" viewBox="0 0 32 32">
  <path fill="#000" d="M27 14h-1.51a1 1 0 0 1-1-.71l-1.68-5.73A5 5 0 0 0 18 4H9.71a5 5 0 0 0-4.64 3.14l-2.85 7.13A2.87 2.87 0 0 0 2 15.39V20a5 5 0 0 0 4.11 4.92 4 4 0 0 0 7.76.08h4.26a4 4 0 0 0 7.74 0H27a3 3 0 0 0 3-3v-5a3 3 0 0 0-3-3ZM10 26a2 2 0 1 1 0-4 2 2 0 0 1 0 4Zm5-12H4.47l2.45-6.11A3 3 0 0 1 9.71 6H15v8Zm2 0V6h1a3 3 0 0 1 2.9 2.14l1.71 5.72a.84.84 0 0 0 .06.14H17Zm5 12a2 2 0 1 1 0-4 2 2 0 0 1 0 4Zm6-6h-1a1 1 0 0 1 0-2h1v2Z"/>
</svg>
