<svg xmlns="http://www.w3.org/2000/svg" width="70" height="50" fill="none" viewBox="0 0 70 50">
  <rect width="70" height="50" fill="#003D5E" rx="4"/>
  <path fill="#fff" fill-rule="evenodd" d="m18.32 24.782-.962-5.13c-.162-.692-.874-.652-.874-.652l-1.576.055c-1.663.055-2.726 1.729-2.726 1.729l-2.566 3.998h8.704Zm18.94-2.348h-4.145a.55.55 0 0 1-.548-.483h-.005V19.54c0-.302.248-.539.553-.539h9.345c.305 0 .552.237.552.54v1.475s.044.635-.551 1.226l-1.923 2.54h-5.06l1.704-2.246.077-.101Zm.868 5.532h4.332a.55.55 0 0 1 .55.515h.002v2.315c0 .302-.247.5-.552.5h-9.346c-.304 0-.552-.198-.552-.5v-1.704s.065-.515.487-1.094c.179-.245.99-1.319 1.867-2.477h5.062l-1.85 2.445Zm-23.025 2.54-.841-4.985h4.197l.988 5.203s.212.573-.372.573H16.14s-.872.037-1.038-.79Zm-5.956-4.985-2.871 4.535c-.747 1.158.26 1.24.26 1.24h3.18c.454.065.973-.725.973-.725l3.107-5.05H9.147Zm18.547-.74.455.74h3.245v5.21a.565.565 0 0 1-.552.566h-2.855c-.508.02-.894-.356-1.201-.822l-2.629-4.503v4.76a.565.565 0 0 1-.552.565h-2.758a.565.565 0 0 1-.552-.565v-5.21h3.635l-.454-.74h-3.18v-5.243c0-.302.246-.539.551-.539h2.758c.522 0 1.055.33 1.363.925.17.328 2.467 4.34 2.467 4.34v-4.693c0-.303.247-.572.552-.572h2.855c.305 0 .552.237.552.54v5.242h-3.7Z" clip-rule="evenodd"/>
  <path fill="#169CD4" fill-rule="evenodd" d="M55.764 20.28a1.89 1.89 0 0 0-1.895-1.901 1.89 1.89 0 0 0-1.894 1.902c0 .4.126.773.34 1.08.086.15.18.283.266.406.13.185.245.347.294.519.125.433-.007.724-.22.81-.275.113-.708-.078-.708-.078-1.95-.755-3.33-2.634-3.33-4.833 0-2.863 2.363-5.185 5.252-5.185 2.89 0 5.253 2.322 5.253 5.185 0 2.2-1.381 4.078-3.33 4.833 0 0-.433.191-.708.079-.213-.087-.346-.378-.22-.811.049-.172.164-.334.294-.519.087-.122.18-.255.265-.407.215-.306.341-.678.341-1.08ZM50.31 30.886c.984-.604 1.27-1.964 1.27-3.202 0-2.597-2.126-4.703-4.747-4.703-.996 0-1.898.153-2.525.705-.494.435-.315.896-.009 1.242l4.858 5.8s.45.59 1.153.158Zm7.118 0c-.983-.604-1.269-1.964-1.269-3.202 0-2.597 2.125-4.703 4.747-4.703.996 0 1.898.153 2.525.705.494.435.315.896.008 1.242l-4.858 5.8s-.449.59-1.153.158Z" clip-rule="evenodd"/>
</svg>
