<svg xmlns="http://www.w3.org/2000/svg" width="70" height="50" fill="none" viewBox="0 0 70 50">
  <rect width="70" height="50" fill="#fff" rx="4"/>
  <path fill="#168F8C" d="M25.243 21.765h-.02v.002l.02-.002Z"/>
  <path fill="#0CA49D" d="M25.371 21.578v11.905h2.785v-8.922c0-.666-.354-2.68-2.785-2.983Zm-14.803 9.834c.354 0 .644-.045.869-.136.225-.09.4-.207.527-.35.127-.144.214-.306.262-.487.048-.18.071-.363.071-.55 0-.212-.027-.403-.083-.573a.947.947 0 0 0-.286-.43 1.39 1.39 0 0 0-.535-.271 3.108 3.108 0 0 0-.84-.096H8.68v2.893h1.887Zm-1.887-7.563v2.869h1.396c.296 0 .563-.021.8-.064.239-.042.44-.117.607-.223.167-.106.294-.252.381-.438.087-.186.131-.42.131-.701 0-.277-.034-.507-.103-.69a.989.989 0 0 0-.317-.442 1.33 1.33 0 0 0-.544-.24 3.708 3.708 0 0 0-.78-.071H8.68Zm1.57-2.016c.799 0 1.478.074 2.039.223.56.149 1.017.358 1.372.63.354.27.611.6.773.988.161.387.242.82.242 1.299 0 .26-.037.511-.111.753-.074.242-.19.467-.35.677a2.71 2.71 0 0 1-.61.578 3.827 3.827 0 0 1-.896.454c.761.186 1.324.486 1.69.9.364.415.547.952.547 1.61 0 .494-.096.954-.286 1.38-.19.424-.47.795-.837 1.11-.367.317-.82.564-1.36.742-.54.178-1.155.267-1.848.267H6V21.833h4.251Zm12.754 2.359c-.08.127-.163.223-.25.287a.556.556 0 0 1-.337.095.822.822 0 0 1-.393-.115l-.476-.26a3.945 3.945 0 0 0-.606-.258 2.417 2.417 0 0 0-.778-.116c-.502 0-.876.108-1.122.323-.246.215-.369.506-.369.873 0 .233.074.427.222.581.148.154.343.287.583.399.24.111.516.214.825.307.31.093.625.196.948.31.322.115.639.249.948.403.309.154.584.35.825.59.24.239.434.53.583.872.147.343.222.756.222 1.24a4.05 4.05 0 0 1-.278 1.505 3.53 3.53 0 0 1-.805 1.224 3.734 3.734 0 0 1-1.3.82c-.516.2-1.102.3-1.758.3-.36 0-.725-.038-1.098-.112a6.494 6.494 0 0 1-2.066-.797 4.165 4.165 0 0 1-.801-.622l.793-1.259a.794.794 0 0 1 .25-.227.65.65 0 0 1 .337-.091.9.9 0 0 1 .48.15c.161.102.343.213.547.336.203.122.438.233.702.334.264.101.576.152.936.152.486 0 .864-.108 1.134-.323.27-.215.404-.556.404-1.024 0-.271-.074-.491-.222-.662a1.72 1.72 0 0 0-.582-.422 5.369 5.369 0 0 0-.822-.295c-.306-.085-.62-.179-.943-.283a6.875 6.875 0 0 1-.944-.382 2.793 2.793 0 0 1-1.404-1.522c-.148-.37-.222-.825-.222-1.367a3.294 3.294 0 0 1 1.031-2.383 3.786 3.786 0 0 1 1.245-.777c.492-.194 1.055-.29 1.69-.29.354 0 .699.027 1.035.083a5.432 5.432 0 0 1 1.8.637c.262.152.496.323.702.515l-.666 1.25Z"/>
  <path fill="#F9AD3C" d="M28.461 17.288A3.225 3.225 0 0 0 28.43 17a3.154 3.154 0 0 0 3.752.604 3.18 3.18 0 0 0-.412 1.781c.05.8.39 1.511.911 2.039a3.165 3.165 0 0 0-3.41 1.6 3.178 3.178 0 0 0-2.582-2.674 3.187 3.187 0 0 0 1.772-3.062Z"/>
  <path fill="#0CA49D" d="M33.24 28.733c.127 0 .237-.015.33-.044a.61.61 0 0 0 .226-.123.487.487 0 0 0 .131-.19.69.69 0 0 0 .042-.244.495.495 0 0 0-.183-.405c-.121-.1-.303-.151-.546-.151h-.716v1.157h.716Zm-.716-2.611v1.134h.591c.126 0 .235-.014.328-.042a.647.647 0 0 0 .23-.116.451.451 0 0 0 .136-.178.605.605 0 0 0 .044-.232c0-.197-.058-.34-.175-.43-.117-.09-.298-.136-.544-.136h-.61Zm.61-.355c.203 0 .377.02.523.06.148.04.269.098.362.172a.662.662 0 0 1 .21.274.93.93 0 0 1 .067.361.721.721 0 0 1-.152.446.825.825 0 0 1-.194.176 1.051 1.051 0 0 1-.272.125c.243.046.425.134.547.262a.689.689 0 0 1 .184.501.93.93 0 0 1-.078.385.808.808 0 0 1-.226.3c-.099.083-.22.148-.365.194a1.658 1.658 0 0 1-.494.067H32.08v-3.323h1.054Zm3.639 2.09-.52-1.352a2.737 2.737 0 0 1-.096-.311c-.033.125-.066.23-.1.313l-.519 1.35h1.235Zm.931 1.233h-.346a.148.148 0 0 1-.096-.03.185.185 0 0 1-.056-.076l-.309-.803h-1.483l-.31.803a.162.162 0 0 1-.053.074.146.146 0 0 1-.096.032h-.346l1.321-3.323h.453l1.322 3.323Zm3.114-3.323v3.323h-.224a.198.198 0 0 1-.09-.018.232.232 0 0 1-.07-.063l-1.911-2.504a3.305 3.305 0 0 1 .009.218v2.367h-.392v-3.323h.23a.238.238 0 0 1 .088.016.278.278 0 0 1 .067.06l1.912 2.503-.009-.116a2.63 2.63 0 0 1-.002-.11v-2.353h.392Zm1.29 1.456h.169a.392.392 0 0 0 .14-.02.263.263 0 0 0 .097-.077l1.1-1.252a.265.265 0 0 1 .098-.084.3.3 0 0 1 .124-.023h.379l-1.26 1.431a.757.757 0 0 1-.09.093.434.434 0 0 1-.09.058c.041.014.08.035.113.062a.54.54 0 0 1 .1.105l1.314 1.574h-.387a.542.542 0 0 1-.076-.004.238.238 0 0 1-.054-.019.282.282 0 0 1-.041-.03.488.488 0 0 1-.032-.042l-1.14-1.32a.266.266 0 0 0-.1-.08.39.39 0 0 0-.16-.026h-.204v1.521h-.445v-3.323h.445v1.456Zm5.482-.936a.176.176 0 0 1-.047.053.098.098 0 0 1-.057.016c-.027 0-.057-.013-.093-.04a1.369 1.369 0 0 0-.325-.173.806.806 0 0 0-.27-.04c-.1 0-.188.014-.265.042a.564.564 0 0 0-.192.11.455.455 0 0 0-.115.164.513.513 0 0 0-.04.202c0 .092.023.17.068.232.046.06.106.112.18.155.075.043.16.081.253.114.096.03.193.063.291.097.1.034.197.073.29.116.096.042.18.095.254.16a.713.713 0 0 1 .18.239c.047.094.07.21.07.348 0 .145-.025.282-.074.41a.937.937 0 0 1-.217.332.995.995 0 0 1-.348.222 1.27 1.27 0 0 1-.469.082c-.215 0-.41-.04-.586-.116a1.39 1.39 0 0 1-.45-.318l.13-.213a.162.162 0 0 1 .043-.042.106.106 0 0 1 .06-.019c.02 0 .043.009.067.026a.876.876 0 0 1 .088.06c.032.025.07.052.11.081a.94.94 0 0 0 .324.144 1.033 1.033 0 0 0 .512-.02.598.598 0 0 0 .21-.124.542.542 0 0 0 .134-.192.643.643 0 0 0 .046-.248c0-.1-.023-.183-.07-.246a.546.546 0 0 0-.177-.163 1.196 1.196 0 0 0-.254-.108 34.02 34.02 0 0 0-.29-.093 3.33 3.33 0 0 1-.291-.112.936.936 0 0 1-.254-.162.76.76 0 0 1-.18-.248.912.912 0 0 1-.067-.371.893.893 0 0 1 .586-.837c.128-.051.274-.077.438-.077.185 0 .353.03.503.088.153.059.286.144.402.255l-.109.214Zm1.987 1.479v1.324h-.447v-1.324l-1.212-1.999h.392c.04 0 .072.01.095.03a.244.244 0 0 1 .06.075l.757 1.291.076.153c.023.047.043.094.06.142a4.714 4.714 0 0 1 .129-.295l.754-1.291a.253.253 0 0 1 .058-.072.137.137 0 0 1 .095-.033h.394l-1.211 2Zm3.07.091-.52-1.352a2.846 2.846 0 0 1-.096-.311c-.033.125-.066.23-.1.313l-.519 1.35h1.235Zm.931 1.233h-.346a.148.148 0 0 1-.096-.03.185.185 0 0 1-.056-.076l-.309-.803h-1.483l-.31.803a.163.163 0 0 1-.053.074.147.147 0 0 1-.096.032h-.346l1.321-3.323h.453l1.322 3.323Zm1.352-1.713c.128 0 .242-.016.34-.047a.712.712 0 0 0 .25-.134.564.564 0 0 0 .152-.21.67.67 0 0 0 .05-.266c0-.198-.064-.347-.193-.447-.13-.1-.323-.151-.581-.151h-.49v1.255h.471Zm1.526 1.713h-.397a.197.197 0 0 1-.18-.095l-.858-1.187a.237.237 0 0 0-.085-.079.285.285 0 0 0-.138-.026h-.34v1.387h-.445v-3.323h.935c.209 0 .39.022.542.065.152.042.277.103.376.183.1.08.174.178.221.293a.96.96 0 0 1 .072.38.96.96 0 0 1-.056.33.875.875 0 0 1-.161.275.949.949 0 0 1-.256.206c-.1.058-.214.1-.342.13.057.033.106.08.148.142l.964 1.32Zm.897 0h-.447v-3.323h.447v3.323Zm2.602-1.233-.52-1.352a2.957 2.957 0 0 1-.096-.311c-.032.125-.066.23-.1.313l-.518 1.35h1.234Zm.932 1.233h-.346a.148.148 0 0 1-.097-.03.186.186 0 0 1-.056-.076l-.309-.803h-1.483l-.31.803a.164.164 0 0 1-.052.074.147.147 0 0 1-.097.032h-.346l1.322-3.323h.452l1.322 3.323ZM64 25.767v3.323h-.448v-1.512H61.77v1.512h-.447v-3.323h.447v1.482h1.783v-1.482H64ZM32.527 33.47h-.448v-3.322h.448v3.323Zm3.523-3.322v3.323h-.223a.199.199 0 0 1-.09-.019.232.232 0 0 1-.07-.062l-1.912-2.505a3.073 3.073 0 0 1 .01.218v2.368h-.393v-3.323h.23a.235.235 0 0 1 .089.016.267.267 0 0 1 .067.06l1.912 2.502-.01-.115a2.822 2.822 0 0 1-.002-.11v-2.353h.392Zm3.711 1.662c0 .25-.04.476-.118.68a1.499 1.499 0 0 1-.332.524 1.49 1.49 0 0 1-.517.339c-.2.078-.421.118-.664.118h-1.234v-3.323h1.234c.243 0 .464.04.664.12a1.458 1.458 0 0 1 .849.863c.079.204.118.43.118.68Zm-.46 0c0-.204-.027-.386-.082-.547a1.156 1.156 0 0 0-.236-.408 1.002 1.002 0 0 0-.368-.255 1.276 1.276 0 0 0-.485-.088h-.787v2.595h.787c.178 0 .34-.03.484-.088.145-.06.268-.143.37-.253.101-.111.18-.247.235-.408.055-.161.083-.343.083-.547Zm4.159 0c0 .25-.039.478-.117.687a1.503 1.503 0 0 1-.849.886c-.2.082-.422.123-.665.123-.243 0-.464-.041-.664-.123a1.498 1.498 0 0 1-.847-.886 1.935 1.935 0 0 1-.118-.686c0-.25.04-.477.118-.685a1.6 1.6 0 0 1 .332-.538c.143-.151.315-.269.515-.352.2-.084.421-.125.664-.125.243 0 .465.041.665.125.201.083.373.2.516.352.143.15.254.33.333.538.078.208.117.436.117.684Zm-.459 0c0-.204-.027-.387-.083-.55a1.15 1.15 0 0 0-.235-.41 1.015 1.015 0 0 0-.37-.26 1.245 1.245 0 0 0-.484-.09c-.177 0-.337.03-.482.09a1.05 1.05 0 0 0-.371.26 1.17 1.17 0 0 0-.236.41 1.696 1.696 0 0 0-.083.55c0 .204.028.388.083.55.056.16.134.298.236.41.103.112.227.198.371.258.145.059.305.088.482.088.179 0 .34-.03.485-.088.144-.06.267-.146.369-.258.101-.112.18-.25.235-.41.056-.162.083-.346.083-.55Zm3.778-1.662v3.323h-.224a.199.199 0 0 1-.09-.019.231.231 0 0 1-.069-.062l-1.913-2.505a2.867 2.867 0 0 1 .01.218v2.368H44.1v-3.323h.23a.235.235 0 0 1 .088.016.273.273 0 0 1 .067.06l1.912 2.502-.009-.115a2.822 2.822 0 0 1-.002-.11v-2.353h.392Zm2.884 2.956-.002.367h-2.037v-3.323h2.037v.366h-1.59v1.104h1.288v.353H48.07v1.133h1.592Zm2.315-2.437a.176.176 0 0 1-.046.053.097.097 0 0 1-.058.017c-.026 0-.057-.013-.092-.04a1.37 1.37 0 0 0-.325-.174.809.809 0 0 0-.27-.039c-.1 0-.189.014-.266.042a.565.565 0 0 0-.191.109.455.455 0 0 0-.115.164.512.512 0 0 0-.04.202c0 .093.023.17.067.232.046.06.106.112.18.155.075.044.16.082.254.114.095.03.192.063.29.097.1.035.197.073.291.116a.97.97 0 0 1 .254.16.712.712 0 0 1 .18.24c.046.093.07.21.07.347 0 .145-.025.282-.075.41a.939.939 0 0 1-.216.332.995.995 0 0 1-.349.223 1.267 1.267 0 0 1-.468.081c-.216 0-.41-.039-.586-.116a1.39 1.39 0 0 1-.45-.318l.13-.213a.163.163 0 0 1 .043-.042.105.105 0 0 1 .06-.018.12.12 0 0 1 .067.025.911.911 0 0 1 .087.06l.111.082a.93.93 0 0 0 .552.167.85.85 0 0 0 .283-.044.6.6 0 0 0 .21-.123.54.54 0 0 0 .134-.193.64.64 0 0 0 .046-.248c0-.1-.023-.182-.069-.246a.547.547 0 0 0-.178-.162 1.196 1.196 0 0 0-.253-.11l-.291-.092a3.351 3.351 0 0 1-.29-.111.939.939 0 0 1-.255-.163.764.764 0 0 1-.18-.248.913.913 0 0 1-.066-.37c0-.118.022-.232.067-.342a.895.895 0 0 1 .519-.496 1.19 1.19 0 0 1 .438-.076c.185 0 .352.029.503.088.152.058.286.143.401.255l-.108.213Zm1.262 2.803h-.448v-3.322h.448v3.323Zm2.6-1.233-.518-1.352a2.853 2.853 0 0 1-.097-.31 2.53 2.53 0 0 1-.1.313l-.518 1.35h1.234Zm.933 1.234h-.346a.148.148 0 0 1-.097-.03.185.185 0 0 1-.055-.077l-.31-.802h-1.483l-.309.802a.162.162 0 0 1-.053.074.146.146 0 0 1-.097.033h-.346l1.322-3.323h.452l1.322 3.323Z"/>
</svg>
