<svg xmlns="http://www.w3.org/2000/svg" width="70" height="50" fill="none" viewBox="0 0 70 50">
  <rect width="70" height="50" fill="#0060AF" rx="4"/>
  <path fill="#fff" fill-rule="evenodd" d="M14.397 29.791c0-.67.008-2.465-.01-2.686.016-2.669-2.043-4.551-3.344-4.404-.9.073-1.654.42-2.059 1.414-.375.928-.04 2.161 1.209 2.45 1.334.311 2.113.57 2.677.935.69.447 1.255 1.3 1.27 2.292" clip-rule="evenodd"/>
  <path fill="#fff" fill-rule="evenodd" d="M13.84 29.792c.004-.86-.505-1.62-1.171-2.03-.59-.36-1.383-.598-2.662-.904-.395-.095-.809-.307-.937-.577-.338.322-.4 1.045-.34 1.468.069.489.675 1.295 1.588 1.326.557.021 1.262-.113 1.6-.18.583-.12 1.506.225 1.652.896m1.299-11.251c-1.548 0-2.885.963-2.88 2.628.005 1.4 1.199 2.15 1.625 2.685.644.807.993 1.761 1.03 3.223.027 1.162.026 2.31.032 2.718h.342c-.006-.426-.021-1.645-.004-2.754.023-1.462.385-2.38 1.029-3.187.43-.536 1.623-1.285 1.626-2.685.006-1.665-1.33-2.627-2.877-2.627" clip-rule="evenodd"/>
  <path fill="#fff" fill-rule="evenodd" d="M15.261 29.791c0-.67-.007-2.465.01-2.686-.015-2.669 2.042-4.551 3.343-4.404.9.073 1.654.42 2.06 1.414.375.928.038 2.161-1.209 2.45-1.335.311-2.113.57-2.678.935-.69.447-1.215 1.3-1.231 2.292" clip-rule="evenodd"/>
  <path fill="#fff" fill-rule="evenodd" d="M15.819 29.792c-.005-.86.504-1.62 1.168-2.03.593-.36 1.386-.598 2.664-.904.396-.095.81-.307.935-.577.34.322.402 1.045.342 1.468-.07.489-.675 1.295-1.587 1.326-.557.021-1.265-.113-1.602-.18-.58-.12-1.506.225-1.653.896m.21 2.779-.198-1.363.478-.068c.117-.015.258.004.315.072a.37.37 0 0 1 .094.226c.018.116-.018.25-.157.318v.004c.155 0 .25.105.277.283.003.037.015.128.003.203-.031.18-.145.238-.337.264l-.475.06Zm.308-.245c.056-.007.114-.01.159-.037.069-.043.063-.133.053-.2-.024-.148-.065-.204-.231-.181l-.105.015.067.41.057-.007Zm-.1-.63c.063-.009.149-.016.185-.073.018-.038.042-.067.026-.152-.019-.1-.054-.161-.188-.137l-.126.019.05.349.053-.005Zm1.863.055c.004.025.008.053.01.079.038.248-.01.454-.306.51-.438.08-.522-.176-.6-.535l-.04-.195c-.06-.344-.087-.604.34-.684.241-.041.4.05.466.275.01.034.024.067.028.1l-.262.052c-.03-.085-.07-.237-.188-.224-.211.024-.142.272-.12.376l.079.373c.024.113.07.293.254.258.148-.028.084-.246.07-.336m.689.363-.09-1.41.352-.1.738 1.225-.277.078-.175-.311-.308.087.04.354-.28.077Zm.214-.659.223-.06-.296-.57.073.63Zm-8.907-.407c.11-.332.209-.577.629-.468.225.06.364.152.358.399-.001.055-.02.11-.033.165l-.262-.068c.034-.136.056-.244-.121-.296-.206-.053-.256.182-.284.283l-.107.37c-.034.11-.074.29.107.338.149.038.24-.1.294-.302l-.183-.046.063-.214.43.13-.204.713-.198-.051.045-.15h-.006a.282.282 0 0 1-.3.118c-.43-.11-.385-.375-.283-.73m1.657.411-.13.58-.292-.06.311-1.353.498.106c.29.059.379.181.338.433-.024.144-.1.3-.284.287l-.002-.002c.156.05.17.125.142.253-.012.055-.093.385-.037.439l.002.04-.302-.074c-.012-.092.03-.256.047-.348.017-.08.044-.194-.042-.237-.068-.034-.094-.033-.17-.05l-.08-.014Zm.05-.21.196.05c.12.017.186-.042.21-.178.02-.124-.007-.173-.114-.197l-.21-.04-.082.365Zm1.821-.321.289.032-.125.951c-.06.302-.184.433-.536.392-.358-.043-.443-.196-.421-.5l.125-.95.29.03-.124.93c-.013.1-.038.25.152.269.17.012.208-.094.227-.225m.73.498.087-1.36.554.022c.262.013.33.214.322.407-.007.117-.046.248-.154.318a.508.508 0 0 1-.309.07l-.18-.01-.036.57-.284-.017Zm.328-.76.147.008c.119.004.198-.04.208-.206.006-.158-.057-.185-.212-.191l-.116-.004-.027.393Zm38.772-11.979-2.203 3.77c-.832-.636-1.847-1.105-3.143-1.105-3.066 0-4.312 2.155-4.312 3.673 0 1.126.782 2.788 3.51 2.788 1.146 0 2.774-.75 3.242-1.092l-2.179 4.374c-1.038.195-1.38.316-2.259.342-4.883.137-6.856-2.69-6.855-5.58.003-3.82 3.606-8.466 9.579-8.466.365 0 .813.12 1.196.252l.387-.467m12.128.119.624 13.702h-4.643l-.003-2.35h-3.166l-1.042 2.35h-5.036l5.265-9.785-1.187-.007 2.255-3.91h6.933Zm-4.052 4.191-1.79 3.986h1.844l-.054-3.986Z" clip-rule="evenodd"/>
  <path fill="#fff" fill-rule="evenodd" d="M36.144 18.463c2.299.012 3.599 1.188 3.599 2.888 0 1.567-1.371 2.954-2.875 3.671 1.548.537 1.682 1.855 1.682 2.787 0 2.252-2.396 4.356-5.512 4.356h-6.796l2.651-9.648-1.089-.006 2.226-4.048s4.244-.012 6.114 0Zm-2.256 5.555c.475 0 1.315-.114 1.525-.981.23-.942-.558-.968-.936-.968l-1.351-.005-.471 1.954h1.233Zm-1.91 2.421-.622 2.252h1.59c.626 0 1.479-.293 1.688-1.025.206-.735-.39-1.227-1.013-1.227h-1.643ZM14.93 33.848c-2.353 0-4.77-.546-7.186-1.627l-.059-.027-.028-.057C6.573 29.981 6 27.623 6 25.315c0-2.304.55-4.562 1.634-6.715l.03-.057.06-.029a17.399 17.399 0 0 1 7.145-1.502c2.336 0 4.83.562 7.213 1.63l.061.025.029.058c1.104 2.196 1.686 4.554 1.686 6.823 0 2.26-.559 4.52-1.665 6.715l-.029.057-.061.027c-2.2.982-4.68 1.501-7.173 1.501Zm-6.962-1.922c2.345 1.04 4.685 1.565 6.962 1.565 2.414 0 4.814-.497 6.952-1.44 1.061-2.127 1.6-4.315 1.6-6.503 0-2.196-.562-4.48-1.625-6.612-2.312-1.025-4.727-1.568-6.988-1.568-2.428 0-4.755.485-6.921 1.443-1.04 2.087-1.57 4.274-1.57 6.504 0 2.234.55 4.52 1.59 6.61Z" clip-rule="evenodd"/>
</svg>
