<svg xmlns="http://www.w3.org/2000/svg" width="70" height="50" fill="none" viewBox="0 0 70 50">
  <rect width="70" height="50" fill="#004F91" rx="4"/>
  <path fill="#fff" fill-rule="evenodd" d="M51 25.5C51 16.938 44.06 10 35.5 10 26.94 10 20 16.939 20 25.5 20 34.057 26.94 41 35.5 41 44.06 41 51 34.057 51 25.5ZM31.635 38.163c1.23 0 2.147-.12 2.213-1.792h3.026c.067 1.672.996 1.726 2.195 1.726v.848h-7.434v-.782Zm7.851-14.016c1.62.513 5.424 2.247 5.424 5.835 0 3.539-3.336 5.646-7.295 5.646H26.09l.012-.918c2.09 0 2.71-.275 2.71-2.41V18.797c0-2.376-.938-2.525-2.714-2.525v-.854c.332-.008 4.52-.003 7.75 0-.066-1.674-.983-1.796-2.213-1.796v-.78h7.434v.847c-1.2 0-2.128.055-2.195 1.729h.741c1.672 0 5.777.575 5.785 3.955.006 2.372-1.596 3.88-3.913 4.775Zm2.236 6.403c0-2.807-1.927-4.676-4.272-5.808-1.53.332-3.325.527-5.004.541l.422-1.047c.382-.012.67-.036.98-.054V17.16h3.026v6.568c2.536-.749 3.598-2.254 3.598-4.001 0-2.24-1.698-3.31-3.605-3.31l-5.023.003v15.942c0 1.688 1.015 2.041 2.004 2.059V26.13c1.135-.04 2.354-.201 3.026-.358v8.65c2.419-.002 4.848-1.476 4.848-3.871Z" clip-rule="evenodd"/>
</svg>
