<svg xmlns="http://www.w3.org/2000/svg" width="70" height="50" fill="none" viewBox="0 0 70 50">
  <rect width="70" height="50" fill="#F5F7F9" rx="4"/>
  <mask id="a" width="70" height="50" x="0" y="0" maskUnits="userSpaceOnUse" style="mask-type:luminance">
    <rect width="70" height="50" fill="#fff" rx="4"/>
  </mask>
  <g mask="url(#a)">
    <path fill="#165781" fill-rule="evenodd" d="M33 50.365s-11.5-1-20-4.5c-8.79-3.62-13-7.57-13-14v18.5h33Z" clip-rule="evenodd"/>
  </g>
  <path fill="url(#b)" fill-rule="evenodd" d="m26.507 13.507-.359 1.769c3.54-.014 14.674-4.13 15.192-6.585l.067-.322c.033-.162.066-.323.064-.323-4.824 3.265-12.112 5.454-14.964 5.461Zm-.675 3.052-.335 1.628c3.412-.007 14.674-4.129 15.192-6.584l.142-.703c-4.988 3.474-11.974 5.574-15 5.66Zm-.727 2.97-.347 1.708.002.06c3.45-.078 14.661-4.131 15.177-6.583l.17-.84c-3.866 2.703-11.889 5.673-15.002 5.656Z" clip-rule="evenodd"/>
  <path fill="#165781" fill-rule="evenodd" d="M8.06 24.983h1.292v4.542h.03c.46-.807 1.292-1.33 2.451-1.33 1.784 0 3.046 1.494 3.03 3.692 0 2.583-1.618 3.868-3.223 3.868-1.04 0-1.873-.403-2.407-1.36h-.045l-.058 1.196H8c.03-.493.06-1.226.06-1.868v-8.74Zm1.292 7.71c0 .163.03.327.06.477.252.911 1.01 1.54 1.96 1.54 1.367 0 2.184-1.122 2.184-2.78 0-1.45-.743-2.69-2.139-2.69-.892 0-1.724.613-1.991 1.615-.03.15-.074.328-.074.537v1.3Zm12.034 1.164c0 .629.03 1.24.119 1.734h-1.189l-.104-.912h-.045c-.401.569-1.174 1.076-2.198 1.076-1.457 0-2.198-1.03-2.198-2.076 0-1.75 1.544-2.706 4.322-2.69v-.15c0-.597-.163-1.673-1.634-1.673-.67 0-1.367.208-1.872.538l-.298-.867c.595-.388 1.458-.642 2.363-.642 2.199 0 2.734 1.51 2.734 2.958v2.704ZM20.123 31.9c-1.427-.03-3.046.224-3.046 1.628 0 .852.564 1.257 1.233 1.257a1.79 1.79 0 0 0 1.738-1.211c.045-.136.075-.285.075-.419V31.9Zm3.269-1.584c0-.747-.016-1.358-.06-1.957h1.158l.075 1.195h.03c.357-.686 1.188-1.36 2.377-1.36.994 0 2.54.599 2.54 3.078v4.318h-1.308v-4.168c0-1.166-.43-2.137-1.663-2.137-.862 0-1.531.613-1.754 1.345a1.9 1.9 0 0 0-.09.614v4.346h-1.305m9.329-3.914h.03c.178-.254.43-.568.639-.822l2.11-2.495h1.574l-2.778 2.974 3.163 4.257h-1.588l-2.481-3.466-.669.747v2.72h-1.293V24.982h1.293m15.51 3.633c-.049-.058-.097-.117-.149-.17a2.512 2.512 0 0 0-.278-.249c-.54-.445-1.195-.706-1.9-.706-.76 0-1.46.307-2.024.818-.017.01-.031.022-.047.03-.02.012-.05.026-.082.017a.275.275 0 0 1-.193-.266v-2.957a.337.337 0 0 0-.337-.336h-1.43a.336.336 0 0 0-.338.336v.103l-.001.01v.344l.003 9.533c0 .19.152.342.34.342h1.295c.082 0 .157-.03.216-.08.002-.002.005-.002.006-.004l.004-.005a.327.327 0 0 0 .068-.085.36.36 0 0 0 .043-.136c.025-.21.168-.327.256-.297.03.01.06.025.09.046l.089.058c.088.065.474.331.773.465.15.067.631.231 1.189.231s.954-.124 1.047-.15c.094-.024.187-.056.275-.097a2.718 2.718 0 0 0 1.055-.777c.264-.323.483-.705.66-1.144.264-.577.413-1.24.413-1.946 0-1.152-.4-2.19-1.043-2.928Zm-2.954 5.52c-1.048 0-1.898-1.136-1.898-2.536 0-1.401.85-2.537 1.898-2.537s1.897 1.136 1.897 2.537c0 1.4-.85 2.536-1.897 2.536Zm6.629-9.252a1.08 1.08 0 0 0-.54.14.99.99 0 0 0-.355.372c-.087.156-.13.328-.13.519 0 .184.043.35.124.503a.97.97 0 0 0 .342.369c.15.09.323.137.522.14.224-.003.414-.05.569-.14a.937.937 0 0 0 .354-.369c.08-.153.12-.32.12-.503 0-.191-.042-.363-.123-.519a.965.965 0 0 0-.349-.372 1.036 1.036 0 0 0-.534-.14Zm1.093 3.455-.005-.056v-.253a.343.343 0 0 0-.341-.344H51.21a.343.343 0 0 0-.342.344v7.812c-.007.2-.248.472-.526.54-.128.04-.256.058-.386.052-.129-.005-.217.048-.268.157a.876.876 0 0 0-.045.195c-.008.08.003.917.009.986a.63.63 0 0 0 .036.179c.06.09.164.15.312.18.05.02 1.008.022 1.651-.135.253-.06.456-.184.626-.313.167-.13.316-.294.446-.494.149-.24.23-.54.245-.904.005-.11.025-.396.025-.43v-7.098l.005-.118c.005-.1.005-.2 0-.3Z" clip-rule="evenodd"/>
  <mask id="c" width="9" height="12" x="54" y="24" maskUnits="userSpaceOnUse" style="mask-type:luminance">
    <path fill="#fff" fill-rule="evenodd" d="M62.51 35.657v-10.86h-7.823v10.86h7.822Z" clip-rule="evenodd"/>
  </mask>
  <g mask="url(#c)">
    <path fill="#165781" fill-rule="evenodd" d="M61.466 28.615c-.048-.058-.096-.117-.149-.17a2.58 2.58 0 0 0-.278-.249c-.54-.445-1.195-.706-1.9-.706-.76 0-1.46.307-2.024.818-.017.01-.031.022-.048.03-.02.012-.047.026-.081.017a.277.277 0 0 1-.194-.266v-2.957a.336.336 0 0 0-.336-.336h-1.43a.336.336 0 0 0-.338.336v.103l-.001.01v.344l.002 9.533c0 .19.153.342.34.342h1.295c.083 0 .158-.03.217-.08l.006-.004.004-.005a.36.36 0 0 0 .068-.085v-.002a.345.345 0 0 0 .042-.134c.026-.21.168-.327.257-.297.03.01.06.025.09.046.029.02.059.04.09.058.086.065.473.331.772.465.15.067.63.231 1.189.231.557 0 .953-.124 1.047-.15.094-.024.186-.056.275-.097a2.735 2.735 0 0 0 1.056-.777c.263-.323.482-.705.659-1.144.263-.577.413-1.24.413-1.946 0-1.152-.401-2.19-1.043-2.928Zm-2.954 5.52c-1.048 0-1.898-1.136-1.898-2.536 0-1.401.85-2.537 1.898-2.537s1.898 1.136 1.898 2.537c0 1.4-.85 2.536-1.898 2.536Z" clip-rule="evenodd"/>
  </g>
  <defs>
    <linearGradient id="b" x1="24.118" x2="44.29" y1="16.328" y2="15.201" gradientUnits="userSpaceOnUse">
      <stop stop-color="#2BA7DF"/>
      <stop offset=".406" stop-color="#175882"/>
      <stop offset="1" stop-color="#EBC71B"/>
    </linearGradient>
  </defs>
</svg>
