<svg xmlns="http://www.w3.org/2000/svg" width="70" height="50" fill="none" viewBox="0 0 70 50">
  <rect width="70" height="50" fill="#fff" rx="4"/>
  <path fill="#E94E0F" fill-rule="evenodd" d="m11.352 29.69 2.375 2.942H7.846l3.506-2.941Zm-.747-.908-4.601 3.86-.002-9.493 4.603 5.633Zm11.07-9.558s-1.01-.478-2.183-.409c-1.342.08-2.464.594-3.11 1.273-.405.426-.854.947-1.08 1.511-.326.818-.396 1.898-.396 1.898s-.47-.398-1.057-1.559c-.684-1.35-.87-2.167-.963-3.1a7.19 7.19 0 0 1 .047-1.627h8.742v2.013Zm0 2.69V27.9s-.544.209-.987.209a4.235 4.235 0 0 1-2.075-.548c-.87-.478-1.352-1.057-1.726-1.581-.378-.533-.691-1.272-.784-1.805-.075-.426-.156-1.489.28-2.352a2.404 2.404 0 0 1 2.09-1.319c.995-.038 1.546.224 2.052.501.962.53 1.15.91 1.15.91Zm-9.52 5.566 1.578-1.315c-.503-.642-.636-.884-1.197-1.712a13.535 13.535 0 0 1-1.47-2.877c-.446-1.186-.553-1.852-.504-2.738.062-1.126.318-1.627.318-1.627H6l.002 2.63s3.736 4.681 6.154 7.639Zm4.506 5.148h5.014v-3.656s-1.244.57-2.052.617c-.481.028-.948.047-1.702-.154-.838-.223-1.314-.44-2.09-1.08-.624-.514-1.337-1.272-1.337-1.272l-1.586 1.322c.736.9 1.28 1.555 1.446 1.732.715.756 1.018 1.034 1.5 1.303.482.27 2.09.255 2.09.255l-1.283.933Z" clip-rule="evenodd"/>
  <path fill="#005B6A" fill-rule="evenodd" d="M59.593 29.376c0 1.06.143 2.8-1.044 3.224v.071h4.506v-.07c-1.186-.448-1.044-2.165-1.044-3.225v-8.871c0-1.059-.142-2.8 1.044-3.247v-.07h-4.506v.07c1.21.447 1.044 2.165 1.044 3.247v8.871Zm-16.52-8.871 8.133 10.236c1.043 1.341 1.779 2.118 3.462 2.683V20.223c0-1.318 0-2.26 1.234-2.965v-.07h-4.174v.07c1.257.706 1.233 1.647 1.233 2.965v8.918L44.283 18.27l-.333-.471c-.165-.188-.26-.306-.355-.588v-.024h-3.463v.07c1.234.707 1.234 1.648 1.234 2.966v9.39c0 1.317 0 2.258-1.257 2.987v.071h4.197v-.07c-1.257-.73-1.233-1.671-1.233-2.989v-9.107Zm-13.258 2.918v-4.612l1.589-.165c1.423-.141 2.94.706 2.94 2.33 0 1.93-2.205 2.447-3.746 2.447h-.783Zm0 7.365v-5.812l1.66-.094c2.087-.118 4.315.87 4.315 3.153 0 2.236-1.967 3.13-3.912 2.942l-2.063-.189Zm-2.419-1.435c0 1.082.143 2.8-1.043 3.247v.071h3.912c1.779 0 3.652.07 5.312-.73 1.589-.752 2.846-2.306 2.846-4.118 0-2.306-1.732-3.718-3.866-4.165 1.352-.588 2.371-1.482 2.371-3.059 0-2.094-1.825-3.412-4.955-3.412h-5.62v.07c1.21.448 1.043 2.166 1.043 3.224v8.872Z" clip-rule="evenodd"/>
</svg>
