<svg xmlns="http://www.w3.org/2000/svg" width="70" height="50" fill="none" viewBox="0 0 70 50">
  <rect width="70" height="50" fill="#00529C" rx="4"/>
  <path fill="#fff" fill-rule="evenodd" d="M20.751 21.691h3.336c1.352 0 2.359.598 2.359 1.856 0 .923-.467 1.437-1.278 1.709v.02c.966.2 1.465.725 1.465 1.616 0 1.751-1.528 2.118-2.827 2.118h-3.055v-7.32Zm1.933 2.894h.54c.634 0 1.29-.157 1.29-.777 0-.67-.624-.733-1.27-.733h-.56v1.51Zm0 3.04h.572c.706 0 1.444-.104 1.444-.849 0-.796-.758-.87-1.424-.87h-.592v1.72Zm6.486-5.934h2.37l2.796 7.319h-2.12l-.54-1.562h-2.724l-.572 1.562h-1.964l2.754-7.319Zm1.186 1.51h-.022l-.935 2.863h1.819l-.862-2.863Zm4.249-1.51h2.463l2.453 4.97h.02l-.031-4.97h1.767v7.319h-2.4l-2.537-5.002h-.02l.062 5.002h-1.777v-7.32Zm7.328 0h1.933v2.99h.021l2.182-2.99h2.328l-2.681 3.408 2.89 3.91H46.14l-2.254-3.323h-.02v3.324h-1.934v-7.32Zm9.069 0h3.336c1.35 0 2.36.598 2.36 1.856 0 .923-.468 1.437-1.279 1.709v.02c.967.2 1.466.725 1.466 1.616 0 1.751-1.528 2.118-2.827 2.118h-3.056v-7.32Zm1.933 2.894h.54c.634 0 1.289-.157 1.289-.777 0-.67-.623-.733-1.267-.733h-.562v1.51Zm0 3.04h.572c.706 0 1.445-.104 1.445-.849 0-.796-.76-.87-1.424-.87h-.593v1.72Zm4.378-5.934h3.45c1.289 0 2.339.587 2.339 1.846 0 .975-.457 1.625-1.392 1.845v.02c.622.169.664.724 1.028 1.616l.707 1.992h-2.016l-.416-1.32c-.395-1.259-.645-1.574-1.362-1.574h-.405v2.894h-1.933v-7.32Zm1.933 3.04h.51c.623 0 1.413-.02 1.413-.849 0-.68-.676-.807-1.414-.807h-.51v1.657Z" clip-rule="evenodd"/>
  <mask id="a" width="62" height="15" x="4" y="18" maskUnits="userSpaceOnUse" style="mask-type:luminance">
    <path fill="#fff" fill-rule="evenodd" d="M4 32.706h61.91V18H4v14.706Z" clip-rule="evenodd"/>
  </mask>
  <g mask="url(#a)">
    <path fill="#fff" fill-rule="evenodd" d="M63.977 29.01h1.933v-7.32h-1.933v7.319ZM16.34 18H6.223C4.995 18 4 19.03 4 20.3v10.107c0 1.258.977 2.28 2.19 2.299h10.145c1.228 0 2.224-1.03 2.224-2.299l.005-10.108c0-1.27-.996-2.299-2.224-2.299ZM7.426 31.527l-.552.006c-.668 0-1.21-.553-1.21-1.236l-.003-.098v-9.335l.004-.503c.025-.66.523-1.193 1.175-1.193h1.122c1.017 0 1.841.892 1.841 1.944 0 .52-.202.993-.53 1.336L6.412 25.38l2.683 2.756c.346.36.555.833.555 1.351 0 1.128-.995 2.041-2.223 2.041Zm8.248-.009-5.002-.002s.579-1.261.579-2.042c0-.952-.316-1.802-.81-2.365l-1.71-1.76 1.746-1.82c.52-.493.865-1.368.865-2.365 0-.79-.217-1.489-.565-1.996h1.212c1.017 0 1.842.892 1.842 1.944 0 .52-.202.993-.53 1.336l-2.807 2.9 5.832 6a1.22 1.22 0 0 1-.652.17Zm1.222-1.873-4.18-4.298 1.991-2.041c.406-.511.663-1.281.663-2.142 0-.794-.22-1.51-.571-2.019l.89.027c.669 0 1.21.555 1.21 1.238l-.003 9.235Z" clip-rule="evenodd"/>
  </g>
</svg>
