<svg xmlns="http://www.w3.org/2000/svg" width="70" height="50" fill="none" viewBox="0 0 70 50">
  <rect width="70" height="50" fill="#FEF200" rx="4"/>
  <path fill="#0069AC" fill-rule="evenodd" d="M31.201 19.4h1.916c.663 0 1.155.137 1.155.873 0 .755-.747.975-1.34.975h-2.106l.375-1.848Zm-5.544 9.29h6.95c2.652 0 4.992-1.167 4.992-4.113 0-1.127-.71-2.208-1.834-2.448v-.033h.017c1.461-.392 2.224-1.404 2.224-2.943 0-1.767-.984-2.69-3.615-2.69h-6.222L25.657 28.69Zm4.71-5.164h2.052c.783 0 1.448.137 1.448 1.048 0 .991-.916 1.229-1.582 1.229h-2.394l.476-2.277Zm10.415 5.164h3.732l1.869-9.096h3.36l.648-3.13h-10.46l-.643 3.13h3.36l-1.866 9.095Zm8.418 0h3.547l1.408-6.85h.033l2.223 6.85h3.667l2.549-12.227h-3.551l-1.357 6.678h-.032l-2.275-6.678h-3.703l-2.51 12.226Z" clip-rule="evenodd"/>
  <mask id="a" width="39" height="8" x="24" y="30" maskUnits="userSpaceOnUse" style="mask-type:luminance">
    <path fill="#fff" fill-rule="evenodd" d="M43.496 37.122h19.22v-6.214H24.275v6.214h19.22Z" clip-rule="evenodd"/>
  </mask>
  <g mask="url(#a)">
    <path fill="#E31C24" fill-rule="evenodd" d="M24.275 37.122c.112-.416.066-.414.341-1.536.198-1.107 1.407-2.801 3.536-2.975.726-.088 28.606-1.282 34.565-1.703l-.18 1.039c-5.612.732-31.009 4.205-38.262 5.175Z" clip-rule="evenodd"/>
  </g>
  <path fill="#0069AC" fill-rule="evenodd" d="m6.36 18.685 7.634-4.446 7.636 4.446v8.892l-1.91 1.114v-8.892l-5.726-3.337L8.27 19.8v8.892l-1.91-1.114v-8.892Z" clip-rule="evenodd"/>
  <path fill="#A68561" fill-rule="evenodd" d="M12.085 28.69v2.221l1.908-1.112 1.91 1.112v-2.22l-1.91-1.114-1.908 1.114Z" clip-rule="evenodd"/>
  <path fill="#A68561" fill-rule="evenodd" d="M19.72 28.69v-2.225l-5.727-3.335-5.723 3.335v2.226l5.723-3.338 5.726 3.338Z" clip-rule="evenodd"/>
  <path fill="#0069AC" fill-rule="evenodd" d="m13.993 18.685 3.818 2.224V29.8l-1.908 1.11v-8.89l-1.91-1.11-1.907 1.11v8.891l-1.908-1.11v-8.89l3.815-2.225Z" clip-rule="evenodd"/>
</svg>
