<svg xmlns="http://www.w3.org/2000/svg" width="70" height="50" fill="none" viewBox="0 0 70 50">
  <rect width="70" height="50" fill="#fff" rx="4"/>
  <path fill="#00AB4E" fill-rule="evenodd" d="M33.035 8.667h3.954V8h-3.954v.667Zm-.732 10.371v1.244h-5.798v.346H43.83v-.346h-6.113v-1.244h-5.415Zm-4.805 3.282v.329h15.254v-.328h-5.034v-1.193h-5.415v1.193h-4.805Zm4.805.83v1.175h-2.89v.329h11.631v-.33h-3.326V23.15h-5.415Zm.732 3.586h3.953v-.666h-3.953v.666ZM29.413 9.935h3a7.038 7.038 0 0 1 2.729-.57 7.15 7.15 0 0 1 2.792.57h3.11v.345H29.413v-.345Zm-1.915 2.003h2.082a8.18 8.18 0 0 1 1.274-1.155l8.584.001c.479.348.92.71 1.317 1.154h1.997v.345H27.498v-.345Zm-.993 2.195h1.644c.22-.479.48-.928.772-1.351l12.468.013c.286.418.538.866.754 1.338h1.688v.328H26.505v-.328ZM26 16.101h1.5c.086-.41.198-.81.334-1.196l14.639.003c.133.38.234.787.317 1.193h1.493v.347H26V16.1Zm0 2.04h1.295v-.047c0-.388.022-.77.065-1.144l15.57.004c.042.373.06.753.06 1.14v.047h1.293v.362H26v-.362Z" clip-rule="evenodd"/>
  <path fill="#0089CF" fill-rule="evenodd" d="M32.995 34.133a1.42 1.42 0 0 0 .21.017c.164 0 .294-.06.39-.18.095-.118.143-.283.143-.494a.695.695 0 0 0-.146-.455.458.458 0 0 0-.373-.178.96.96 0 0 0-.086.006 2.308 2.308 0 0 0-.138.022v1.262Zm0 2.655c.065.01.123.02.175.025.053.005.097.008.132.008a.699.699 0 0 0 .556-.258c.145-.172.218-.394.218-.664 0-.296-.071-.532-.214-.71a.69.69 0 0 0-.568-.266c-.033 0-.103.008-.21.024l-.09.013v1.828Zm-1.77.848a.944.944 0 0 0 .232-.364c.044-.13.067-.342.067-.634v-3.653c0-.293-.023-.503-.067-.632a.957.957 0 0 0-.231-.36h1.93c.632 0 1.117.116 1.455.345.338.231.506.56.506.988 0 .246-.066.465-.2.656-.132.19-.326.347-.58.469.35.111.613.29.794.54.18.25.27.56.27.93 0 .22-.035.429-.105.628-.07.2-.172.379-.307.54a1.46 1.46 0 0 1-.595.42c-.225.085-.536.127-.932.127h-2.236Zm6.297-1.936c0 .364.065.643.197.834a.658.658 0 0 0 .576.287c.27 0 .472-.094.609-.283.135-.188.203-.468.203-.838v-2.715c0-.24-.02-.435-.063-.585a.903.903 0 0 0-.243-.406h2.06a.992.992 0 0 0-.23.35c-.045.124-.068.337-.068.641v3.653c0 .292.023.503.069.634a.995.995 0 0 0 .229.364h-1.724v-.596c-.21.256-.435.445-.677.565-.242.12-.516.181-.822.181-.262 0-.495-.047-.697-.138a1.424 1.424 0 0 1-.795-.975c-.054-.213-.08-.521-.08-.925v-2.763c0-.303-.022-.517-.068-.641a.914.914 0 0 0-.231-.35h2.052a.972.972 0 0 0-.23.36c-.046.128-.067.339-.067.631V35.7Zm5.64.937c0 .293.023.504.069.635a.989.989 0 0 0 .23.364h-2.054a.948.948 0 0 0 .232-.364c.044-.13.067-.342.067-.635v-3.652c0-.304-.023-.517-.067-.641a.938.938 0 0 0-.232-.35h2.053a.958.958 0 0 0-.232.36c-.044.128-.066.339-.066.63v1.598l1.132-1.597c.085-.116.141-.21.172-.282a.539.539 0 0 0 .044-.21.403.403 0 0 0-.057-.197 1.862 1.862 0 0 0-.242-.302h1.838l-1.719 2.364 2.02 3.278h-.784c-.406 0-.694-.047-.86-.14-.168-.093-.36-.324-.582-.693l-.962-1.612v1.446Zm6.475 1.133c-.858 0-1.562-.279-2.111-.834-.55-.555-.823-1.265-.823-2.13 0-.394.08-.78.241-1.155a3.06 3.06 0 0 1 .683-.994 2.84 2.84 0 0 1 .92-.591 2.93 2.93 0 0 1 1.09-.206c.865 0 1.573.276 2.12.826.548.55.822 1.26.822 2.13 0 .395-.083.783-.247 1.163-.163.381-.388.71-.678.99-.267.26-.573.458-.916.595a2.959 2.959 0 0 1-1.101.206Zm-1.387-3.145c0 .699.132 1.26.395 1.684.262.425.607.636 1.036.636.416 0 .745-.165.987-.496.242-.333.363-.792.363-1.377 0-.7-.132-1.26-.396-1.68-.264-.422-.612-.632-1.043-.632-.411 0-.738.166-.98.5-.241.333-.362.788-.362 1.365Zm6.971-2.631c.514 0 .92.137 1.22.41.3.273.449.642.449 1.105 0 .52-.16.928-.479 1.225-.319.298-.756.448-1.312.448a4.62 4.62 0 0 1-.303-.017h-.019a1.39 1.39 0 0 0 .537-.528c.116-.213.174-.474.174-.785 0-.305-.071-.547-.216-.728a.726.726 0 0 0-.588-.273v3.785c0 .293.022.505.07.636a.974.974 0 0 0 .229.364H52.93a.971.971 0 0 0 .23-.364c.046-.131.068-.343.068-.636V32.99c0-.293-.022-.505-.067-.634a.986.986 0 0 0-.231-.361h2.291Zm3.762 4.643c0 .293.022.504.068.635a.976.976 0 0 0 .23.364h-2.053a.939.939 0 0 0 .231-.364c.045-.13.067-.342.067-.635v-3.652c0-.304-.022-.517-.067-.641a.929.929 0 0 0-.23-.35h2.053a.952.952 0 0 0-.232.36c-.045.128-.067.339-.067.63v3.653Zm.864.999c.133-.155.227-.32.28-.497.054-.178.081-.484.081-.916v-3.03c0-.299-.032-.528-.096-.691a1.863 1.863 0 0 0-.317-.508h1.602l2.359 3.453V33.22c0-.273-.03-.5-.088-.68a1.967 1.967 0 0 0-.28-.546h1.486a2.411 2.411 0 0 0-.233.567 2.749 2.749 0 0 0-.074.684v4.532c-.725-.092-1.37-.535-1.93-1.33a1.206 1.206 0 0 0-.045-.066L61.02 34.16v2.397c0 .286.026.505.078.655.052.151.141.292.265.425h-1.517Zm-51.3-3.503a1.41 1.41 0 0 0 .21.017.47.47 0 0 0 .388-.18c.097-.118.144-.283.144-.494a.7.7 0 0 0-.145-.455.46.46 0 0 0-.373-.178.95.95 0 0 0-.086.006 2.284 2.284 0 0 0-.138.022v1.262Zm0 2.655c.065.01.123.02.175.025.053.005.097.008.13.008a.696.696 0 0 0 .558-.258c.145-.172.217-.394.217-.664 0-.296-.07-.532-.213-.71a.69.69 0 0 0-.568-.266 1.89 1.89 0 0 0-.21.024l-.09.013v1.828Zm-1.77.848a.952.952 0 0 0 .231-.364c.045-.13.067-.342.067-.634v-3.653c0-.293-.022-.503-.067-.632a.965.965 0 0 0-.231-.36h1.93c.633 0 1.117.116 1.455.345.338.231.507.56.507.988 0 .246-.067.465-.2.656-.134.19-.327.347-.58.469.35.111.614.29.793.54.18.25.27.56.27.93 0 .22-.035.429-.104.628a1.7 1.7 0 0 1-.307.54 1.463 1.463 0 0 1-.596.42c-.224.085-.535.127-.932.127H6.777Zm6.393-2.463h1.066l-.532-1.738-.535 1.738Zm-1.848 2.463a3.35 3.35 0 0 0 .289-.426c.074-.135.134-.274.18-.413l1.217-3.787.034-.103c.055-.153.082-.277.082-.369a.57.57 0 0 0-.054-.244 1.57 1.57 0 0 0-.2-.3h1.838l1.474 4.627c.065.204.147.391.246.564.097.173.206.324.327.451h-2.252c.114-.14.189-.25.224-.329a.612.612 0 0 0 .052-.251c0-.054-.003-.106-.009-.154a.632.632 0 0 0-.029-.127l-.261-.811h-1.565l-.243.775c-.03.1-.05.173-.058.22a.688.688 0 0 0 .049.406c.04.091.103.182.184.271h-1.524Zm5.908 0c.132-.155.225-.32.279-.497.054-.178.081-.484.081-.916v-3.03c0-.299-.032-.528-.096-.691a1.87 1.87 0 0 0-.318-.508h1.603l2.358 3.453V33.22c0-.273-.029-.5-.086-.68a2.024 2.024 0 0 0-.282-.546h1.486a2.465 2.465 0 0 0-.233.567 2.68 2.68 0 0 0-.072.684v4.532c-.728-.092-1.37-.535-1.932-1.33l-.045-.066-1.571-2.222v2.397c0 .286.026.505.078.655.053.151.142.292.267.425H17.23Zm7.441-.999c0 .293.024.504.07.635a.983.983 0 0 0 .229.364h-2.053a.94.94 0 0 0 .231-.364c.045-.13.067-.342.067-.635v-3.652c0-.304-.022-.517-.067-.641a.93.93 0 0 0-.231-.35h2.053a.962.962 0 0 0-.232.36c-.045.128-.067.339-.067.63v1.598l1.132-1.597c.085-.116.143-.21.172-.282a.536.536 0 0 0 .045-.21.408.408 0 0 0-.058-.197 1.898 1.898 0 0 0-.241-.302h1.838l-1.718 2.364 2.017 3.278h-.782c-.406 0-.694-.047-.86-.14-.168-.093-.361-.324-.581-.693l-.964-1.612v1.446Z" clip-rule="evenodd"/>
</svg>
