<svg xmlns="http://www.w3.org/2000/svg" width="70" height="50" fill="none" viewBox="0 0 70 50">
  <rect width="70" height="50" fill="#EE3124" rx="4"/>
  <path fill="#fff" fill-rule="evenodd" d="M6 32.797h15.989V17H6v15.797Z" clip-rule="evenodd"/>
  <path fill="#ED3124" fill-rule="evenodd" d="M16.657 19.985H8.16l3.763 4.913h8.497l-3.763-4.913Z" clip-rule="evenodd"/>
  <path fill="#820024" fill-rule="evenodd" d="M20.42 24.898h-8.497L8.16 29.81h8.497l3.763-4.912Z" clip-rule="evenodd"/>
  <path fill="#fff" fill-rule="evenodd" d="M60.479 28.198h-2.072v-2.435h2.072c.966 0 1.312.625 1.312 1.21 0 .593-.346 1.225-1.312 1.225Zm-2.072-6.6h1.94c.814 0 1.298.424 1.298 1.14 0 .712-.484 1.136-1.298 1.136h-1.94v-2.276Zm4.125 3.169a2.437 2.437 0 0 0 1.227-2.117c0-1.805-1.246-2.929-3.253-2.929h-4.214v10.351h4.392c1.986 0 3.221-1.146 3.221-2.997 0-1.39-.825-2.035-1.373-2.308Zm-14.471 1.568c-.08-.135-3.7-6.634-3.7-6.634h-2.07v10.351h2.115V23.87c.16.27 3.655 6.267 3.655 6.267s3.478-5.996 3.633-6.266v6.182h2.116V19.701h-2.067l-3.682 6.634Zm-10.48 3.737h2.122v-10.35h-2.121v10.35ZM34.08 27.58a3.444 3.444 0 0 1-2.151.743c-1.912 0-3.398-1.504-3.398-3.424s1.486-3.425 3.398-3.425c.787 0 1.534.256 2.15.744l.03.023 1.474-1.456-.033-.03a5.578 5.578 0 0 0-3.621-1.337c-3.093 0-5.608 2.46-5.608 5.48 0 3.022 2.515 5.48 5.608 5.48a5.577 5.577 0 0 0 3.62-1.335l.034-.032-1.474-1.454-.03.023Z" clip-rule="evenodd"/>
</svg>
