<svg xmlns="http://www.w3.org/2000/svg" width="70" height="50" fill="none" viewBox="0 0 70 50">
  <rect width="70" height="50" fill="url(#a)" rx="4"/>
  <path fill="#fff" fill-rule="evenodd" d="M30.848 37.22h3.246V21.565h-3.246V37.22Zm6.222-15.63v2.936h2.733v8.832c0 1.219.339 2.197.992 2.935.652.764 1.523 1.142 2.619 1.167 1.088.026 2.054-.214 2.872-.712l.052-.026v-.051l.775-2.978-.192.12c-.87.523-1.67.78-2.402.78-1.01 0-1.523-.591-1.523-1.759v-8.308h3.316v-2.935h-3.316v-4.892l-3.193 1.69v3.202H37.07Zm12.436 15.63h3.272V21.565h-3.272V37.22ZM28.985 24.028l-.07-.051c-1.496-1.794-3.367-2.67-5.613-2.67-2.35 0-4.281.713-5.83 2.12C15.826 24.912 15 26.912 15 29.418s.827 4.49 2.471 5.991c1.523 1.408 3.482 2.103 5.831 2.103 2.246 0 4.134-.884 5.614-2.652l.07-.052-1.837-2.188-.07.068c-1.192 1.168-2.471 1.768-3.846 1.768-1.436 0-2.62-.48-3.56-1.433-.948-.936-1.4-2.145-1.4-3.605 0-1.459.452-2.678 1.4-3.63.94-.927 2.124-1.408 3.56-1.408 1.375 0 2.654.601 3.846 1.768l.07.07 1.836-2.19Z" clip-rule="evenodd"/>
  <path fill="#EC1C2D" fill-rule="evenodd" d="M32.449 18.99a13.527 13.527 0 0 1 4.334-2.96 12.543 12.543 0 0 1 4.96-.996c1.715 0 3.386.326 4.987.995a13.775 13.775 0 0 1 4.299 2.961l.052.043h3.725l-.14-.214c-1.479-2.052-3.393-3.674-5.69-4.858a15.603 15.603 0 0 0-7.233-1.751 15.72 15.72 0 0 0-7.24 1.75c-2.298 1.185-4.212 2.807-5.683 4.859l-.148.214h3.75l.027-.043Z" clip-rule="evenodd"/>
  <defs>
    <linearGradient id="a" x1="0" x2="0" y1="0" y2="50" gradientUnits="userSpaceOnUse">
      <stop stop-color="#2E68C4"/>
      <stop offset="1" stop-color="#1E3B80"/>
    </linearGradient>
  </defs>
</svg>
