<svg xmlns="http://www.w3.org/2000/svg" width="70" height="50" fill="none" viewBox="0 0 70 50">
  <rect width="70" height="50" fill="#fff" rx="4"/>
  <path fill="#004F38" fill-rule="evenodd" d="M8.02 25.63h.931c.535 0 .965.042 1.438.587.333.374.702 1.209.702 2.552 0 .485.007.963-.084 1.454-.15.777-.51 2.019-2.566 2.019-.548 0-.42-.014-.42-.014V25.63Zm1.06 7.757c2.767 0 4.007-1.228 4.007-4.583 0-.888-.263-2.374-1.095-3.282-.859-.93-1.968-1.049-2.91-1.049H6v8.914h3.08Zm8.736-2.307c0 .294-.013.69-.325.973-.264.232-.634.25-.78.25-.35 0-.662-.127-.797-.556a1.711 1.711 0 0 1-.049-.408c0-.651.434-.926.917-1.04.256-.058.423-.072 1.034-.122v.902Zm0-1.707-1.01.098c-1.09.127-1.5.225-1.968.531-.75.509-.76 1.251-.76 1.496 0 .608.184 1.067.437 1.332.335.385.862.528 1.373.528 1.252 0 1.848-.566 1.848-.566l.012.403h1.683v-4.218c0-.476.013-1.14-.535-1.614-.285-.246-.537-.357-.922-.414-.387-.067-.523-.094-.896-.094-1.137 0-1.997.197-2.488 1.065-.211.375-.196.75-.196 1.038h1.547c.012-.25.023-.597.223-.838.1-.138.333-.333.765-.333.14 0 .551 0 .76.338.114.2.127.462.127.757v.49ZM31.25 31.08c0 .294-.012.69-.328.973-.256.232-.63.25-.78.25-.348 0-.66-.127-.794-.556a1.652 1.652 0 0 1-.046-.408c0-.651.43-.926.916-1.04.255-.058.423-.072 1.032-.122v.902Zm0-1.707-1.008.098c-1.094.127-1.5.225-1.97.531-.747.509-.76 1.251-.76 1.496 0 .608.184 1.067.435 1.332.337.385.869.528 1.377.528 1.252 0 1.847-.566 1.847-.566l.01.403h1.684v-4.218c0-.476.01-1.14-.533-1.614-.286-.246-.541-.357-.924-.414-.386-.067-.521-.094-.896-.094-1.138 0-1.997.197-2.486 1.065-.212.375-.198.75-.198 1.038h1.546c.015-.25.025-.597.224-.838.097-.138.33-.333.767-.333.139 0 .55 0 .762.338.11.2.123.462.123.757v.49Zm25.419 3.822h-1.76V29.42c0-.243 0-.443-.023-.65-.013-.196-.075-.84-.84-.84-.204 0-.377.052-.487.098-.52.238-.532.656-.543.99v4.177H51.25v-6.179h1.766v.704c.445-.395.844-.826 1.832-.826.831 0 1.243.32 1.413.517.392.436.392 1.005.408 1.448v4.336Zm-30.449 0h-1.76V29.42c0-.243 0-.443-.029-.65-.01-.196-.071-.84-.846-.84a1.29 1.29 0 0 0-.478.098c-.521.238-.536.656-.547.99v4.177h-1.765v-6.179h1.764v.704c.45-.395.845-.826 1.835-.826.834 0 1.24.32 1.415.517.396.436.396 1.005.411 1.448v4.336Zm7.934-6.182h1.765v.72c.338-.303.934-.846 1.995-.846 1.209 0 1.546.72 1.63.954.719-.691 1.194-.954 1.886-.954.336 0 .57.056.794.137.947.36.97 1.202.985 1.746v4.419h-1.79v-4.024c-.011-.44-.023-.684-.14-.88-.02-.049-.197-.358-.641-.358-.15 0-.438.037-.575.112-.49.236-.51.64-.52.971v4.179h-1.748v-4c0-.474.008-1.262-.792-1.262-.177 0-.49.05-.645.137-.439.27-.451.662-.439 1.212v3.913h-1.765v-6.176Zm14.261 2.957c0 .355-.014.688-.05 1.03-.037.339-.094 1.024-.624 1.313a1.11 1.11 0 0 1-.477.11c-1 0-1.09-1.042-1.112-1.423a10.962 10.962 0 0 1-.039-.841c0-.246.017-.589.054-.994.035-.327.106-.954.616-1.249a1.15 1.15 0 0 1 .536-.124c.952 0 1.036.99 1.059 1.373.023.27.037.543.037.806Zm1.798.032c0-.546 0-1.571-.61-2.27-.743-.877-1.803-.877-2.174-.877-.436 0-1.436.018-2.22.724-.888.79-.888 2.044-.888 2.681 0 1.207.274 2.485 1.809 2.929.447.138.685.16 1.134.16.423 0 1.473 0 2.255-.866.694-.762.694-1.911.694-2.48Z" clip-rule="evenodd"/>
  <path fill="#F15B22" fill-rule="evenodd" d="M6 12v4.24h9.179v-2.309L6 12Z" clip-rule="evenodd"/>
  <path fill="#FFC222" fill-rule="evenodd" d="M26.157 16.24 15.177 12l.002 1.931 10.978 2.31Z" clip-rule="evenodd"/>
  <path fill="#F7931D" fill-rule="evenodd" d="M15.176 16.24h10.977l-10.977-2.309v2.31Z" clip-rule="evenodd"/>
  <path fill="#F15B22" fill-rule="evenodd" d="M26.155 16.236v.004l23.058 4.854v-4.858H26.155Z" clip-rule="evenodd"/>
  <path fill="#F7931D" fill-rule="evenodd" d="M63.999 24.206v-7.97H49.214v4.86l14.785 3.11Z" clip-rule="evenodd"/>
  <path fill="#FFC222" fill-rule="evenodd" d="M49.213 21.096 26.16 16.242l23.053 7.968v-3.114Z" clip-rule="evenodd"/>
</svg>
