<svg xmlns="http://www.w3.org/2000/svg" width="70" height="50" fill="none" viewBox="0 0 70 50">
  <rect width="70" height="50" fill="#FFC134" rx="4"/>
  <path fill="#fff" d="M6.779 19.827h8.632v9H6.779z"/>
  <path fill="url(#a)" fill-rule="evenodd" d="M16.868 21.416c-.589 1.262-.618 1.975-.618 2.777s.03 1.515.618 2.777c.02.047.044.096.069.148.174.36.404.837-.084 1.382-.456.46-.97.371-1.309.178.191.357.265.876-.176 1.322-.555.494-1.039.244-1.398.06a5.479 5.479 0 0 0-.117-.06c-1.25-.594-1.956-.624-2.75-.624s-1.5.03-2.75.624l-.128.065c-.358.187-.837.437-1.387-.065-.441-.46-.367-.98-.176-1.322-.353.193-.868.282-1.31-.178-.502-.561-.255-1.05-.072-1.413l.058-.117c.588-1.262.618-1.975.618-2.777s-.03-1.515-.618-2.777c-.02-.047-.044-.096-.069-.148-.174-.36-.405-.837.084-1.382.456-.445.97-.371 1.309-.178-.191-.356-.265-.876.176-1.322.556-.507 1.04-.258 1.399-.073l.116.058c1.25.594 1.956.624 2.75.624s1.5-.03 2.75-.624c.046-.02.095-.044.146-.07.356-.175.829-.408 1.369.085.44.46.367.98.176 1.322.353-.193.853-.282 1.309.178.502.561.256 1.05.072 1.413l-.057.117ZM11.97 25.53l2.911 2.465-2.44-2.955s-.383-.401-.383-.847c0-.446.382-.847.382-.847l2.456-2.955-.015-.015-2.912 2.48s-.397.387-.838.387c-.44 0-.838-.387-.838-.387l-2.926-2.48-.015.015 2.456 2.956s.382.4.382.846c0 .446-.382.847-.382.847l-2.456 2.955h.015l2.926-2.465s.397-.386.838-.386c.441 0 .838.386.838.386Z" clip-rule="evenodd"/>
  <path fill="url(#b)" d="M10.191 24.193c0-.446-.382-.847-.382-.847l-2.412-2.895 1.868 3.267a.946.946 0 0 1 0 .965l-1.912 3.312 2.456-2.955s.382-.401.382-.847Z"/>
  <path fill="url(#c)" d="M11.691 22.604a1.111 1.111 0 0 1-1.22.119l-1.06-.61.883.743s.397.387.838.387c.441 0 .838-.387.838-.387l2.912-2.48.53-.564-3.721 2.792Z"/>
  <path fill="url(#d)" d="m15.559 28.663-.662-.683-.015.015-2.912-2.465s-.397-.386-.838-.386c-.441 0-.838.386-.838.386l-.882.742.808-.445a1.47 1.47 0 0 1 1.589.104l3.75 2.732Z"/>
  <path fill="#fff" d="m10.412 28.53-.662-.565s-.088-.089-.191-.089c-.103 0-.191.09-.191.09l-.662.564.559-.669s.088-.089.088-.193c0-.104-.088-.193-.088-.193l-.56-.668.663.564s.088.09.19.09c.104 0 .192-.09.192-.09l.662-.564-.56.668s-.087.09-.087.193c0 .104.088.193.088.193l.559.669Zm3.97-7.53.515.43-.441-.52-.074.09Zm-.117-.312-.339-.4s-.147-.164-.147-.328c0-.178.147-.326.147-.326l.956-1.159-1.147.966s-.162.148-.323.148c-.177 0-.324-.148-.324-.148l-.617-.55c-.045.015-.089.015-.133.03l.574.683s.147.163.147.327c0 .178-.147.326-.147.326l-.956 1.159 1.147-.965s.162-.149.323-.149c.177 0 .324.149.324.149l.382.326"/>
  <path fill="#EAEAEA" d="m14.132 20.792.133.119.117-.104-.117-.119"/>
  <path fill="#1D1D1B" fill-rule="evenodd" d="M24.97 27.03h.045v.95h1.176v-9.935h-1.235v4.113h-.03c-.382-.623-1.058-1.084-2.22-1.084-1.941 0-2.883 1.604-2.883 3.416 0 1.842.853 3.654 2.868 3.654 1.191 0 1.956-.61 2.28-1.114Zm-.029-2.406c0 1.129-.573 2.524-1.97 2.524-1.324 0-1.883-1.5-1.853-2.554-.03-1.233.5-2.51 1.838-2.51s1.985 1.277 1.985 2.54Zm2.486-4.901h1.397v-1.411h-1.398v1.41Zm1.323 1.5h-1.235v6.757h1.235v-6.757Zm4 9.713c2.412 0 3.456-1.189 3.456-3.238h-.015v-6.46h-1.147v1.01h-.03c-.367-.743-1.029-1.174-2.205-1.174-2.015 0-2.985 1.857-2.985 3.594 0 1.753.955 3.327 2.867 3.327.853 0 1.72-.356 2.25-1.054h.03v.668c0 1.426-.78 2.317-2.074 2.317-.897 0-1.47-.178-2.412-.61l-.132 1.16c1.073.37 1.691.46 2.397.46Zm.265-8.867c1.309 0 1.956 1.203 1.956 2.614 0 1.262-.81 2.302-1.956 2.302-1.162 0-1.868-1.114-1.868-2.39 0-1.16.618-2.526 1.868-2.526Zm4.25-2.346h1.397v-1.411h-1.397v1.41Zm1.309 1.5h-1.236v6.757h1.236v-6.757Zm2.264-3.178h-.823v9.935h.823v-1.07h.03c.44.862 1.132 1.234 2.088 1.234 1.838 0 2.75-1.53 2.75-3.535 0-2.05-.78-3.535-2.75-3.535-1.309 0-1.97.966-2.088 1.292h-.03v-4.321Zm0 6.564c0-1.233.47-2.822 1.986-2.822 1.588 0 1.985 1.515 1.985 2.822 0 1.307-.412 2.822-1.985 2.822-1.471 0-1.986-1.59-1.986-2.822Zm9.912 2.287h.015v1.084h.808c-.058-.46-.058-.861-.058-1.41v-2.986c0-1.767-.706-2.525-2.353-2.525-.589 0-1.456.208-1.971.46v.803a3.635 3.635 0 0 1 1.97-.55c1.118 0 1.53.58 1.53 1.738v.341h-.162c-1.735 0-4.117.105-4.117 2.377 0 .623.308 1.916 2.206 1.916.838 0 1.764-.446 2.132-1.248Zm-.28-2.317h.25v.416c0 .728-.044 2.436-1.985 2.436-.765 0-1.397-.327-1.397-1.218 0-1.485 1.706-1.634 3.132-1.634Z" clip-rule="evenodd"/>
  <path fill="#1D1D1B" d="M52.78 22.827c0-.52 0-1.055-.06-1.59h.795v1.204h.029c.28-.61.78-1.367 2.162-1.367 1.647 0 2.28 1.114 2.28 2.6v4.321h-.824v-4.114c0-1.277-.441-2.094-1.589-2.094-1.514 0-1.985 1.337-1.985 2.466v3.742h-.823v-5.168h.014Zm6.44-4.782h.824V24l2.985-2.777h1.06l-3.265 3 3.661 3.757h-1.147l-3.309-3.475v3.475h-.823v-9.935h.014Z"/>
  <path fill="#1D1D1B" fill-rule="evenodd" d="M53.397 28.812H53v3.208h.382v-.312h.03c.103.163.353.356.735.356.647 0 .927-.594.927-1.188 0-.579-.31-1.099-.942-1.099-.382 0-.603.149-.72.357h-.015v-1.322Zm0 2.124c0-.401.22-.817.647-.817.427 0 .603.416.588.802 0 .341-.176.832-.603.832-.44 0-.632-.446-.632-.817Z" clip-rule="evenodd"/>
  <path fill="#1D1D1B" d="M55.28 32.629c.044.015.117.03.19.03.354 0 .471-.49.471-.535 0-.045-.044-.164-.073-.238l-.736-2.034h.442l.588 1.811h.014l.589-1.811h.397l-.794 2.227c-.147.416-.31.906-.839.906a.995.995 0 0 1-.264-.03l.014-.326Z"/>
  <path fill="#1D1D1B" fill-rule="evenodd" d="M59.03 29.035h-.868v2.985h.867c.971 0 1.574-.505 1.574-1.515 0-.92-.691-1.47-1.574-1.47Zm0 2.613h-.456v-2.242h.5c.617 0 1.088.416 1.088 1.114 0 .772-.397 1.128-1.133 1.128Zm1.94-2.613h.81c.617 0 1.044.208 1.044.757 0 .416-.236.624-.618.713v.015c.397.03.691.297.691.713 0 .638-.53.802-1.132.802h-.794v-3Zm.442 1.277h.22c.412 0 .765-.045.765-.475 0-.357-.294-.446-.544-.446h-.441v.92Zm.309 1.366h-.324v-1.024h.28c.367 0 .764.074.764.534 0 .416-.338.49-.72.49Z" clip-rule="evenodd"/>
  <path fill="#1D1D1B" d="M64.691 29.495a1.264 1.264 0 0 0-.559-.119c-.235 0-.514.09-.514.401 0 .58 1.28.446 1.28 1.426 0 .639-.486.891-1.09.891-.205 0-.41-.06-.602-.119l.044-.4c.147.059.397.148.618.148.235 0 .588-.134.588-.49 0-.669-1.28-.49-1.28-1.411 0-.535.412-.817.956-.817.192 0 .427.03.633.104l-.074.386Z"/>
  <defs>
    <linearGradient id="b" x1="7.354" x2="7.354" y1="20.508" y2="28.035" gradientUnits="userSpaceOnUse">
      <stop stop-color="#6B2A70"/>
      <stop offset=".097" stop-color="#742D6C"/>
      <stop offset=".252" stop-color="#8B3362"/>
      <stop offset=".446" stop-color="#B13F51"/>
      <stop offset=".669" stop-color="#E64E39"/>
      <stop offset=".679" stop-color="#E84F38"/>
    </linearGradient>
    <linearGradient id="c" x1="11.979" x2="15.881" y1="24.616" y2="20.16" gradientUnits="userSpaceOnUse">
      <stop offset=".041" stop-color="#81358A"/>
      <stop offset=".199" stop-color="#A63E64"/>
      <stop offset=".283" stop-color="#AE475D"/>
      <stop offset=".417" stop-color="#C45E4A"/>
      <stop offset=".585" stop-color="#E7842A"/>
      <stop offset=".633" stop-color="#F29020"/>
    </linearGradient>
    <linearGradient id="d" x1="9.407" x2="15.559" y1="28.663" y2="28.663" gradientUnits="userSpaceOnUse">
      <stop stop-color="#AA3364"/>
      <stop offset=".161" stop-color="#B3375E"/>
      <stop offset=".419" stop-color="#CA414D"/>
      <stop offset=".679" stop-color="#E84F38"/>
      <stop offset=".726" stop-color="#E74B35"/>
      <stop offset=".777" stop-color="#E33D2E"/>
      <stop offset=".83" stop-color="#DD2821"/>
      <stop offset=".867" stop-color="#D71416"/>
      <stop offset="1" stop-color="#C41512"/>
    </linearGradient>
    <radialGradient id="a" cx="0" cy="0" r="1" gradientTransform="matrix(6.99127 0 0 7.05756 11.946 23.027)" gradientUnits="userSpaceOnUse">
      <stop offset=".168" stop-color="#F29020"/>
      <stop offset=".304" stop-color="#F18D21"/>
      <stop offset=".422" stop-color="#F08224"/>
      <stop offset=".533" stop-color="#ED702A"/>
      <stop offset=".577" stop-color="#EB672D"/>
      <stop offset=".617" stop-color="#EA5E2F"/>
      <stop offset=".683" stop-color="#E74433"/>
      <stop offset=".714" stop-color="#E63635"/>
      <stop offset=".755" stop-color="#E43231"/>
      <stop offset=".8" stop-color="#DE2425"/>
      <stop offset=".837" stop-color="#D71416"/>
      <stop offset=".969" stop-color="#BA1819"/>
    </radialGradient>
  </defs>
</svg>
