<svg xmlns="http://www.w3.org/2000/svg" width="70" height="50" fill="none" viewBox="0 0 70 50">
  <rect width="70" height="50" fill="#fff" rx="4"/>
  <path fill="#231F20" fill-rule="evenodd" d="M12.883 25.722c-.007 0 0 3.581 0 3.581 0 .451-.401.845-.926.845h-.505v.184h4.263v-.184h-.503c-.52 0-.927-.4-.927-.845v-7.979c0-.437.4-.844.927-.844h.503v-.184h-4.263v.184h.505c.531 0 .926.407.926.844v3.89H7.832v-3.89c0-.437.409-.844.928-.844h.503v-.184H5v.184h.503c.525 0 .928.407.928.844v7.979c0 .445-.403.845-.928.845H5v.184h4.263v-.184H8.76c-.52 0-.928-.4-.928-.845 0 0 .007-3.581 0-3.581h5.051Zm10.138 1.984c.037.59-.343 1.485-.868 1.942a3.268 3.268 0 0 1-2.19.824c-1.095 0-2.037-.564-2.38-.69-.207-.078-.48-.069-.643.028-.188.113-.306.294-.35.634h-.16v-3.478h.16c.146 1.07.664 1.699.987 2.055.525.585 1.516.916 2.473.768.76-.118 1.591-.913 1.501-1.896-.032-.356-.114-.874-.88-1.356-.48-.303-1.165-.734-1.81-1.148-.817-.52-1.558-1.086-1.766-1.316-.274-.298-.614-.73-.614-1.422 0-.59.234-1.266.73-1.716.496-.45 1.168-.788 2.131-.788.964 0 1.695.493 1.942.606.247.111.523.086.68 0 .152-.085.254-.211.298-.55h.16v3.294h-.16c-.146-1.07-.628-1.872-.963-2.167-.335-.296-.993-.705-1.971-.521-.94.175-1.396.583-1.482 1.308-.066.552.245.892.423 1.097.366.424 2.682 1.69 3.73 2.563.541.45.964.985 1.022 1.929Zm6.751-2.499c1.856.614 2.385 1.877 2.041 3.179-.405 1.529-2.194 1.84-2.774 1.913-.262.033-.93.031-1.59.031-1.18 0-2.673-.004-3.87-.004v-.182h.613c.39 0 .836-.317.836-.794v-8.013c0-.48-.445-.802-.832-.802h-.613v-.183h3.7c.89 0 1.375.081 1.686.14.526.098 2.06.534 2.425 1.914a2.317 2.317 0 0 1-1.622 2.801Zm-3.357-.282c.511.127 2.015.162 2.599-.196.914-.56 1.232-1.458 1.063-2.253a1.932 1.932 0 0 0-.816-1.224c-.89-.605-2.174-.506-2.846-.31v3.983Zm0 4.839c.72.216 2.094.38 3.051-.28 1.147-.792 1.389-2.728-.231-3.736-.652-.407-2.28-.378-2.82-.257v4.273Zm15.155-9.293.15 3.4-.211.007c-.103-.86-.438-1.465-.861-1.86-.122-.112-.353-.342-.688-.544a3.413 3.413 0 0 0-2.364-.468c-1.475.253-2.233 1.192-2.613 2.097-.467 1.112-.763 3.014.03 4.617.643 1.302 1.878 1.845 2.831 1.984.813.12 2.614.084 3.987-1.702l.218.14c-1.066 1.45-2.483 2.38-4.102 2.365a5.374 5.374 0 0 1-3.971-1.773c-.628-.69-1.11-2-1.116-3.14-.005-1.013.227-2.141.605-2.8.648-1.133 2.007-2.26 3.795-2.428 1.34-.126 2.22.127 2.971.541.377.208.588.231.792.149.205-.086.369-.254.369-.585h.178Z" clip-rule="evenodd"/>
  <path fill="#fff" fill-rule="evenodd" d="M50.355 30.33h10.4V20.306h-10.4V30.33Z" clip-rule="evenodd"/>
  <path fill="#EE3624" fill-rule="evenodd" d="m45.153 25.318 5.2 5.014V20.304l-5.2 5.014Zm5.202 5.014h10.4l-5.2-5.014-5.2 5.014Zm5.2-5.014 5.2-5.014h-10.4l5.2 5.014Zm5.201-5.014v10.028l5.2-5.014-5.2-5.014Z" clip-rule="evenodd"/>
</svg>
