<svg xmlns="http://www.w3.org/2000/svg" width="70" height="50" fill="none" viewBox="0 0 70 50">

    <g clip-path="url(#a)">
        <path fill="#FDAF27"
              d="M18.563 17.032a1.69 1.69 0 0 0-1.964 1.277c-.16-.633-.667-1.147-1.309-1.277a1.69 1.69 0 0 0-1.965 1.277c-.161-.632-.666-1.147-1.308-1.277a1.69 1.69 0 0 0-1.778.81 1.796 1.796 0 0 0 .143 2.003c.45.56 1.213.779 1.879.532a1.74 1.74 0 0 0 1.065-1.21c.06.244.169.477.33.678.45.56 1.212.779 1.878.532a1.74 1.74 0 0 0 1.065-1.21c.06.244.17.477.33.678.45.56 1.213.779 1.879.532.664-.246 1.119-.912 1.119-1.638 0-.82-.581-1.548-1.364-1.707Zm-5.401 8.452c.172.757.61 1.463 1.378 1.68a1.693 1.693 0 0 0 1.917-.807c.225-.408.197-.869.195-1.32-.001-.304-.003-.607-.003-.911 0-.335 0-.67.002-1.004.002-.428-.01-.844.198-1.233a1.588 1.588 0 0 1 1.452-.844c.601.025 1.15.413 1.388.981.16.378.132.787.133 1.189.002.331.002.663.002.995 0 .716.043 1.463-.092 2.168-.313 1.632-1.413 3.053-2.902 3.707a4.765 4.765 0 0 1-4.597-.452 4.807 4.807 0 0 1-1.567-1.827c-.355-.726-.57-1.633-.434-2.446a1.51 1.51 0 0 1 1.152-1.224 1.47 1.47 0 0 1 1.562.71c.115.198.165.415.216.638Z"/>
        <path fill="#000"
              d="M60 25.371a3.968 3.968 0 0 1-3.996 3.988c-2.215 0-3.951-1.755-3.951-3.988 0-2.232 1.736-3.973 3.965-3.973A3.952 3.952 0 0 1 60 25.371Zm-5.896.015c0 1.201.808 2.064 1.915 2.064 1.093 0 1.916-.878 1.916-2.064 0-1.201-.824-2.094-1.916-2.094-1.107 0-1.915.878-1.915 2.094Zm-26.07 1.484c.376.223.738.45 1.188.423a1.397 1.397 0 0 0 1.071-.624c.229-.34.224-.727.224-1.12v-5.531c0-.229-.012-.454.073-.672.254-.647 1.076-.855 1.592-.403.277.242.355.575.355.93 0 .714.02 5.658-.005 6.149a3.657 3.657 0 0 1-1.05 2.36 3.39 3.39 0 0 1-2.398.991c-.852 0-1.753-.337-2.31-1.022-.225-.275-.355-.6-.267-.961a.963.963 0 0 1 .697-.708c.309-.073.568.034.83.189Zm14 .639.002-.001a1.09 1.09 0 0 1-.508-.91v-4.16c0-.574-.452-1.04-1.01-1.04a1.02 1.02 0 0 0-1 .899c-.51-.566-1.282-.898-2.209-.898-2.08 0-3.591 1.678-3.591 3.988s1.511 3.988 3.591 3.988l.029-.001h.028c.998 0 1.864-.386 2.495-1.043.323.516.844.895 1.467 1.01a1.019 1.019 0 0 0 .191.016h.014a.982.982 0 0 0 .969-.996 1 1 0 0 0-.468-.852Zm-4.35-.028c-1.123 0-1.916-.878-1.916-2.094 0-1.217.809-2.11 1.916-2.11 1.107 0 1.87.862 1.87 2.11 0 1.247-.748 2.094-1.87 2.094Zm13.267-5.036c0-.6-.419-1.047-.988-1.047-.524 0-.943.4-.988.955-.508-.6-1.302-.955-2.26-.955-2.08 0-3.591 1.679-3.591 3.988 0 2.31 1.512 3.988 3.592 3.988.934 0 1.706-.332 2.215-.922v.247c-.007 1.243-.757 2.076-1.871 2.076-.477 0-.906-.156-1.24-.45a1.85 1.85 0 0 1-.328-.384.993.993 0 0 0-1.4-.29c-.465.318-.59.963-.282 1.441.195.303.429.575.694.809a3.8 3.8 0 0 0 2.557.953c2.229 0 3.853-1.716 3.889-4.092l.002-.45v-5.867Zm-3.86 5.036c-1.123 0-1.916-.878-1.916-2.094 0-1.216.808-2.11 1.915-2.11 1.108 0 1.87.862 1.87 2.11 0 1.247-.748 2.094-1.87 2.094Z"/>
    </g>
    <defs>
        <clipPath id="a">
            <path fill="#fff" d="M10 17h50v16H10z"/>
        </clipPath>
    </defs>
</svg>
