<svg xmlns="http://www.w3.org/2000/svg" width="70" height="50" fill="none" viewBox="0 0 70 50">
  <rect width="70" height="50" fill="#05B0EE" rx="4"/>
  <path fill="#fff" fill-rule="evenodd" d="M46.528 29.644c-1.102 2.485-2.852 4.374-5.268 5.628-.73.38-1.5.652-2.298.847-.055.013-.112.01-.23.02.428-.299.812-.556 1.166-.854 1.942-1.632 3.194-3.678 3.499-6.213.341-2.837-.393-5.406-2.193-7.64-1.326-1.645-3-2.825-4.92-3.692-.762-.345-1.502-.728-2.319-.93-.973-.241-1.96-.332-2.972-.325a9.476 9.476 0 0 1 2.19-1.294c1.573-.684 3.218-1.017 4.931-.917 1.92.111 3.634.803 5.137 1.993 2.243 1.777 3.661 4.08 4.152 6.906.388 2.234.04 4.404-.875 6.47Zm-10.092 5.824c-.38.237-.795.409-1.204.592a.898.898 0 0 1-.633.037c-3.568-.938-6.023-3.174-7.55-6.496-.015-.034-.047-.072.005-.145 1.834 1.628 3.99 2.227 6.393 1.92 1.47-.186 2.789-.78 3.878-1.786 2.623-2.422 2.881-5.368 1.8-8.637.245.198.398.42.558.633a8.822 8.822 0 0 1 1.759 4.453c.449 4.268-1.525 7.255-5.006 9.428Zm-3.923 1.271c-3.054.261-5.457-1.012-7.446-3.212-1.27-1.407-2.093-3.058-2.354-4.944-.378-2.74.096-5.29 1.851-7.51a5.16 5.16 0 0 1 .773-.786c-1.12 3.262-.858 6.461.435 9.585 1.312 3.172 3.581 5.43 6.742 6.774.05-.001.113.008.11.06-.003.068-.07.03-.111.033Zm-3.45-17.661c1.925-1.413 4.418-1.309 6.26.215 1.259 1.041 2.127 2.35 2.328 3.978.29 2.36-.259 4.49-2.154 6.082-1.856 1.56-4.675 1.5-6.511-.08-1.27-1.095-1.953-2.5-2.206-4.137a7.455 7.455 0 0 1-.102-1.215c.061-1.977.762-3.652 2.385-4.843Zm20.448 4.215c-.574-3.063-2.087-5.57-4.528-7.496-2.28-1.8-4.91-2.65-7.787-2.785a12.192 12.192 0 0 0-3.44.344c-2.66.642-4.99 1.855-6.778 3.992a.661.661 0 0 1-.236.185c-1.758.809-3.25 1.966-4.441 3.496-1.81 2.325-2.606 4.948-2.195 7.89.39 2.797 1.766 5.017 4.054 6.653 2.38 1.702 5.09 2.355 7.967 2.426.874.021 1.73-.12 2.582-.31.326-.072.642-.227.99-.174a11.5 11.5 0 0 0 2.025.144c.62.02 1.266-.03 1.908-.145 3.896-.704 6.82-2.794 8.714-6.27 1.356-2.49 1.685-5.169 1.165-7.95Z" clip-rule="evenodd"/>
</svg>
