<svg xmlns="http://www.w3.org/2000/svg" width="70" height="50" fill="none" viewBox="0 0 70 50">
  <rect width="70" height="50" fill="#003D79" rx="4"/>
  <path fill="#fff" fill-rule="evenodd" d="M5.063 26.481c0-.897-.016-1.65-.063-2.32h1.643l.077 1.153h.047c.372-.61 1.053-1.33 2.324-1.33.992 0 1.766.578 2.09 1.441h.033c.264-.431.572-.751.928-.976.42-.304.9-.465 1.52-.465 1.254 0 2.524.88 2.524 3.377v4.593h-1.86V27.65c0-1.296-.432-2.066-1.346-2.066-.652 0-1.132.481-1.332 1.042a2.867 2.867 0 0 0-.094.654v4.674h-1.86V27.44c0-1.087-.417-1.857-1.3-1.857-.713 0-1.193.577-1.364 1.12a1.73 1.73 0 0 0-.109.64v4.61H5.063V26.48Zm18.365 3.601c0 .703.031 1.39.109 1.872h-1.72l-.124-.864h-.047c-.465.609-1.255 1.04-2.23 1.04-1.52 0-2.37-1.135-2.37-2.32 0-1.97 1.687-2.96 4.476-2.945v-.128c0-.512-.201-1.36-1.534-1.36-.744 0-1.519.24-2.03.576l-.372-1.28c.559-.352 1.536-.689 2.728-.689 2.418 0 3.114 1.586 3.114 3.281v2.817Zm-1.86-1.936c-1.347-.033-2.633.271-2.633 1.456 0 .767.48 1.12 1.085 1.12.758 0 1.317-.512 1.487-1.072.046-.144.061-.305.061-.432v-1.072Zm3.178-1.665c0-.897-.017-1.65-.062-2.32h1.671l.094 1.168h.046c.325-.607 1.146-1.345 2.401-1.345 1.317 0 2.68.88 2.68 3.345v4.625h-1.905v-4.4c0-1.121-.402-1.97-1.44-1.97-.76 0-1.286.56-1.488 1.153-.061.176-.077.417-.077.64v4.577h-1.92V26.48Zm15.093-5.451v8.73c0 .8.03 1.666.061 2.194h-1.704l-.076-1.232h-.032c-.45.864-1.365 1.408-2.464 1.408-1.796 0-3.222-1.584-3.222-3.984-.016-2.609 1.564-4.162 3.377-4.162 1.038 0 1.782.45 2.122 1.026h.032v-3.98h1.906Zm-1.906 6.378a2.97 2.97 0 0 0-.046-.51c-.17-.769-.776-1.393-1.643-1.393-1.224 0-1.906 1.12-1.906 2.577 0 1.424.682 2.464 1.89 2.464.775 0 1.457-.544 1.642-1.392.047-.177.063-.368.063-.577v-1.169Zm3.252 4.545h1.923v-7.792h-1.923v7.792Zm3.27-5.28a37.84 37.84 0 0 0-.063-2.512h1.658l.06 1.487h.065c.371-1.104 1.255-1.487 2.06-1.487.185 0 .294-.033.449 0v1.729a2.574 2.574 0 0 0-.558-.064c-.914 0-1.534.607-1.704 1.487-.03.176-.062.385-.062.61v4.03h-1.905v-5.28Zm5.112 5.28h1.92v-7.792h-1.92v7.792Z" clip-rule="evenodd"/>
  <path fill="url(#a)" fill-rule="evenodd" d="M49.113 14.74c-1.154.69-3.874 2.301-4.89 2.901-.618.326-2.052.468-2.863-.661a274.02 274.02 0 0 0-1.122-1.445c-.03-.037-.718-1.09-2.25-1.123a4.819 4.819 0 0 0-2.451.633l-4.856 2.867-.003.001-2.483 1.468 1.285 1.63c.601.77 1.957 1.367 3.132.67 0 0 4.344-2.598 4.36-2.606 1.878-1.064 3.328-1.064 4.29-.668.863.377 1.614 1.316 1.614 1.316l1.155 1.477c.56.71 1.484.431 1.484.431s.342-.04.859-.357c0 0 4.207-2.52 4.21-2.52 1.336-.81 2.561-.961 3.187-.902 1.962.184 2.57 1.6 3.421 2.587.501.581.953.91 1.644.894.454-.01.967-.294 1.043-.346l5.038-3.003s-.517-.804-1.576-2.055c-.947-1.117-1.954-.611-2.756-.201-.337.172-1.559 1.011-2.769 1.597-.862.417-2.1.292-2.78-.575-.04-.052-1.138-1.426-1.254-1.595-.443-.573-1.307-1.087-2.416-1.087-.674 0-1.438.19-2.253.672Z" clip-rule="evenodd"/>
  <defs>
    <linearGradient id="a" x1="28.195" x2="64.917" y1="21.99" y2="21.99" gradientUnits="userSpaceOnUse">
      <stop stop-color="#FFCA06"/>
      <stop offset=".331" stop-color="#FBAA18"/>
      <stop offset=".695" stop-color="#FFC907"/>
      <stop offset="1" stop-color="#FAA619"/>
    </linearGradient>
  </defs>
</svg>
