<svg xmlns="http://www.w3.org/2000/svg" width="70" height="50" fill="none" viewBox="0 0 70 50">
  <rect width="70" height="50" fill="#FFCE4C" rx="4"/>
  <path fill="#231F20" fill-rule="evenodd" d="m23.836 28.733 1.75-4.786.573 4.786h1.849l-1.002-7.03H24.75l-1.494 4.223-1.494-4.223h-2.256l-1.002 7.03h1.849l.572-4.786 1.75 4.786h1.161Zm14.358-5.228-1.254 3.656-1.272-3.656h-2.113l2.377 5.228-.941 2.051h2.047l3.269-7.279h-2.114Zm20.736-2.382v7.604h1.915V26.08l1.964 2.647h2.18l-2.163-2.795 1.97-2.427h-2.201l-1.75 2.283v-4.665H58.93ZM42.563 27.52v-2.75c.388-.13 1.794-.482 1.794 1.305 0 1.82-1.442 1.541-1.794 1.446Zm-1.948.944s1.013.38 2.433.38 3.268-.442 3.268-2.89c0-2.449-2.454-2.537-2.74-2.537-.54 0-.886.147-1.013.212v-2.517h-1.948v7.352Zm7.727-1.342c0-.751 1.425-.805 1.816-.805v1.338c-.408.05-1.816.165-1.816-.533Zm-.98-2.293c2.795-.828 2.796.166 2.796.297v.178c-2.263.02-3.61.667-3.61 1.84 0 1.192 1.254 1.71 2.916 1.71s2.51-.386 2.51-.386v-3.253c0-1.147-.738-1.875-2.51-1.875-1.772 0-2.542.42-2.542.42l.44 1.069ZM30.05 27.122c0-.751 1.424-.805 1.815-.805v1.338c-.407.05-1.816.165-1.816-.533Zm-.98-2.293c2.795-.828 2.795.166 2.795.297v.178c-2.262.02-3.61.667-3.61 1.84 0 1.192 1.255 1.71 2.917 1.71s2.51-.386 2.51-.386v-3.253c0-1.147-.738-1.875-2.51-1.875-1.772 0-2.543.42-2.543.42l.44 1.069Zm27.207 3.893h1.926v-3.308c0-1.72-1.232-2.085-2.752-2.085-1.518 0-2.74.419-2.74.419v4.974h1.927v-3.956c1.48-.433 1.639.28 1.639.625v3.331ZM8.328 23.167s.124-.489.322-.654c.199-.165.911-.637 1.94-.968a.5.5 0 0 1 .271.008l-.012.077c-.014.078-.072.127-.072.127.21.028.347-.12.385-.292.04-.17.171-.848.386-.838.6.027 1.029 1.969.985 2.057-.029.057-.264.01-.264.01.374.59.863.585.974.492.11-.094.05-.397.05-.397 1.177.7 1.11 1.533 1.11 1.533.353-1.379-.461-1.969-.461-1.969.319-.011.666.193.666.193-.496-.667-1.52-1.037-1.52-1.037s-1.193-1.329-1.579-1.279c-.319.041-.501.628-.59 1.03a1.199 1.199 0 0 0-.237.005c-.085-.105-.442-.53-.581-.39-.055.054-.072.437-.076.598-.579.23-1.563.664-1.763.982-.181.29-.223.505-.223.505s-1.18.76-1.469 1.588c0 0 .793-.927 1.758-1.381Z" clip-rule="evenodd"/>
  <mask id="a" width="12" height="13" x="5" y="19" maskUnits="userSpaceOnUse" style="mask-type:luminance">
    <path fill="#fff" fill-rule="evenodd" d="M5 19.36h11.692v11.716H5V19.36Z" clip-rule="evenodd"/>
  </mask>
  <g mask="url(#a)">
    <path fill="#231F20" fill-rule="evenodd" d="M10.846 19.36C7.623 19.36 5 21.988 5 25.217c0 3.23 2.623 5.859 5.846 5.859 3.224 0 5.846-2.629 5.846-5.859 0-3.229-2.622-5.857-5.846-5.857Zm0 .49a5.363 5.363 0 0 1 5.357 5.367 5.363 5.363 0 0 1-5.357 5.369 5.363 5.363 0 0 1-5.357-5.369 5.362 5.362 0 0 1 5.357-5.368Z" clip-rule="evenodd"/>
  </g>
  <path fill="#231F20" fill-rule="evenodd" d="M12.126 22.552c-.017-.613-.32-1.103-.474-1.131-.154-.027-.203.556-.203.556.407.27.677.575.677.575Zm-2.901-.11c-.237.142-.132.264-.132.264s-.038-.122.254-.204c.52-.147.99-.298.979-.425-.011-.126-.363-.176-.363-.176.099.132-.501.397-.738.54Z" clip-rule="evenodd"/>
  <path fill="#231F20" fill-rule="evenodd" d="M9.47 23.252a.13.13 0 0 0 .13-.13.126.126 0 0 0-.046-.096c.086-.006.282.005.282.005-.022-.005-.071.05-.182.188-.11.138-.214.033-.214.033l-.002-.006c.01.002.021.006.032.006Zm-.415.59s.148-.347.258-.391c0 0 .193.05.298.01.104-.038.302-.303.38-.308 0 0-.204.887-1.03.87 0 0 .595.337.897.1.303-.237.072-.42.462-.8.391-.38.133-.396.116-.39a.765.765 0 0 1-.138-.034s.055-.072.166-.12c.11-.051.742-.337.754-.51.01-.17-.457-.363-.694-.358 0 0 .214.089.204.21-.011.122-.627.392-.627.74 0 0-.22.016-.38-.017a.643.643 0 0 0-.507.098c-.176.117-.187-.142-.17-.176 0 0-.341.215.088.491 0 0-.176.182-.193.226-.016.044-.088.281.116.359Zm-.545 1.136s-.008-.314-.298-.248c-.485.11-.652.975-.652.975.546-1.008.95-.727.95-.727Zm.182.769c.263-.43-.058-.703-.471-.472-.412.232-.512.786-.512.786.817-.893.983-.314.983-.314Zm3.896-.554s-.297-.264-.264-.753c.033-.488.123-1.223-.702-1.737 0 0 .338.521.214 1.034-.124.513-.537 1.388-.503 1.68.074.636.735.752.685 1.62 0 0 .388-.472.314-1.025-.074-.555-.561-.795-.347-1.233 0 0 .248.364.603.414Z" clip-rule="evenodd"/>
  <path fill="#231F20" fill-rule="evenodd" d="M8.836 27.74c-.075-.024-.14-.297-.14-.297.107.087.326.09.326.09-.104.1-.112.232-.186.207Zm.824-.87s.258.01.27-.034c.01-.044-.083-.348-.083-.348s.325.034.33.139c.006.104-.181.37-.578.54 0 0 .072-.21.061-.298Zm-1.68-.282a.826.826 0 0 0 .1-.067c.08-.06.141-.09.182-.103a1.9 1.9 0 0 0 .021.49s-.214-.136-.302-.32ZM6.948 25.53c-.127 0-.352-.336-.39-.402-.04-.066.213-.188.291-.21.077-.022.158-.004.17.034.011.032-.159.137-.181.175-.022.04.135.184.16.215.043.056.077.188-.05.188Zm8.017-2.644s.722 1.966-.093 3.752c0 0 .047-.26-.154-.771-.215-.549-.143-1.258-.055-1.39 0 0-.396.397-.374 1.06.022.66.198 2.524-1.144 3.219 0 0 .508-.932.318-2.024 0 0 .174.067.265.298 0 0 .363-.96-.108-2.134 0 0 .264.05.43.19 0 0 .173-.84-.776-1.43-.24-.15-.207-.232-.207-.232s-.074.19.083.38c.156.19.372.563.339.753 0 0-.257-.182-.628-.132 0 0 .71.603.602 1.902 0 0-.18-.198-.643-.281 0 0 .52.976.057 1.91 0 0-.033-.33-.181-.537 0 0-.116.686-.941.927 0 0 .668-.836-.124-1.258-.793-.422-1.461.513-1.593 1.332 0 0-.916.066-1.007-.306-.09-.373.173-.53.173-.53s.14.09.463-.058c.321-.148.998-.554.932-1.067-.066-.512-.866-1.017-1.502-.81-.636.207-1 .77-1.33.76-.33-.008-.734-.512-.676-.776.058-.265.272-.34.347-.787 0 0-.116.012-.193-.038s-.28-.133-.39-.105c-.11.028-.38.21-.391.176-.012-.033.027-.232.027-.232s-.297.314-.253.442c.044.127.303.441.572.618 0 0 .05.385.402.744.21.214.407.253.574.217.07.105.312.421.696.49 0 0-.066-.443-.018-.778a.173.173 0 0 0 .041-.029c.06-.06.765-.71 1.288-.082 0 0-.237.088-.33.386-.094.298-.149 1.037-.925.563 0 0-.066.424.171.678 0 0-.033.452.479.7.512.248.87.06 1.2.226 0 0-.033-.678.247-1.092.28-.413.677-.551.87-.39.192.159.313.765-.43 1.394 0 0 .853.11 1.437-.336 0 0-.073.787-.662 1.455a4.733 4.733 0 0 0 3.727-4.635c0-.848-.223-1.644-.612-2.332Z" clip-rule="evenodd"/>
  <path fill="#231F20" fill-rule="evenodd" d="M11.537 23.07s-.556-.314-.804.01c-.233.307-.081.832-.218 1.16l-.013-.012c-.308-.277-.688.193-.76.33-.07.139-.164.155-.164.155-.677.138-.534-.408-.76-.573-.225-.166-.605.077-.605.077.38-.072.467.193.457.297-.011.105.065.415.17.585.104.17.528.05.875.078.347.027.545.451.545.451.209-.507-.352-.738-.352-.738s.164-.312.357-.205c.617.342.463 1.726.463 1.726.53-1 .297-1.587.02-1.93.035-.312.192-1.296.789-1.412Z" clip-rule="evenodd"/>
</svg>
