<svg xmlns="http://www.w3.org/2000/svg" width="70" height="50" fill="none" viewBox="0 0 70 50">
  <rect width="70" height="50" fill="#fff" rx="4"/>
  <path fill="#595A59" fill-rule="evenodd" d="m39.307 32.235-1.54 3.032-1.54-3.032H34.57v6.873h1.685v-3.436l.951 1.666a.636.636 0 0 0 .56.328.636.636 0 0 0 .56-.328l.95-1.666v3.436h1.686v-6.873h-1.656Zm3.07 6.873v-6.873h4.66v1.506h-2.976v1.148h2.543v1.507h-2.543v1.208h2.977v1.504h-4.661Zm10.226-.655c-.588.607-1.243.77-1.993.77-.8 0-1.407-.268-1.907-.77-.722-.725-.694-1.77-.694-2.8 0-1.034-.028-2.069.694-2.794.5-.502 1.08-.77 1.907-.77 1.76 0 2.513 1.147 2.676 2.277h-1.694c-.136-.522-.405-.773-.982-.773-.309 0-.54.136-.665.3-.154.203-.25.504-.25 1.76 0 1.254.096 1.574.25 1.776.125.166.356.29.665.29.356 0 .596-.106.75-.27.193-.194.261-.537.261-.797v-.097H50.61v-1.412h2.686v.956c0 1.113-.173 1.824-.693 2.354Zm3.558-1.743.63-1.991.63 1.99h-1.26Zm1.28-4.476h-1.3l-2.493 6.874h1.733l.337-1.023h2.147l.337 1.023h1.733l-2.494-6.873Zm-44.759 3.697h-1.869v2.52h1.869c.847 0 1.377-.492 1.377-1.264 0-.773-.53-1.255-1.377-1.255Zm-.077-3.041h-1.792v2.385h1.792c.76 0 1.348-.377 1.348-1.198 0-.82-.587-1.187-1.348-1.187Zm.144 6.218h-2.668v-6.875h2.582c1.194 0 2.022.686 2.022 1.835 0 .724-.433 1.294-1.011 1.506.655.242 1.117.811 1.117 1.632 0 1.246-.828 1.902-2.042 1.902Zm5.345-5.822-1.29 3.63h2.561l-1.27-3.63Zm2.032 5.822-.549-1.554h-2.995l-.549 1.554h-.78l2.523-6.875h.617l2.513 6.875h-.78Zm5.874 0-3.64-5.513v5.513h-.732v-6.875h.694l3.64 5.495v-5.495h.732v6.875h-.693Zm6.56 0-2.09-3.66-1.445 1.739v1.921h-.732v-6.875h.732v3.95l3.197-3.95h.896L30.96 34.89l2.466 4.22h-.867Z" clip-rule="evenodd"/>
  <path fill="#949594" fill-rule="evenodd" d="m37.532 10.024-2.524 5.682 3.996 8.997 6.52-14.679h-7.992Z" clip-rule="evenodd"/>
  <path fill="#595A59" fill-rule="evenodd" d="M45.523 10.024h-7.991l7.75 17.45h7.992l-7.751-17.45Z" clip-rule="evenodd"/>
  <path fill="#EC952D" fill-rule="evenodd" d="M32.487 10.024h-7.992l6.52 14.679 3.995-8.997-2.523-5.682Z" clip-rule="evenodd"/>
  <path fill="#F9C623" fill-rule="evenodd" d="m24.496 10.024-7.751 17.45h7.993l7.749-17.45h-7.991Z" clip-rule="evenodd"/>
  <path fill="#E3672A" fill-rule="evenodd" d="m35.01 15.706-3.996 8.997a4.395 4.395 0 0 0 3.995 2.557 4.394 4.394 0 0 0 3.995-2.557l-3.995-8.997Z" clip-rule="evenodd"/>
</svg>
