<svg xmlns="http://www.w3.org/2000/svg" width="70" height="50" fill="none" viewBox="0 0 70 50">
  <rect width="70" height="50" fill="#EC1F30" rx="4"/>
  <path fill="#fff" fill-rule="evenodd" d="m31.88 15.495-3.33-2.225a8.004 8.004 0 0 1 1.965-1.894l2.89 2.955a4.03 4.03 0 0 0-1.524 1.164Zm4.938 6.069c.284-.146.547-.324.786-.53A3.993 3.993 0 0 0 39.001 18a4 4 0 0 0-5.322-3.778l-2.792-3.085A7.959 7.959 0 0 1 35.002 10 8 8 0 0 1 43 18a8 8 0 0 1-8 8 7.974 7.974 0 0 1-5.634-2.319h9.813l-10.285-.512 10.869-.068-11.374-.593 4.368-.067s2.293.069 4.06-.877Zm-9.078-.198a8.425 8.425 0 0 1-.196-.46h2.383l.442.466h3.57l-.784.826h-4.392a1.182 1.182 0 0 0-1.023-.832Zm-.294-.727a8.006 8.006 0 0 1-.305-4.141l3.862 1.358-.002.143c0 .95.331 1.824.885 2.51-.285-.615-.483-1.303-.483-2.036 0-.158.009-.315.028-.468l4.13 1.45v1.184h-8.115Zm8.115-2.686-3.168-2.116a4.027 4.027 0 0 1 1.458-1.052l1.71 1.748v1.42Zm0 1.358-4.092-1.565a4.02 4.02 0 0 1 .76-1.71l3.332 2.075v1.2Zm-4.538-1.735-3.802-1.452a7.96 7.96 0 0 1 1.093-2.518l3.4 2.113a4.005 4.005 0 0 0-.691 1.857ZM11.009 31.61c-1.005 0-1.96.712-1.96 2.31 0 1.472.595 2.402 1.923 2.402.919 0 1.999-.623 1.999-2.357 0-1.541-.683-2.355-1.962-2.355Zm-.149 6.331c-2.594 0-3.86-1.473-3.86-3.875C7 31.576 8.875 30 11.158 30c2.21 0 3.862 1.166 3.862 3.851 0 2.514-1.838 4.09-4.16 4.09Zm8.954-.046c-3.092 0-3.923-1.913-3.923-3.647 0-2.482 1.477-4.157 4.245-4.157.584 0 1.191.067 1.714.193l-.224 1.596a6.12 6.12 0 0 0-1.527-.203c-1.353 0-2.086.895-2.086 2.276 0 1.506.671 2.335 2.186 2.335.435 0 1.066-.103 1.464-.273l.224 1.575a7.081 7.081 0 0 1-2.073.305Zm5.526-3.363c-.1 0-.497 0-.645.01v1.803c.161.02.447.033.745.033.857 0 1.34-.363 1.34-.952 0-.59-.534-.894-1.44-.894Zm.161-3.014c-.297 0-.57.011-.806.022v1.677c.161.01.348.01.57.01.944 0 1.403-.35 1.403-.927 0-.488-.359-.782-1.167-.782Zm-.1 6.3c-.494 0-1.427-.026-2.643-.026v-7.634a81.344 81.344 0 0 1 3.054-.056c1.824 0 2.904.646 2.904 1.926 0 .714-.496 1.36-1.216 1.654v.034a1.724 1.724 0 0 1 1.353 1.687c0 1.224-.98 2.415-3.451 2.415Zm8.245.077c-3.09 0-3.922-1.913-3.922-3.647 0-2.482 1.478-4.157 4.246-4.157.583 0 1.19.067 1.712.193l-.222 1.596a6.112 6.112 0 0 0-1.527-.203c-1.353 0-2.086.895-2.086 2.276 0 1.506.67 2.335 2.183 2.335.437 0 1.07-.103 1.467-.273l.223 1.575a7.078 7.078 0 0 1-2.074.305Zm10.451-.103-1.974-3.294a15.03 15.03 0 0 1-.869-1.676c.038.565.063 1.336.063 2.06v2.91h-1.864v-7.645h2.484l1.837 3.025c.372.635.72 1.292 1.018 1.88-.061-.658-.086-1.665-.086-2.39v-2.515h1.861v7.645h-2.47Zm3.341 0h1.936v-7.645h-1.936v7.645Zm4.781.137c-.583 0-1.18-.056-1.713-.171l.1-1.63c.471.16 1.154.284 1.762.284.707 0 1.217-.272 1.217-.816 0-1.303-3.34-.633-3.34-3.194 0-1.44 1.23-2.39 3.327-2.39.447 0 1.006.044 1.527.135l-.112 1.53a5.93 5.93 0 0 0-1.491-.205c-.805 0-1.177.318-1.177.748 0 1.19 3.339.737 3.339 3.126 0 1.486-1.304 2.583-3.44 2.583Zm6.62-6.4c-.133 0-.268 0-.403.011v2.243c.122.012.232.024.329.024.795-.012 1.395-.432 1.395-1.179 0-.645-.379-1.099-1.321-1.099Zm.036 3.738c-.097 0-.267 0-.439-.01v2.535H56.53v-7.645c.707-.033 1.49-.056 2.346-.056 2.105 0 3.254.883 3.254 2.457 0 1.485-1.149 2.72-3.254 2.72Z" clip-rule="evenodd"/>
</svg>
