<svg xmlns="http://www.w3.org/2000/svg" width="70" height="50" fill="none" viewBox="0 0 70 50">
  <rect width="70" height="50" fill="#fff" rx="4"/>
  <path fill="#2A4095" fill-rule="evenodd" d="M35.26 18.887c-.206.015-.436.231-.518.35-.183.263-.126.37-.145.683-.03-.142-.57-.701-.7-.803a3.825 3.825 0 0 0-.975-.573c-2.56-1.01-5.314 1.185-4.776 3.962.17-.154.223-.273.44-.394.668-.375 1.412-.138 1.764.418.416.655.202 1.78-1.01 2 1.063 1.047 3.095 1.125 4.425.11.49-.375.978-.964 1.228-1.763.313-1.004.141-1.646-.154-2.547.138.103.305.211.536.224.289.017.424-.1.622-.184-.055.187-.146.355-.21.564-.36 1.17-.011 2.681.832 3.457.21.194.054.094.393.364 1.342 1.072 3.116.949 4.473-.121-.204-.122-.696-.09-1.022-.637-.76-1.275.843-2.642 1.967-1.65.096.085.104.143.206.219.134-.283.058-1.032-.01-1.352-.529-2.493-3.498-3.639-5.58-2.084-.344.256-.48.463-.773.771.021-.742-.225-.745-.58-1.011 1.107-.166 1.52-.363 2.2-.93.534-.444.979-1.298 1.102-2.065a3.531 3.531 0 0 0-.542-2.505c-.365-.553-1.129-1.246-1.809-1.385.402 1.13-.346 1.87-1.162 1.868-.88-.003-1.635-.946-1.168-1.854-.514.023-1.387.829-1.734 1.333-.988 1.434-.713 3.475.5 4.563.672.601 1.053.768 2.18.972Z" clip-rule="evenodd"/>
  <path fill="#2A4095" fill-rule="evenodd" d="M28.108 10.763c.373-.052 11.936-.008 12.91-.008.515 0 1.632-.088 2.018.128.553.309.466.95.466 1.701v15.149c0 .504.027 1.246-.798 1.363-.522.074-1.576.012-2.153.012H29.766c-.516 0-1.656.094-2.026-.136-.552-.345-.45-.93-.45-1.708V12.115c0-.354-.022-.659.15-.926a.918.918 0 0 1 .668-.426Zm14.647-.704H28.028l-.18.062a1.393 1.393 0 0 0-.48.201 1.471 1.471 0 0 0-.475.462c-.336.503-.28.91-.28 1.584v14.968c0 .608-.07 1.162.218 1.646.219.365.548.674 1.093.778.428.082 10.22.027 11.153.027.61 0 3.358.037 3.725-.018.555-.083.904-.398 1.125-.74.32-.493.252-.977.252-1.62V12.403c0-.662.059-1.115-.265-1.608-.407-.62-.967-.637-1.16-.737Z" clip-rule="evenodd"/>
  <path fill="red" fill-rule="evenodd" d="M9.013 32.606h3.3c.72 0 1.257.17 1.616.514.357.344.537.833.537 1.467 0 .65-.196 1.16-.586 1.526-.39.368-.987.551-1.788.551h-1.088v2.384h-1.99v-6.442Zm1.991 2.753h.489c.386 0 .656-.067.811-.2a.645.645 0 0 0 .234-.514.713.713 0 0 0-.203-.514c-.135-.141-.39-.211-.763-.211h-.568v1.44Zm5.856.531-1.704-.18c.065-.3.157-.535.278-.706a1.52 1.52 0 0 1 .524-.447c.162-.092.386-.162.672-.212.286-.049.595-.075.928-.075.534 0 .962.03 1.286.09.323.06.593.187.808.377.153.132.272.32.359.56.088.242.132.473.132.694v2.063c0 .22.013.393.041.517.027.125.089.284.181.477h-1.67c-.067-.12-.11-.21-.13-.272a2.194 2.194 0 0 1-.062-.295 2.284 2.284 0 0 1-.697.482 2.893 2.893 0 0 1-1.098.193c-.555 0-.976-.129-1.263-.388a1.231 1.231 0 0 1-.432-.955c0-.356.103-.648.31-.878.209-.23.591-.4 1.149-.511.668-.135 1.101-.23 1.3-.285.199-.054.41-.124.63-.213 0-.22-.044-.373-.135-.462-.09-.088-.248-.132-.476-.132-.291 0-.51.047-.656.141-.113.075-.205.213-.275.417Zm1.543.936a8.47 8.47 0 0 1-.769.235c-.361.098-.591.194-.687.288a.452.452 0 0 0-.15.333c0 .143.05.26.147.35.099.09.242.135.432.135.199 0 .384-.05.556-.147a.878.878 0 0 0 .363-.357 1.21 1.21 0 0 0 .108-.55v-.287Zm2.807-2.448h1.662v.76c.248-.311.498-.533.752-.666.254-.134.562-.202.926-.202.494 0 .878.147 1.157.443.278.294.417.75.417 1.366v2.97h-1.793v-2.57c0-.293-.054-.5-.162-.622-.107-.121-.258-.183-.453-.183a.643.643 0 0 0-.521.246c-.133.165-.2.459-.2.885v2.243H21.21v-4.67Zm6.044 4.67h1.785v-4.67h-1.785v4.67Zm2.924-4.67h1.662v.76c.248-.311.498-.533.752-.666.254-.134.562-.202.927-.202.493 0 .877.147 1.156.443.279.294.417.75.417 1.366v2.97H33.3v-2.57c0-.293-.054-.5-.162-.622a.573.573 0 0 0-.452-.183.642.642 0 0 0-.522.246c-.133.165-.2.459-.2.885v2.243h-1.785v-4.67Z" clip-rule="evenodd"/>
  <path fill="#2A4095" fill-rule="evenodd" d="M36.728 32.606h3.718c.619 0 1.094.154 1.426.462.332.307.498.688.498 1.143 0 .38-.118.707-.356.979-.157.183-.389.325-.692.432.462.11.8.301 1.017.573.217.27.327.611.327 1.02 0 .335-.078.635-.232.902a1.73 1.73 0 0 1-.636.633c-.167.096-.418.166-.754.21a8.71 8.71 0 0 1-.89.088h-3.426v-6.442Zm2 2.528h.866c.31 0 .526-.054.647-.16.121-.108.182-.263.182-.465a.552.552 0 0 0-.182-.44c-.12-.106-.333-.158-.634-.158h-.879v1.223Zm0 2.529h1.012c.343 0 .583-.062.724-.183a.612.612 0 0 0 .21-.49.567.567 0 0 0-.207-.458c-.14-.115-.383-.174-.731-.174h-1.008v1.305Zm6.483-1.773-1.704-.18c.064-.3.157-.535.278-.706.121-.172.294-.321.523-.447.163-.092.387-.162.673-.212.285-.049.595-.075.928-.075.534 0 .961.03 1.285.09.323.06.594.187.809.377.152.132.272.32.359.56.088.242.131.473.131.694v2.063c0 .22.014.393.042.517.027.125.088.284.181.477h-1.67a1.81 1.81 0 0 1-.131-.272 2.228 2.228 0 0 1-.061-.295 2.287 2.287 0 0 1-.697.482 2.893 2.893 0 0 1-1.098.193c-.555 0-.977-.129-1.264-.388a1.232 1.232 0 0 1-.431-.955c0-.356.103-.648.31-.878.208-.23.59-.4 1.148-.511.668-.135 1.102-.23 1.3-.285.2-.054.41-.124.631-.213 0-.22-.044-.373-.136-.462-.09-.088-.248-.132-.475-.132-.292 0-.51.047-.656.141-.114.075-.205.213-.275.417Zm1.542.936c-.245.088-.5.166-.768.235-.361.098-.592.194-.687.288a.452.452 0 0 0-.15.333c0 .143.05.26.146.35.1.09.243.135.433.135.198 0 .384-.05.556-.147a.879.879 0 0 0 .363-.357 1.21 1.21 0 0 0 .107-.55v-.287Zm2.807-2.448h1.663v.76c.248-.311.497-.533.751-.666.254-.134.562-.202.927-.202.493 0 .877.147 1.157.443.278.294.417.75.417 1.366v2.97h-1.794v-2.57c0-.293-.053-.5-.161-.622a.577.577 0 0 0-.453-.183.642.642 0 0 0-.522.246c-.133.165-.2.459-.2.885v2.243H49.56v-4.67Zm5.982-1.772h1.82v3.317l1.332-1.545h2.193l-1.668 1.635 1.767 3.035h-2.008l-.944-1.871-.671.658v1.213h-1.82v-6.442Zm-27.193-6.015h.683c.148 0 .26.036.334.107.074.07.111.172.111.303 0 .135-.04.24-.121.316-.081.077-.204.114-.37.114h-.225v.494h-.412v-1.334Zm.412.57h.1c.08 0 .136-.014.169-.041a.134.134 0 0 0 .048-.107.146.146 0 0 0-.042-.106c-.028-.03-.08-.044-.158-.044h-.117v.298Zm1.59.544h-.465l-.067.22h-.42l.5-1.334h.45l.498 1.334h-.43l-.066-.22Zm-.087-.289-.145-.479-.146.48h.29Zm.717-.825h.383l.499.736v-.736h.388v1.334h-.388l-.496-.732v.732h-.386v-1.334Zm1.56 1.334h.411v-1.334h-.412v1.334Zm.709-1.334h.383l.498.736v-.736h.389v1.334h-.389l-.495-.732v.732h-.386v-1.334Zm2.83.851v-.277h.635v.567c-.122.083-.23.14-.322.17a1.1 1.1 0 0 1-.333.045.808.808 0 0 1-.386-.08.552.552 0 0 1-.23-.242.793.793 0 0 1-.083-.367.77.77 0 0 1 .09-.38.583.583 0 0 1 .263-.245.856.856 0 0 1 .363-.064c.147 0 .257.013.33.04a.425.425 0 0 1 .18.124.56.56 0 0 1 .11.213l-.396.072a.217.217 0 0 0-.083-.116.256.256 0 0 0-.15-.04.27.27 0 0 0-.215.093c-.053.063-.08.163-.08.298 0 .144.027.247.081.309.054.062.13.093.226.093a.42.42 0 0 0 .132-.02.734.734 0 0 0 .142-.068v-.125h-.274Zm.883.483v-1.334h.685c.127 0 .224.011.29.033a.31.31 0 0 1 .163.122.37.37 0 0 1 .062.216.372.372 0 0 1-.048.192.366.366 0 0 1-.13.13.51.51 0 0 1-.144.054.4.4 0 0 1 .107.049.449.449 0 0 1 .066.07.557.557 0 0 1 .057.083l.2.385h-.465l-.22-.407a.306.306 0 0 0-.073-.102.173.173 0 0 0-.101-.031h-.036v.54h-.413Zm.413-.792h.173a.613.613 0 0 0 .11-.018.106.106 0 0 0 .066-.042.125.125 0 0 0 .026-.078.123.123 0 0 0-.041-.099c-.028-.023-.078-.035-.154-.035h-.18v.272Zm.942.126c0-.218.06-.387.181-.508.121-.122.29-.182.506-.182.22 0 .391.06.51.178.12.12.18.287.18.501a.822.822 0 0 1-.078.383.565.565 0 0 1-.226.233.749.749 0 0 1-.37.083.853.853 0 0 1-.373-.071.563.563 0 0 1-.239-.228.755.755 0 0 1-.091-.389Zm.41.001c0 .134.025.231.075.29.05.059.118.088.204.088a.255.255 0 0 0 .206-.086c.048-.058.072-.161.072-.31 0-.126-.025-.217-.076-.275a.26.26 0 0 0-.206-.087.25.25 0 0 0-.2.088c-.05.059-.075.156-.075.292Zm2.054-.669h.41v.795a.668.668 0 0 1-.037.223.481.481 0 0 1-.115.183.462.462 0 0 1-.164.11.835.835 0 0 1-.288.045c-.065 0-.135-.005-.212-.013a.474.474 0 0 1-.332-.169.42.42 0 0 1-.088-.154.798.798 0 0 1-.038-.225v-.795h.41v.813c0 .073.02.13.06.17.04.042.097.062.168.062.07 0 .125-.02.166-.06.04-.04.06-.098.06-.172v-.813Zm.679 0h.683c.149 0 .26.036.335.107.074.07.11.172.11.303 0 .135-.04.24-.12.316-.081.077-.205.114-.37.114h-.226v.494h-.412v-1.334Zm.412.57h.101c.08 0 .136-.014.168-.041a.134.134 0 0 0 .048-.107.147.147 0 0 0-.042-.106c-.027-.03-.08-.044-.157-.044h-.118v.298ZM28.16 31.615c.619 0 1.121.504 1.121 1.125 0 .622-.502 1.126-1.121 1.126-.62 0-1.122-.504-1.122-1.126 0-.621.502-1.125 1.122-1.125Z" clip-rule="evenodd"/>
</svg>
