<svg xmlns="http://www.w3.org/2000/svg" width="70" height="50" fill="none" viewBox="0 0 70 50">
  <rect width="70" height="50" fill="#fff" rx="4"/>
  <mask id="a" width="70" height="50" x="0" y="0" maskUnits="userSpaceOnUse" style="mask-type:luminance">
    <rect width="70" height="50" fill="#fff" rx="4"/>
  </mask>
  <g mask="url(#a)">
    <path fill="#0096B8" fill-rule="evenodd" d="m25.023 14.19-.023.454 8.803 10.235.316.05.04-.02.154-.282-3.754-12.454-.637-.426-4.899 2.442Z" clip-rule="evenodd"/>
    <path fill="#005675" fill-rule="evenodd" d="m33.803 24.88.316.05-6.492-9.789L25 14.644l8.803 10.235Z" clip-rule="evenodd"/>
    <path fill="#0BBBEF" fill-rule="evenodd" d="m29.922 11.747-2.244 2.619.916.397 1.965-2.59-.637-.426Z" clip-rule="evenodd"/>
    <path fill="#007290" fill-rule="evenodd" d="M28.593 14.763 34.16 24.91l.154-.284-3.753-12.452-1.966 2.589Z" clip-rule="evenodd"/>
    <path fill="#81B73E" fill-rule="evenodd" d="M38.654 11.774 34.89 28.616l.132.317.064.028.426-.111 9.341-14.024-.01-.732L39.15 11.5l-.495.274Z" clip-rule="evenodd"/>
    <path fill="#69931D" fill-rule="evenodd" d="M41.061 15.146 35.086 28.96l.425-.11 9.342-14.024-3.792.32Z" clip-rule="evenodd"/>
    <path fill="#277933" fill-rule="evenodd" d="m34.89 28.616.133.316 4.963-14.372-1.332-2.786-3.765 16.842Z" clip-rule="evenodd"/>
    <path fill="#AECC53" fill-rule="evenodd" d="m44.842 14.095-3.996.05.216 1.001 3.791-.32-.01-.732Z" clip-rule="evenodd"/>
    <path fill="#69931D" fill-rule="evenodd" d="m38.654 11.774 1.331 2.785.861-.413L39.15 11.5l-.495.273Z" clip-rule="evenodd"/>
    <path fill="#E4032E" fill-rule="evenodd" d="m37.97 7-7.287.078-.227.432 4.026 11.502.24.16h.006l.222-.126 3.49-11.562L37.97 7Z" clip-rule="evenodd"/>
    <path fill="#791B15" fill-rule="evenodd" d="m30.456 7.51 4.026 11.502.238.16-1.44-10.27-2.824-1.392Z" clip-rule="evenodd"/>
    <path fill="#B51227" fill-rule="evenodd" d="m34.65 8.904.078 10.268.222-.128 3.49-11.56-3.79 1.42Z" clip-rule="evenodd"/>
    <path fill="#000" fill-rule="evenodd" d="M43.699 38.038c.005-.121.012-.313.018-.576v-5.059l-.016-.49a2.603 2.603 0 0 0-.013-.213.504.504 0 0 0-.024-.104.406.406 0 0 0-.236-.266c-.111-.049-.275-.073-.488-.074v-.172h2.749c.4.001.76.028 1.083.083.322.053.581.128.78.223.574.287.858.77.855 1.454.007.981-.607 1.606-1.877 1.768l-.213.036c.286.011.672.11.852.155.178.043.353.111.525.205.673.356 1.005.925.999 1.713.003.955-.44 1.576-1.34 1.87a4.31 4.31 0 0 1-.741.139c-.3.034-.623.051-.974.052H42.94v-.173c.318-.004.536-.055.633-.175a.372.372 0 0 0 .088-.136.994.994 0 0 0 .038-.26Zm.846-6.718v3.21h1.072c1.248-.008 1.894-.552 1.9-1.642.01-1.059-.671-1.575-1.992-1.568h-.98Zm3.188 5.314c-.008-.748-.265-1.277-.778-1.573a2.129 2.129 0 0 0-.592-.193 4.245 4.245 0 0 0-.787-.07h-1.031v3.748h1.031c.748.003 1.294-.144 1.631-.45.17-.15.3-.348.39-.6.09-.25.134-.54.136-.862Zm4.894 1.928c-.056-.116-.095-.254-.111-.606l-.006-.104-.066.079a2.79 2.79 0 0 1-.23.242c-.076.07-.165.14-.263.212a2.213 2.213 0 0 1-.627.354c-.2.069-.426.102-.678.1-.438.002-.775-.108-1.016-.323a1.33 1.33 0 0 1-.317-.48 1.72 1.72 0 0 1-.118-.626c.005-.823.486-1.354 1.47-1.59a8.27 8.27 0 0 1 .825-.156c.29-.04.62-.074.987-.1l.039-.719c0-.245-.011-.445-.034-.596a1.43 1.43 0 0 0-.114-.4c-.146-.3-.444-.443-.874-.443-.69-.004-1.064.342-1.103 1.028a.986.986 0 0 1-.028.232.185.185 0 0 1-.067.1c-.069.05-.178.077-.335.08-.339.004-.465-.102-.46-.28a.97.97 0 0 1 .179-.54c.119-.173.283-.325.496-.454.382-.222.871-.336 1.471-.338.657.002 1.098.158 1.338.457.098.126.17.281.217.47.047.187.07.426.07.716v.06l-.006.282-.014.742-.01 1.02-.01.493c0 .233.01.41.025.608.015.193.08.41.228.466.153.06.3.083.581.085.207-.004.365-.03.473-.077.123-.054.198-.171.231-.337.032-.16.045-.406.042-.734v-2.88c.007-.391-.036-.667-.142-.811-.104-.14-.298-.201-.563-.198v-.154l1.462-.11v1.222l.076-.143c.216-.404.461-.69.735-.862.273-.172.615-.258 1.027-.253.62-.01 1.052.209 1.304.645.093.146.16.322.2.529.04.206.061.47.06.79v2.225c-.004.331.01.578.04.74.031.165.105.28.229.333.102.045.34.069.542.074.19-.005.336-.03.437-.076.12-.055.192-.172.222-.337.03-.16.043-.406.04-.734v-5.23a3.64 3.64 0 0 0-.037-.666c-.03-.15-.104-.252-.224-.297a1.457 1.457 0 0 0-.465-.058v-.152l1.52-.082a41.076 41.076 0 0 0-.058 2.102v3.514l1.674-1.928c.237-.276.367-.508.369-.693.012-.259-.236-.375-.644-.397v-.152h2.176v.155a1.58 1.58 0 0 0-.34.075 1.633 1.633 0 0 0-.324.163 3.41 3.41 0 0 0-.282.195c-.077.06-.168.147-.272.259-.105.112-.257.281-.456.509l-.553.625 1.447 2.392c.165.284.317.484.457.597.133.11.303.18.507.212v.156h-1.323a9.621 9.621 0 0 0-.15-.301l-.21-.404-.162-.305-1.07-1.833-.842.99-.002.554a4.06 4.06 0 0 0 .039.734c.031.166.105.282.226.337.107.048.264.073.47.077v.151h-4.473v-.151c.303-.009.511-.06.594-.177a.512.512 0 0 0 .077-.154.986.986 0 0 0 .034-.224 9.95 9.95 0 0 0 .019-.312c.007-.136.01-.23.011-.28v-2.161c.003-.533-.052-.927-.167-1.178-.174-.394-.489-.592-.935-.594-.499-.001-.895.248-1.19.74a2.453 2.453 0 0 0-.259.634c-.061.236-.094.47-.094.698v1.86c-.004.331.009.578.04.74.03.165.105.28.228.333.108.047.268.071.477.075v.151h-2.2c-.194.007-.567.018-.75.015-.194-.003-.287-.024-.463-.038-.156-.049-.222-.091-.274-.199Zm-2.594-1.184c.004.35.085.635.247.85a.796.796 0 0 0 .652.33 1.595 1.595 0 0 0 1.343-.805c.084-.153.145-.35.183-.59a5.75 5.75 0 0 0 .058-.89v-.552c-.49.045-.841.094-1.095.15a2.6 2.6 0 0 0-.681.245c-.468.245-.703.668-.707 1.262Zm-43.04-1.837v1.915c-.004.307.013.536.05.685.037.148.118.247.244.295.124.048.317.076.575.08v.268H5v-.268c.244-.004.424-.032.542-.08.117-.048.192-.147.227-.295a3.15 3.15 0 0 0 .046-.685v-5.034a3.27 3.27 0 0 0-.045-.685c-.033-.15-.106-.249-.218-.298-.112-.05-.284-.079-.516-.088v-.268h2.726c.92-.004 1.593.167 2.02.511.428.346.64.888.634 1.631.003 1.043-.383 1.726-1.16 2.049a3.45 3.45 0 0 1-.773.195 7.173 7.173 0 0 1-1.047.072h-.443Zm0-.298h.47c.567-.003.983-.143 1.25-.422.146-.162.256-.374.331-.637.075-.261.113-.56.113-.898-.002-1.268-.531-1.902-1.584-1.904h-.58v3.861Zm8.031.621h-3.33c.003.374.024.687.062.94.038.252.1.483.183.692.277.678.704 1.016 1.282 1.016a1.46 1.46 0 0 0 .891-.304c.266-.2.488-.49.664-.865l.236.164c-.232.485-.515.84-.85 1.069-.334.226-.742.34-1.224.337-.758-.01-1.455-.265-1.892-.764-.436-.498-.66-1.182-.668-2.048.009-.874.224-1.565.646-2.073.421-.51 1.095-.77 1.82-.78.482 0 .948.116 1.279.346.33.23.574.566.731 1.009a2.6 2.6 0 0 1 .117.504c.027.189.044.442.053.757Zm-3.32-.296h2.083a8.322 8.322 0 0 0-.049-.765 2.646 2.646 0 0 0-.111-.519c-.177-.538-.447-.805-.811-.8-.409.003-.714.304-.915.903a3.484 3.484 0 0 0-.124.51 6.94 6.94 0 0 0-.074.67Zm3.533-2.174 1.847-.134c.01.194.018.356.023.488.005.132.007.248.007.349v.31c.401-.771.886-1.16 1.454-1.167a.86.86 0 0 1 .598.225.76.76 0 0 1 .237.56.592.592 0 0 1-.199.454.756.756 0 0 1-.508.175c-.252.008-.406-.101-.462-.33a.878.878 0 0 0-.113-.29c-.039-.05-.096-.074-.172-.072h-.02c-.193.017-.376.179-.55.486a2.03 2.03 0 0 0-.177.507 3.126 3.126 0 0 0-.058.64v1.91c-.004.304.01.529.042.673.032.145.104.239.216.284.113.044.289.07.527.075v.247h-2.731v-.247c.223 0 .388-.022.495-.069.107-.046.177-.143.209-.29.032-.148.046-.372.043-.674v-2.86c.009-.426-.031-.702-.122-.83-.09-.127-.285-.185-.586-.172v-.248Zm6.361-.134.01 1.023c.398-.689.968-1.036 1.71-1.043.754-.005 1.22.356 1.394 1.085.214-.376.458-.651.731-.825.274-.176.593-.262.96-.26.578.003 1.003.203 1.277.599.107.15.183.333.228.55.046.217.068.498.067.844v2.271a3.28 3.28 0 0 0 .043.674c.031.147.101.244.208.29.108.047.273.07.495.068v.248h-2.663v-.248c.213.002.372-.021.475-.068.103-.046.17-.143.2-.29.032-.148.046-.372.043-.674v-2.261c.002-.543-.061-.934-.19-1.174-.13-.241-.338-.359-.626-.354-.345-.007-.637.182-.874.568-.205.321-.306.67-.305 1.043v2.178c-.003.302.011.526.042.674.032.147.1.244.204.29.105.047.265.07.482.068v.248h-2.634v-.248c.213.002.371-.021.474-.068.104-.046.17-.143.201-.29.031-.148.046-.372.042-.674v-2.271c.005-1.023-.26-1.528-.796-1.518-.333.012-.612.179-.837.498-.226.32-.343.718-.351 1.195v2.096c-.003.305.01.532.042.678.03.148.098.244.2.289.104.045.262.067.475.065v.248h-2.663v-.248c.223.002.387-.02.495-.065.107-.045.177-.141.209-.288s.046-.374.043-.679v-2.87c.01-.42-.03-.692-.12-.817-.091-.125-.293-.182-.607-.175v-.248l1.916-.134Zm14.109.473v3.448c0 .225.008.41.023.558.016.147.041.27.075.372a.61.61 0 0 0 .193.276.47.47 0 0 0 .288.106c.21-.003.44-.11.689-.32l.137.257c-.395.349-.843.52-1.346.517-.542-.008-.912-.198-1.11-.568a1.226 1.226 0 0 1-.091-.28 2.954 2.954 0 0 1-.045-.425 15.778 15.778 0 0 1-.012-.72v-3.22h-.56v-.31c.215-.01.396-.056.544-.142.15-.087.279-.221.39-.406a2.15 2.15 0 0 0 .215-.467 4.52 4.52 0 0 0 .148-.638l.492-.051a23.21 23.21 0 0 0-.026.923c-.003.197-.004.451-.004.76h1.19v.33h-1.19Zm-1.764 4.833v.218c-.287.02-.403.02-.705.02-.24 0-.489-.004-.695-.085a.676.676 0 0 1-.293-.199c-.067-.11-.109-.117-.13-.425a2.64 2.64 0 0 1-.792.636c-.275.135-.57.202-.888.2-.472-.005-.84-.141-1.107-.41-.266-.269-.401-.638-.406-1.107-.002-.886.522-1.437 1.572-1.652.473-.097 1.01-.162 1.611-.197v-.671c.005-.537-.05-.91-.162-1.117-.113-.207-.315-.306-.604-.297-.308-.007-.528.11-.659.35a.955.955 0 0 0-.104.287c-.022.107-.04.256-.053.447-.008.184-.058.315-.152.392-.094.078-.243.116-.447.114-.456-.003-.685-.162-.688-.475a.971.971 0 0 1 .161-.523c.106-.166.255-.312.448-.437.41-.265.947-.396 1.612-.393.676-.003 1.16.138 1.454.424.132.13.229.298.291.5.062.204.093.464.092.78l-.01.899-.01.898c-.008.294-.011.48-.01.557-.003.373.008.645.034.816.026.171.054.247.161.34.188.112.349.11.48.11Zm-1.833-1.968v-.794c-.703.05-1.202.186-1.497.41-.294.223-.438.571-.429 1.045.003.371.076.666.218.884.141.218.334.33.578.334a.952.952 0 0 0 .554-.182 1.2 1.2 0 0 0 .4-.5c.062-.13.108-.29.136-.478.027-.19.04-.429.04-.719Zm10.294 1.968v.218c-.288.02-.404.02-.706.02-.24 0-.488-.003-.695-.084a.662.662 0 0 1-.293-.2c-.066-.11-.109-.116-.13-.424a2.651 2.651 0 0 1-.792.635 1.97 1.97 0 0 1-.888.201c-.472-.005-.84-.142-1.107-.41-.266-.269-.401-.638-.407-1.108-.001-.886.523-1.436 1.573-1.651.473-.097 1.01-.163 1.611-.197v-.671c.005-.537-.05-.91-.162-1.118-.113-.207-.315-.305-.604-.296-.308-.007-.528.11-.659.35a.956.956 0 0 0-.104.286c-.022.108-.04.256-.052.448-.008.183-.06.314-.153.392-.094.078-.243.116-.447.114-.456-.004-.685-.162-.688-.475a.97.97 0 0 1 .161-.523 1.46 1.46 0 0 1 .448-.437c.41-.265.947-.396 1.612-.393.676-.003 1.16.138 1.454.424.132.13.23.298.291.5a2.7 2.7 0 0 1 .092.78l-.01.898-.01.898c-.008.295-.011.48-.01.558-.003.372.008.644.034.815.026.172.054.248.161.34.188.113.349.11.48.11Zm-1.834-1.967v-.795c-.703.05-1.202.187-1.497.41-.295.224-.438.572-.429 1.045.003.372.076.667.218.885.142.218.335.33.578.334a.953.953 0 0 0 .554-.182 1.2 1.2 0 0 0 .399-.5c.063-.13.109-.29.137-.478a5.11 5.11 0 0 0 .04-.719Z" clip-rule="evenodd"/>
  </g>
</svg>
