<svg xmlns="http://www.w3.org/2000/svg" width="70" height="50" fill="none" viewBox="0 0 70 50">
  <rect width="70" height="50" fill="#fff" rx="4"/>
  <mask id="a" width="70" height="50" x="0" y="0" maskUnits="userSpaceOnUse" style="mask-type:luminance">
    <rect width="70" height="50" fill="#fff" rx="4"/>
  </mask>
  <g mask="url(#a)">
    <path fill="#78ADD2" fill-rule="evenodd" d="M30.782 38.97c-.77.468-1.47.747-2.204.747-1.9 0-3.487-1.587-3.578-3.494l3.7-2.248 5.754 2.623-3.672 2.372Z" clip-rule="evenodd"/>
    <path fill="#A4D0A0" fill-rule="evenodd" d="m32.982 29.31-2.748-1.234c-1.228-.56-2.388-1.026-2.388-2.405 0-.714.213-1.088.548-1.461l5.815 2.613-1.442.849c-.397.248-.672.466-.672.778 0 .338.378.625.887.86Z" clip-rule="evenodd"/>
    <path fill="#78ADD2" fill-rule="evenodd" d="m35.683 16.375-2.82 1.744c-.249.154-.584.403-.584.785 0 .435.651.768 1.23 1.05l-3.527-1.588c-1.04-.466-2.075-.995-2.075-2.272 0-.537.152-.971.396-1.344L35.926 10c.914.528 1.8 1.596 1.8 3.029 0 1.533-.762 2.56-2.043 3.346Z" clip-rule="evenodd"/>
    <path fill="#A4D0A0" fill-rule="evenodd" d="m41.677 21.992-.7.404-5.823-2.62 6.769-4.156c.914.538 1.809 1.595 1.809 3.027 0 1.533-.741 2.59-2.055 3.345Z" clip-rule="evenodd"/>
    <path fill="#78ADD2" fill-rule="evenodd" d="m36.762 27.033 3.444 1.543c1.291.59 1.687 1.281 1.687 2.155 0 .497-.274.995-.67 1.338l-5.792-2.623.98-.56c.829-.468 1.104-.748 1.104-1.06 0-.322-.194-.535-.753-.793Z" clip-rule="evenodd"/>
    <path fill="#21AA47" fill-rule="evenodd" d="M42.901 39.997c-1.466-1.151-3.029-1.929-4.929-2.809l-8.783-3.962c-2.207-1.003-3.67-2.34-3.67-4.589 0-2.186 1.038-3.245 2.388-4.115l.487-.312c-.335.373-.549.747-.549 1.461 0 1.379 1.16 1.845 2.388 2.405l10.219 4.591c1.777.779 3.403 2.117 3.403 4.397 0 1.253-.467 2.373-.954 2.933Z" clip-rule="evenodd"/>
    <path fill="#0072AA" fill-rule="evenodd" d="m41.864 31.663-.642.406c.397-.342.671-.841.671-1.338 0-.873-.398-1.565-1.687-2.155L29.28 23.672c-2.206-.994-3.58-2.278-3.58-4.518 0-2.062 1.008-3.41 2.602-4.403a2.379 2.379 0 0 0-.395 1.344c0 1.277 1.036 1.806 2.075 2.272l10.62 4.777c1.931.872 3.495 2.187 3.495 4.59 0 1.875-.86 3.058-2.233 3.93Z" clip-rule="evenodd"/>
  </g>
</svg>
