<svg xmlns="http://www.w3.org/2000/svg" width="70" height="50" fill="none" viewBox="0 0 70 50">
  <rect width="70" height="50" fill="#123274" rx="4"/>
  <mask id="a" width="70" height="50" x="0" y="0" maskUnits="userSpaceOnUse" style="mask-type:luminance">
    <rect width="70" height="50" fill="#fff" rx="4"/>
  </mask>
  <g mask="url(#a)">
    <path fill="#E2051D" fill-rule="evenodd" d="M19.45 33.368c-.004.386.483.428.778.428h.16a.688.688 0 0 0 .086-.005c.697-.036.692-.3.692-.423a3.518 3.518 0 0 1 0-.211V18.739c.005-.386-.485-.431-.779-.431h-.159c-.295 0-.782.046-.777.43 0 .083-.003.16-.003.242v14.145c0 .007 0 .018.003.04m-9.148.203c-.005.386.483.428.778.428h.158c.03 0 .053-.001.087-.005.697-.036.692-.3.692-.423a4.925 4.925 0 0 1 0-.211V18.739c.005-.386-.485-.431-.779-.431h-.158c-.295 0-.783.046-.778.43 0 .083-.003.16-.003.242v14.145c0 .007 0 .018.003.04m3.049.203c-.004.386.483.428.778.428h.159a.692.692 0 0 0 .087-.005c.697-.036.692-.3.692-.423a2.384 2.384 0 0 1 0-.211V18.739c.005-.386-.485-.431-.78-.431h-.158c-.295 0-.782.046-.778.43l-.002.242v14.145l.002.04m3.05.203c-.005.386.482.428.777.428h.159a.682.682 0 0 0 .087-.005c.697-.036.691-.3.691-.423a6.156 6.156 0 0 1 0-.211V18.739c.006-.386-.484-.431-.778-.431h-.159c-.295 0-.782.046-.777.43 0 .083-.004.16-.004.242v14.145c0 .007 0 .018.004.04" clip-rule="evenodd"/>
    <path fill="#E2051D" fill-rule="evenodd" d="M8.427 25.194c-.386-.005-.427.483-.427.78v.159c0 .029 0 .052.004.086.036.697.298.692.423.692h14.608c.385.005.43-.484.43-.778v-.16c0-.296-.045-.784-.43-.78l-.24-.002H8.668c-.007 0-.017 0-.04.003" clip-rule="evenodd"/>
    <path fill="#fff" fill-rule="evenodd" d="M44.773 19.443c-4.112 0-5.945 2.028-5.945 6.575 0 4.442 1.91 6.616 5.841 6.643h.192c3.937-.02 5.852-2.193 5.852-6.643 0-4.547-1.832-6.575-5.94-6.575Zm.011 11.27h-.03c-2.36 0-3.28-1.323-3.28-4.716 0-3.357.882-4.604 3.256-4.604h.077c2.374 0 3.257 1.247 3.257 4.604 0 3.393-.92 4.716-3.28 4.716Zm-16.524.942c.834.645 1.968.92 3.794.92h.116c1.839 0 2.977-.275 3.804-.92 1.2-.914 1.402-1.989 1.402-4.056l.002-7.416c.002-.107.004-.243-.116-.364-.189-.192-.61-.29-1.254-.29-.637 0-1.055.098-1.244.289-.12.122-.118.258-.117.366v7.748c.001 1.29.001 1.56-.572 2.032-.527.429-1.324.485-1.96.485-.634 0-1.43-.056-1.958-.485-.57-.469-.57-.733-.57-2.003v-7.777c.002-.108.004-.244-.117-.366-.189-.191-.608-.288-1.247-.288-.64 0-1.06.097-1.249.288-.12.122-.119.258-.117.366v7.415c0 2.066.203 3.141 1.403 4.056ZM60.981 20.3c-.679-.506-1.49-.685-3.096-.685h-5.287a.436.436 0 0 0-.436.434v12.003c0 .242.196.437.436.437h5.546c1.505 0 2.558-.048 3.432-.708.98-.761 1.187-2.009 1.187-2.921 0-1.205-.404-2.16-1.137-2.686-.318-.237-.694-.38-1.052-.505l-.24-.085.23-.11c1.079-.516 1.474-1.234 1.458-2.649-.01-.662-.157-1.871-1.04-2.525Zm-6.127 1.114h2.953c1.53 0 1.65.776 1.65 1.791 0 1.214-.555 1.73-1.855 1.73h-2.748v-3.52Zm2.893 9.232h-2.895v-3.884h3.105c1.72 0 2.067.75 2.067 1.961 0 1.632-.597 1.923-2.277 1.923Z" clip-rule="evenodd"/>
  </g>
</svg>
