<svg xmlns="http://www.w3.org/2000/svg" width="70" height="50" fill="none" viewBox="0 0 70 50">
  <rect width="70" height="50" fill="#fff" rx="4"/>
  <path fill="#000" fill-rule="evenodd" d="M23.581 19.927c-.422.504-1.097.902-1.772.846-.084-.683.246-1.408.633-1.856.422-.519 1.16-.889 1.758-.917.07.71-.204 1.408-.619 1.927Zm.612.98c-.595-.034-1.137.181-1.576.355-.282.112-.52.207-.702.207-.204 0-.453-.1-.732-.212-.366-.147-.784-.315-1.223-.307-1.005.015-1.94.59-2.454 1.507-1.054 1.834-.274 4.55.746 6.043.499.74 1.097 1.55 1.884 1.521.346-.013.596-.12.854-.23.297-.128.605-.26 1.087-.26.464 0 .76.129 1.043.252.269.118.527.231.911.224.816-.014 1.33-.74 1.828-1.479a6.533 6.533 0 0 0 .812-1.685l.004-.014-.02-.009c-.18-.083-1.556-.72-1.569-2.429-.013-1.434 1.092-2.16 1.266-2.275l.02-.014c-.702-1.052-1.8-1.166-2.179-1.194Zm5.646 9.022V18.846h4.113c2.124 0 3.607 1.479 3.607 3.64 0 2.16-1.511 3.654-3.663 3.654h-2.355v3.789h-1.702Zm1.702-9.633h1.961c1.477 0 2.32.796 2.32 2.197 0 1.4-.843 2.204-2.327 2.204h-1.954v-4.4ZM43.177 28.6c-.45.868-1.441 1.415-2.51 1.415-1.582 0-2.686-.952-2.686-2.388 0-1.422 1.069-2.24 3.045-2.36l2.123-.129v-.61c0-.904-.583-1.394-1.624-1.394-.858 0-1.484.448-1.61 1.13h-1.533c.05-1.436 1.385-2.481 3.192-2.481 1.948 0 3.214 1.03 3.214 2.63v5.517h-1.575V28.6h-.036Zm-2.053.1c-.907 0-1.483-.44-1.483-1.116 0-.697.555-1.102 1.617-1.166l1.891-.12v.625c0 1.038-.872 1.777-2.025 1.777Zm8.888 1.664c-.682 1.94-1.463 2.58-3.122 2.58-.127 0-.549-.014-.647-.042v-1.33c.105.014.366.028.5.028.752 0 1.173-.32 1.434-1.151l.154-.49-2.883-8.07h1.78l2.003 6.548h.035l2.004-6.547H53l-2.988 8.474Z" clip-rule="evenodd"/>
</svg>
