<svg xmlns="http://www.w3.org/2000/svg" width="70" height="50" fill="none" viewBox="0 0 70 50">
  <rect width="70" height="50" fill="#fff" rx="4"/>
  <path fill="#2093FD" d="M15.203 31.391c.008-4.796.002-9.593.003-14.391.773.009 1.544.009 2.317.01-.008 4.783-.022 9.565.007 14.347-.775.045-1.55.01-2.327.034Z"/>
  <path fill="#2093FD" fill-rule="evenodd" d="M6.02 31.405c-.029-4.56-.024-9.12-.003-13.68.53.022 1.062.028 1.594.033.801.008 1.603.016 2.403.081.18.015.365.021.55.027.65.023 1.313.046 1.87.425 1.945 1.18 2.167 4.528.297 5.898.874.43 1.575 1.291 1.725 2.3.184 1.183.061 2.491-.64 3.48a3.5 3.5 0 0 1-2.615 1.381c-.935.051-1.87.044-2.805.038-.792-.006-1.584-.012-2.376.017Zm2.407-11.4.004.41c.008.994.016 1.988-.014 2.981.211-.023.428-.038.646-.052.713-.047 1.444-.096 2.061-.477.468-.642.503-1.679-.008-2.306-.606-.543-1.435-.546-2.212-.55-.162 0-.322-.001-.477-.007Zm.013 7.216c.002-.613.005-1.226.016-1.839.208.013.417.02.627.027.597.021 1.197.042 1.78.183 1.266.308 1.522 2.274.6 3.104-.602.444-1.33.455-2.052.466-.335.005-.67.01-.99.058.014-.666.016-1.333.019-2Zm27.034-3.449c-1.122-1.563-3.272-1.85-4.986-1.396-1.87.508-3.175 2.496-3.119 4.484-.052 1.496.452 3.112 1.65 4.023 1.194 1.041 2.907 1.097 4.357.727 1.339-.345 2.325-1.454 2.995-2.656-.274-.166-.554-.324-.834-.482-.387-.219-.774-.438-1.15-.68-.41.618-.887 1.226-1.549 1.556-.564.304-1.24.235-1.822.027-.716-.336-1.139-1.118-1.22-1.911a577.11 577.11 0 0 1 6.565-.004c.014-1.272-.12-2.645-.887-3.688Zm-3.697 1.87a85.102 85.102 0 0 0-1.75.007c.39-1.899 3.524-1.94 3.907-.023-.72.018-1.438.017-2.157.016Z" clip-rule="evenodd"/>
  <path fill="#2093FD" d="M18.234 22.442c.775-.004 1.551.002 2.327-.006.022 1.712.005 3.426.007 5.14.022.606.126 1.337.66 1.69.684.378 1.532.385 2.243.088.55-.206.862-.838.852-1.424.053-1.846-.009-3.69.024-5.536.767-.002 1.535.014 2.302-.029.06 1.494.026 2.989.031 4.484-.032 1.283-.155 2.699-.984 3.719-1.085 1.19-2.81 1.196-4.267 1.042-1.055-.071-2.103-.681-2.592-1.677-.488-.944-.415-2.048-.499-3.082.002-1.47-.092-2.939-.104-4.41Z"/>
  <path fill="#1B49A9" fill-rule="evenodd" d="M40.014 17.769c-.692-.003-1.384-.005-2.077-.01-.012 2.565-.01 5.13-.009 7.695.001 1.973.003 3.946-.003 5.92.62-.033 1.24-.025 1.861-.017l.466.006a435.188 435.188 0 0 1-.003-5.96c.336-.007.673.002 1.011.011.803.022 1.607.043 2.39-.154 1.31-.38 2.09-1.78 2.244-3.119.09-1.19-.205-2.481-1.012-3.365-.716-.78-1.798-.976-2.79-.997-.693-.005-1.385-.007-2.078-.01Zm.376 3.48c.002-.417.005-.833.004-1.25l.037.003c.666.056 1.34.112 1.99.29 1.066.24 1.246 1.931.484 2.61-.56.29-1.187.347-1.809.402-.236.022-.47.043-.7.076-.016-.71-.01-1.42-.006-2.131Z" clip-rule="evenodd"/>
  <path fill="#1B49A9" d="M54.571 20.918c.826-.002 1.653.023 2.48.006.768 1.598 1.337 3.288 2.017 4.926.807-1.61 1.495-3.286 2.286-4.907a57.124 57.124 0 0 1 2.528-.007c-1.653 3.676-3.296 7.36-4.935 11.042-.157.302-.22.706-.524.889-.807.028-1.615.014-2.422.033.55-1.304 1.172-2.583 1.651-3.916-.131-.592-.39-1.141-.599-1.707-.866-2.103-1.618-4.256-2.482-6.359Z"/>
  <path fill="#1B49A9" fill-rule="evenodd" d="M49.428 22.164c-1.344-.064-2.675.73-3.308 1.965-.795 1.529-.801 3.392-.322 5.027.505 1.652 2.143 2.838 3.81 2.688.788-.01 1.479-.406 2.15-.79l.225-.129.025.25.025.25c.275-.005.55 0 .825.003.48.006.959.013 1.437-.024 0-.308-.002-.616-.003-.923-.008-2.667-.016-5.333.011-7.998-.548-.008-1.097-.008-1.646-.009h-.617v.005c-.002.226-.004.45-.004.674-.778-.533-1.644-1.047-2.608-.989Zm-1.346 3.608c.149-.566.53-1.09 1.058-1.318.945-.42 2.252-.026 2.632 1.024.554 1.344.333 3.277-1.05 3.966-.828.313-1.903.08-2.384-.737-.478-.884-.537-1.974-.256-2.935Z" clip-rule="evenodd"/>
</svg>
