<svg xmlns="http://www.w3.org/2000/svg" width="70" height="50" fill="none" viewBox="0 0 70 50">
  <rect width="70" height="50" fill="#fff" rx="4"/>
  <path fill="#26ACE3" fill-rule="evenodd" d="M36.029 9.003c-3.168-.091-6.238 1.724-7.84 4.433 1.136-.93 2.538-1.582 4.026-1.596 2.495-.18 4.908.944 6.754 2.557.544.527 1.211 1.058 2.021.982 1.364-.039 2.485-1.645 1.805-2.895-1.534-2.141-4.12-3.507-6.767-3.48Zm-3.443 3.458c-1.848-.011-3.735.866-4.753 2.436-.843 1.257-1.043 2.893-.614 4.335.524 1.69 1.968 3.015 3.657 3.498 1.492.52 3.083.267 4.589-.048-1.584-.31-3.103-1.245-3.779-2.755-.863-1.761-.443-4.027.986-5.368.88-.898 2.124-1.274 3.35-1.358-1.09-.442-2.248-.776-3.436-.74Zm4.663 2.853c.43-.151.484.376.463.676a84.67 84.67 0 0 0 0 1.61c.007.87.013 1.74-.025 2.608.042.508-.587.335-.843.151-.46-.28-.931-.544-1.403-.808-.808-.452-1.616-.904-2.368-1.442a38.997 38.997 0 0 1 .01-.37c.409-.325.866-.579 1.324-.832.215-.12.43-.238.64-.365.27-.147.534-.307.798-.466.456-.277.913-.553 1.404-.762Zm4.738 6.575c-.657-.943-2.101-1.155-2.986-.414-2.134 1.595-4.88 2.567-7.554 2.069-1.433-.224-2.69-1.02-3.721-2.01 1.117 2.405 3.268 4.339 5.851 5.015 2.776.759 5.94.107 8.1-1.819.83-.672.943-2 .31-2.84Zm-2.427 9.975h-1.654c.006 1.428.005 2.858.003 4.288v1.715a3.96 3.96 0 0 0 .696 2.35c1.042 1.514 3.227 2.078 4.866 1.233 1.737-.782 2.61-2.942 1.985-4.727-.423-1.255-1.518-2.252-2.815-2.535-1.073-.301-2.215.082-3.088.722.006-.586.005-1.171.005-1.757l.001-1.288Zm.072 6.641c-.328-1.114.437-2.353 1.532-2.671 1.312-.435 2.818.657 2.83 2.034.094 1.228-1.015 2.343-2.231 2.33-.982-.02-1.894-.737-2.131-1.693Zm11.854-4.285c-1.624-.471-3.488.32-4.335 1.77-.828 1.372-.687 3.254.32 4.497 1.238 1.535 3.645 1.765 5.252.681-.006.22-.01.439-.012.659.559.004 1.12.004 1.681-.003v-3.412c-.012-.675-.047-1.374-.34-1.995a3.873 3.873 0 0 0-2.566-2.196Zm-3.211 3.786c-.049-1.028.733-1.971 1.719-2.204 1.34-.357 2.797.815 2.722 2.202.056 1.294-1.246 2.372-2.504 2.173-1.05-.147-1.95-1.09-1.938-2.17Z" clip-rule="evenodd"/>
  <path fill="#26ACE3" d="M56.306 35.39c1.006-1.147 2.714-1.605 4.156-1.101 1.096.327 1.941 1.23 2.374 2.268-.611.005-1.221.005-1.831.002-.61-.739-1.686-1.022-2.577-.666-1.072.39-1.737 1.683-1.328 2.77.342 1.056 1.538 1.748 2.621 1.48.503-.086.916-.406 1.262-.762a47.434 47.434 0 0 1 1.848.002c-.465.99-1.232 1.894-2.304 2.236-1.777.677-3.96-.193-4.782-1.906-.708-1.377-.485-3.175.56-4.323Z"/>
  <path fill="#2A2E34" d="M30.462 31.866c.562-.004 1.124 0 1.686-.008-.004.983.006 1.966-.007 2.949a3.28 3.28 0 0 1 3.186-.027c1.02.539 1.612 1.68 1.628 2.813.01 1.412-.001 2.823.004 4.234-.56.002-1.12.001-1.683.002-.005-1.412-.005-2.825-.016-4.237.014-.814-.721-1.572-1.547-1.525-.867-.028-1.576.816-1.55 1.65-.002 1.373 0 2.743 0 4.115-.566-.004-1.134-.003-1.701-.005.001-3.32.003-6.64 0-9.961ZM9.33 34.419c1.174-.536 2.6-.408 3.684.28.688.439 1.182 1.117 1.5 1.86-.61.002-1.22.003-1.83-.002-.64-.789-1.833-1.046-2.74-.592-.996.445-1.56 1.706-1.15 2.732.35 1.008 1.483 1.688 2.537 1.457.525-.08.982-.387 1.33-.779.612 0 1.225-.004 1.84.003-.469 1.066-1.34 2.002-2.492 2.304-1.893.614-4.143-.5-4.766-2.398-.734-1.84.263-4.117 2.086-4.865Z"/>
  <path fill="#2A2E34" fill-rule="evenodd" d="M20.427 34.249c-1.81-.589-3.94.434-4.658 2.184-.847 1.807-.02 4.243 1.836 5.046 1.263.59 2.8.451 3.96-.315-.006.22-.009.441-.011.661v.004h.413c.414 0 .827 0 1.242.002-.004-.575-.003-1.15-.002-1.724.002-.786.004-1.572-.006-2.358-.054-1.6-1.232-3.077-2.774-3.5Zm-3.313 3.9c-.106-1.043.638-2.063 1.641-2.329 1.212-.366 2.576.535 2.767 1.774.225 1.096-.517 2.268-1.608 2.523-1.278.393-2.719-.648-2.8-1.967Z" clip-rule="evenodd"/>
  <path fill="#2A2E34" d="M24.595 35.312c.467-.784 1.392-1.213 2.285-1.232 1.053.024 2.01.74 2.377 1.72-.553.02-1.107.02-1.66.002-.454-.354-1.214-.377-1.583.11-.115.265-.088.654.227.763.779.391 1.695.494 2.396 1.043 1.077.767 1.184 2.564.178 3.433-.6.524-1.428.761-2.216.692-1.265-.109-2.413-1.16-2.453-2.464.55-.008 1.098-.005 1.648-.002.113.457.401.968.943.956.571.118 1.179-.398 1.049-.992-.044-.413-.5-.533-.827-.647-.705-.206-1.47-.365-2.024-.88-.672-.627-.808-1.719-.34-2.502Z"/>
</svg>
