<svg xmlns="http://www.w3.org/2000/svg" width="70" height="50" fill="none" viewBox="0 0 70 50">
  <rect width="70" height="50" fill="#fff" rx="4"/>
  <path fill="#160F42" d="M43.736 19.511c.612-.51 1.2-1.053 1.851-1.511.005 4.59.013 9.18-.011 13.77-.615.004-1.23.005-1.845-.001.023-4.085.013-8.172.005-12.258ZM33 19.488c.548-.38 1.219-.47 1.867-.533-.02 1.589.02 3.18-.022 4.767 1.01-.718 2.37-.94 3.544-.528.846.244 1.529.848 2.076 1.516.605.805.83 1.845.805 2.84.005 1.405-.022 2.81.014 4.215-.617.013-1.236.01-1.855.002.032-1.451.003-2.902.016-4.352a2.612 2.612 0 0 0-.32-1.325c-.435-.949-1.606-1.512-2.61-1.174-.933.323-1.645 1.25-1.64 2.25-.024 1.534-.016 3.07-.002 4.605a131.8 131.8 0 0 1-1.876-.002 1289 1289 0 0 0 .002-12.28ZM9.01 23.17c1.076-.355 2.29-.16 3.25.425.597.357 1.03.915 1.44 1.464a2.818 2.818 0 0 1-1.822.597c-.419-.414-.93-.793-1.539-.827-.94-.098-1.837.536-2.237 1.359-.305.717-.297 1.551-.044 2.284.32.637.858 1.237 1.586 1.382.824.21 1.718-.127 2.246-.782.657-.032 1.264.241 1.786.616-.517.84-1.287 1.527-2.225 1.86a3.83 3.83 0 0 1-2.872-.111c-1.44-.628-2.417-2.101-2.559-3.651-.195-1.964 1.047-4.07 2.99-4.615Zm16.432.734c.67-.637 1.62-.869 2.517-.917.94.013 1.953.218 2.656.885.302.273.51.628.73.965-.476.373-1.037.639-1.648.673-.27-.496-.807-.793-1.366-.802-.54-.052-1.252.014-1.501.58-.207.299.032.66.281.842.745.52 1.723.437 2.508.872.594.345 1.22.755 1.478 1.425.376.681.198 1.54-.249 2.142-1.404 1.539-4.096 1.634-5.594.18-.253-.238-.409-.556-.599-.842a3.588 3.588 0 0 1 1.649-.686c.243.536.834.803 1.399.817.526.048 1.181-.025 1.472-.534.176-.251.075-.585-.146-.77-.765-.606-1.808-.547-2.646-.997-.727-.353-1.386-.956-1.608-1.757-.181-.745.07-1.585.667-2.076Z"/>
  <path fill="#160F42" fill-rule="evenodd" d="M53.847 23.786c-1.677-1.256-4.249-1.11-5.735.384-1.663 1.527-1.796 4.38-.31 6.072.859 1.026 2.215 1.668 3.565 1.569 1.446.037 2.681-.879 3.607-1.901-.144-.15-.293-.297-.44-.442a12.065 12.065 0 0 1-.804-.843 6.77 6.77 0 0 0-.396.393c-.316.33-.632.663-1.076.81-.707.327-1.526.254-2.23-.037.622-.617 1.24-1.239 1.86-1.86a234.424 234.424 0 0 1 3.084-3.063c-.337-.392-.727-.733-1.114-1.072l-.011-.01Zm-5.048 4.77c-.347-.729-.391-1.613-.016-2.34.571-1.32 2.325-1.958 3.592-1.236a86.304 86.304 0 0 0-3.576 3.576Z" clip-rule="evenodd"/>
  <path fill="#160F42" d="M56.42 22.99c2.492-.004 4.984 0 7.475-.003a44.6 44.6 0 0 0 0 1.359c-1.634 1.9-3.208 3.851-4.856 5.738 1.44-.018 2.883.007 4.324-.015.37.488.539 1.091.546 1.699-2.487.01-4.974.006-7.46.001.01-.463.01-.925.003-1.388 1.583-1.91 3.197-3.794 4.779-5.707-1.427.004-2.854.012-4.28-.002-.345-.496-.483-1.09-.531-1.682Z"/>
  <path fill="#28C4F4" d="M15.817 24.336c.838-.93 2.1-1.428 3.343-1.408 1.442-.001 2.884.005 4.325-.001-.584.587-1.19 1.154-1.755 1.761-.982.023-1.965-.024-2.946.02-1.35.105-2.452 1.365-2.417 2.712-.008.693.333 1.327.762 1.85-.415.417-.845.82-1.254 1.245-.952-.975-1.432-2.39-1.23-3.742.143-.9.518-1.787 1.172-2.437Z"/>
  <path fill="#A8A9AD" d="m23.485 22.927.02-.019c-.018 1.589.012 3.178-.013 4.767-.095 2.008-1.723 3.806-3.708 4.103-.725.06-1.48.08-2.17-.183-.648-.231-1.228-.624-1.739-1.08.409-.426.84-.828 1.254-1.246.721.68 1.815.973 2.762.643 1.07-.312 1.84-1.393 1.84-2.496.012-.91 0-1.82 0-2.728.564-.607 1.17-1.174 1.754-1.761Z"/>
</svg>
