<svg xmlns="http://www.w3.org/2000/svg" width="70" height="50" fill="none" viewBox="0 0 70 50">
  <rect width="70" height="50" fill="#108EE9" rx="4"/>
  <path fill="#fff" fill-rule="evenodd" d="M15.11 17h-.234a7.953 7.953 0 0 0-5.257 2.151c-1.65 1.529-2.598 3.756-2.619 6v.21c.04 2.197.96 4.373 2.563 5.885a7.947 7.947 0 0 0 5.341 2.204h.229c2.67-.03 5.238-1.525 6.627-3.796 1.187-1.883 1.552-4.252 1.025-6.411a8.233 8.233 0 0 0-3.102-4.695A7.931 7.931 0 0 0 15.11 17Zm-3.625 6.684c.753.22 1.557.086 2.291-.15.404-.134.803-.286 1.2-.439.644-.246 1.288-.493 1.958-.658.897-.21 1.905-.041 2.624.554.142.136.142.334.142.52 0 .047 0 .093.002.137a99.877 99.877 0 0 0-.003 1.807c.004.888.009 1.775-.022 2.662a14.673 14.673 0 0 1-.324-.144c-.444-.201-.89-.404-1.39-.413-1.041-.058-2.004.288-2.969.634-.784.282-1.57.564-2.401.63-.754.053-1.541-.126-2.152-.58-.126-.173-.12-.39-.113-.602.002-.087.005-.172-.002-.254.012-.539.007-1.08.002-1.62-.009-.87-.017-1.741.045-2.608.137.061.27.134.402.207.228.126.456.251.71.317ZM27.3 21.097c-.413.003-.825.005-1.238 0v8.312h2.756c.669.002 1.344-.126 1.941-.435 1.59-.78 2.51-2.654 2.205-4.39-.252-1.809-1.831-3.346-3.667-3.468a42.097 42.097 0 0 0-1.997-.019Zm.499 5.844c.003-1.352.007-2.704-.005-4.056.178.005.357.002.537-.001.392-.007.785-.014 1.17.07.957.219 1.696 1.111 1.764 2.087.101.97-.462 1.973-1.358 2.37-.486.229-1.02.217-1.548.206a9.478 9.478 0 0 0-.562 0l.002-.676Zm8.252-2.482c.056-1.803 1.68-3.422 3.504-3.36 1.788-.02 3.359 1.565 3.43 3.333.018 1.015.016 2.031.013 3.047v.001c-.002.642-.004 1.284 0 1.926h-.002c-.58.002-1.158.003-1.736 0a82.964 82.964 0 0 1-.002-.892v-.001c0-.297 0-.594-.002-.89-.682.003-1.364.002-2.046.002h-1.43c-.003.222-.002.444 0 .666 0 .374.002.75-.009 1.123-.385-.009-.77-.008-1.154-.007h-.576c.002-.6 0-1.2-.001-1.8-.003-1.05-.006-2.1.011-3.148Zm2.173-.978c-.474.511-.46 1.202-.447 1.863.004.169.007.335.002.496h1.39c.696 0 1.392-.001 2.087.001-.005-.16 0-.326.003-.493.015-.647.03-1.32-.416-1.831-.622-.817-1.975-.835-2.62-.036Zm7.813.996c.051-1.587 1.291-3.059 2.865-3.326 1.172-.225 2.427.236 3.19 1.148.59.65.891 1.53.891 2.402.002 1.046.002 2.092 0 3.137v1.57h-.59a31.59 31.59 0 0 0-1.14.009c-.012-.889-.01-1.778-.008-2.667.001-.685.003-1.369-.003-2.052.01-.635-.33-1.267-.885-1.582a1.704 1.704 0 0 0-1.885.121c-.458.342-.713.911-.705 1.478-.003.893-.002 1.785-.002 2.678v2.014h-.635c-.37.001-.741.002-1.112-.004.013-.792.01-1.583.008-2.375-.002-.85-.005-1.7.01-2.55ZM56.58 22.71c.67-1.046 1.91-1.72 3.162-1.601 1.415.087 2.67 1.165 3.062 2.513.145.455.152.93.158 1.405.004.271.008.543.038.81v3.562c-.444.012-.889.01-1.334.01l-.444-.002v-.575c0-.405.001-.81-.008-1.214-.704.01-1.408.009-2.112.007h-1.359v.892l-.001.892h-1.738l-.001-2.298v-2.296c-.009-.737.167-1.486.577-2.105Zm1.598.784c-.464.51-.45 1.194-.437 1.85.003.169.007.335.002.497h3.478a9.73 9.73 0 0 1 .002-.506c.014-.644.028-1.313-.419-1.82-.627-.818-1.986-.829-2.626-.021Z" clip-rule="evenodd"/>
</svg>
