<svg xmlns="http://www.w3.org/2000/svg" width="70" height="50" fill="none" viewBox="0 0 70 50">
  <rect width="70" height="50" fill="#FD6542" rx="4"/>
  <path fill="#fff" fill-rule="evenodd" d="M29.213 10.047c-.187.136-.181.365-.175.58.001.064.003.128 0 .187.011.251-.046.493-.103.735-.047.202-.095.404-.103.612-.004.12-.018.24-.032.36-.015.128-.03.256-.033.386-.007.435-.084.863-.16 1.29-.038.205-.075.41-.104.615a9.372 9.372 0 0 1-.044.65c-.018.208-.037.416-.043.625-.029.198-.067.395-.106.592-.081.41-.162.821-.155 1.24.01.437-.068.864-.146 1.29a8.072 8.072 0 0 0-.142 1.006c-.036.203-.042.409-.048.614-.005.15-.01.3-.026.45-.025.148-.053.295-.08.442-.082.423-.163.846-.17 1.279-.013.41-.085.814-.157 1.218-.037.208-.073.415-.102.623-.001.191-.02.38-.039.569-.019.19-.038.381-.038.573-.009.31-.072.613-.135.915-.067.325-.135.649-.136.98 0 .199-.02.396-.041.593a7.234 7.234 0 0 0-.04.488c-.02.116-.043.232-.064.348-.098.513-.196 1.028-.194 1.552-.003.391-.074.775-.145 1.158-.046.249-.092.497-.12.748.003.204-.018.407-.04.61-.032.296-.063.591-.02.887.042.085.13.086.216.087.026 0 .052 0 .076.003.631-.004 1.264-.003 1.895-.003h1.185c.208-.639.291-1.312.339-1.979-.01-.448.076-.884.162-1.32.035-.176.07-.35.098-.526.02-.6.06-1.2.168-1.792.113-.523.2-1.057.181-1.594-.008-.354.066-.699.14-1.043.072-.338.144-.675.139-1.022.003-.102.016-.203.028-.303.014-.113.028-.225.03-.339.002-.346.07-.684.138-1.023.049-.247.099-.494.123-.744.027-.63.062-1.263.207-1.878.057-.253.078-.51.098-.768.01-.134.02-.267.037-.4-.006-.403.068-.798.142-1.192.073-.395.147-.79.142-1.192-.005-.464.081-.918.167-1.37.082-.437.164-.873.166-1.319-.008-.447.074-.886.156-1.323.04-.216.08-.432.11-.648-.004-.238.02-.474.044-.71.018-.186.037-.372.042-.56.014-.175.056-.345.097-.515.054-.22.108-.438.1-.665-.149-.099-.325-.095-.497-.091-.05 0-.101.002-.15 0a56.89 56.89 0 0 1-1.183.002 39.69 39.69 0 0 0-1.655.012Zm8.558.122c-.349.124-.702.26-.988.5-.387.286-.606.727-.808 1.15-.115.256-.109.538-.103.814l.003.167c-.005.315.141.6.282.873l.024.047c.331.646.982 1.102 1.687 1.245.627.104 1.234-.168 1.723-.538.364-.284.618-.683.806-1.098.096-.195.093-.41.09-.622 0-.068-.002-.135 0-.201-.002-.06 0-.121 0-.182.002-.144.003-.29-.035-.43-.238-.622-.667-1.197-1.277-1.494l-.058-.025c-.422-.183-.889-.386-1.346-.206Zm-15.994 1.028c.585-.387 1.26-.598 1.93-.783a10.38 10.38 0 0 1 2.945-.01c.223.051.51.15.548.41-.007.267-.078.521-.149.777-.06.214-.12.43-.141.651-.013.051-.019.108-.025.165-.018.161-.036.329-.191.409-.42.264-.9.257-1.38.25-.472-.007-.944-.014-1.359.237a3.3 3.3 0 0 0-.908.695c-.349.415-.555.923-.734 1.428a2.146 2.146 0 0 0-.115.64c-.004.325-.08.64-.156.954-.04.165-.08.331-.11.498-.032.145.107.262.235.293.146.013.292-.005.437-.023.123-.016.246-.031.37-.028.473.002.946.002 1.418.001h1.161c.166-.007.419.081.366.292-.03.191-.073.38-.117.57-.077.333-.154.667-.151 1.013a2.23 2.23 0 0 1-.113.759c-.634.005-1.267.004-1.9.003-.517 0-1.033 0-1.549.002a.417.417 0 0 0-.43.428 5.936 5.936 0 0 0-.063.844c-.01.347-.02.694-.104 1.034-.122.535-.166 1.081-.21 1.627-.017.202-.033.403-.053.604-.11.592-.213 1.186-.246 1.788.001.544-.088 1.083-.21 1.61-.059.22-.065.446-.071.671-.005.19-.01.38-.046.567-.008.37-.076.734-.144 1.098-.075.398-.149.796-.145 1.203.01.436-.07.861-.152 1.287-.05.26-.1.519-.129.78a3.627 3.627 0 0 1-.167.691 4.088 4.088 0 0 0-.158.62c-.032.228-.099.448-.165.667a4.107 4.107 0 0 0-.175.737c-.144.574-.423 1.159-.922 1.505-.325.187-.693.326-1.073.313-.24-.002-.48-.002-.72-.002h-.6a10.83 10.83 0 0 1 .006-1.1c.027-.236.073-.469.118-.702.069-.354.137-.708.145-1.07.004-.12.018-.241.032-.362.017-.15.035-.301.034-.453 0-.224.052-.44.104-.656.034-.144.069-.287.088-.433.04-.912.134-1.823.329-2.716.013-.32.038-.638.063-.957.015-.191.03-.382.042-.574a9.01 9.01 0 0 1 .113-.64c.076-.376.151-.751.141-1.135-.002-.4.071-.791.144-1.183.045-.24.09-.479.118-.72 0-.184.02-.367.039-.55.018-.175.036-.35.038-.524.013-.312.076-.618.138-.923.033-.16.066-.32.091-.48.041-.227.042-.458.043-.688 0-.253.002-.507.056-.756.022-.165.062-.328.101-.49.053-.22.106-.438.118-.663.035-.253-.23-.309-.435-.353l-.097-.021a2.045 2.045 0 0 0-.504-.061c-.238-.01-.476-.018-.688-.14-.17-.116-.362-.246-.428-.453-.035-.19-.01-.378.015-.567.016-.124.032-.248.032-.372.004-.078.004-.157.003-.236-.002-.204-.003-.41.087-.598.096-.122.266-.14.41-.139.64.005 1.28.006 1.92.005.014-.127.018-.254.023-.382.006-.18.012-.361.044-.54.02-.212.07-.419.12-.625.053-.221.107-.442.124-.67.027-.326.141-.632.267-.93.188-.576.495-1.102.805-1.618.484-.726 1.148-1.32 1.872-1.8Zm29.484 6.243c.111-.023.223-.046.333-.074.413-.12.849-.1 1.276-.082l.073.003.08.004.192.04c.361.074.725.15 1.064.298.965.392 1.701 1.227 2.113 2.169.098.197.166.406.235.615.03.093.061.186.094.279.179.442.214.913.249 1.385.018.25.037.501.077.748.035.33.028.662.02.993l-.004.197c-.044.298-.065.6-.085.903-.037.547-.074 1.095-.256 1.617a4.967 4.967 0 0 0-.117.462c-.045.207-.09.414-.17.612-.053.132-.093.269-.133.406-.044.156-.09.311-.154.46-.568 1.368-1.315 2.679-2.338 3.76-.837.877-1.836 1.632-2.995 2.027-.491.23-1.028.268-1.561.306-.157.01-.314.022-.469.038-.136-.017-.273-.029-.41-.041a5.64 5.64 0 0 1-.944-.138c-.592-.189-1.168-.45-1.659-.836a4.4 4.4 0 0 1-.124-.114c-.145-.134-.29-.269-.476-.344-.047.173-.066.35-.084.528a4.109 4.109 0 0 1-.064.443 9.16 9.16 0 0 0-.217 1.882c-.025.308-.088.61-.151.913-.029.136-.057.271-.082.407-.02.215-.034.431-.047.648-.038.61-.075 1.224-.272 1.804-.096.225-.31.194-.513.165a1.526 1.526 0 0 0-.178-.02c-.44-.002-.881-.002-1.322-.001-.459 0-.917.002-1.375-.002-.076-.303-.042-.607-.007-.912.017-.153.035-.306.038-.458.029-.222.069-.442.109-.662.063-.348.127-.696.146-1.05a7.203 7.203 0 0 1 .2-1.624c.063-.247.073-.5.083-.754.008-.201.016-.402.051-.601.006-.345.074-.682.142-1.019.076-.38.152-.76.14-1.15-.004-.444.075-.879.155-1.314.036-.195.071-.39.1-.587.007-.147.023-.293.04-.44.02-.19.042-.38.043-.571-.014-.345.059-.679.132-1.013.064-.292.128-.583.134-.882.005-.65.117-1.29.23-1.927v-.002l.052-.302c.047-.24.051-.485.056-.73.004-.162.007-.324.022-.485.028-.169.062-.336.096-.504.07-.342.14-.684.158-1.034.005-.12.019-.24.032-.36.018-.162.037-.323.034-.486-.008-.247.048-.486.103-.725.056-.237.111-.474.104-.72l.028-.348c.045-.57.09-1.14.242-1.693.38-.076.766-.068 1.153-.06.215.005.43.009.645-.001.54-.04 1.106.362 1.174.913.03.431.014.864-.051 1.291.002.212-.019.423-.04.634-.027.274-.055.547-.031.823.085-.004.172-.006.259-.006.187-.455.513-.833.843-1.19l.309-.316c.287-.296.575-.592.885-.864.577-.497 1.252-.87 1.955-1.16.202-.084.416-.128.63-.171Zm.82 2.996c-.454-.27-1.015-.292-1.519-.17-.783.246-1.45.762-2.006 1.354-.794.903-1.43 1.938-1.926 3.03-.552 1.082-.87 2.288-.87 3.504-.015.382-.09.756-.166 1.13a7.936 7.936 0 0 0-.16 1.032c.152.466.594.743.99.991l.042.026.084.035c.451.189.914.383 1.41.397l.155.003c.449.01.912.02 1.327-.17.955-.356 1.755-1.049 2.307-1.899.504-.675.822-1.461 1.136-2.236l.002-.006c.217-.628.331-1.28.445-1.932l.03-.171c.14-.527.132-1.069.124-1.61-.003-.182-.006-.363-.003-.544-.027-.327-.108-.646-.189-.965a12.296 12.296 0 0 1-.11-.461c-.213-.543-.552-1.09-1.103-1.338ZM35.833 18.23c.029-.229.058-.458.107-.683l.846-.002c.897-.003 1.795-.005 2.692.006 0 .247-.046.487-.091.728a5.887 5.887 0 0 0-.08.498c-.041.21-.044.421-.047.633-.003.206-.005.413-.044.616a6.15 6.15 0 0 1-.106.586c-.063.296-.126.591-.123.896-.001.118-.016.236-.03.353a2.94 2.94 0 0 0-.032.396c.003.34-.067.67-.137 1-.072.341-.144.682-.137 1.031.004.157-.014.312-.032.468-.013.115-.027.23-.031.346-.004.319-.07.63-.136.942-.071.338-.142.675-.136 1.022.004.491-.082.974-.167 1.456-.031.172-.062.345-.089.518-.01.253-.032.504-.055.756-.015.168-.03.337-.042.505a15.54 15.54 0 0 1-.104.635c-.079.445-.158.89-.155 1.345 0 .363-.066.719-.132 1.075-.034.178-.067.356-.092.535a2.638 2.638 0 0 0-.019.084c-.03.139-.061.286-.183.369-.507.008-1.014.007-1.52.005a89.492 89.492 0 0 0-1.342.003 1.13 1.13 0 0 0-.114-.002c-.118.002-.24.004-.318-.099-.033-.259-.004-.516.026-.773.022-.196.044-.393.039-.591-.011-.398.063-.785.138-1.174.067-.349.134-.698.139-1.054.006-.094.017-.189.027-.283.017-.155.035-.31.035-.465.004-.24.057-.474.11-.707a6.38 6.38 0 0 0 .078-.385l.002-.031c.063-.902.126-1.808.323-2.692l.037-.446c.03-.36.06-.718.076-1.079.028-.166.06-.332.093-.497.063-.313.125-.626.148-.944.023-.634.064-1.27.214-1.888.051-.22.066-.445.081-.67.011-.162.022-.324.046-.484-.001-.45.08-.894.16-1.336l.02-.108c.022-.137.04-.275.057-.414Z" clip-rule="evenodd"/>
</svg>
