<svg xmlns="http://www.w3.org/2000/svg" width="70" height="50" fill="none" viewBox="0 0 70 50">
  <rect width="70" height="50" fill="#fff" rx="4"/>
  <path fill="#01ACD7" fill-rule="evenodd" d="M11.287 19.147c.663-.108 1.345-.095 2.012-.029.618.128 1.242.27 1.81.557a6.512 6.512 0 0 1 2.776 2.53c.54 1.01.912 2.143.856 3.3.016 2.377-1.49 4.641-3.623 5.652-1.382.657-2.99.747-4.468.387-1-.308-1.963-.805-2.691-1.568a6.162 6.162 0 0 1-1.55-2.346c-.433-1.085-.472-2.292-.288-3.436.337-1.698 1.386-3.256 2.871-4.159.692-.455 1.486-.725 2.295-.888Zm-.888 3.05c-.5.051-1.046.227-1.323.678-.305.432-.337.973-.367 1.487a32.43 32.43 0 0 1-.008.126c-.006.13-.018.26-.03.389-.023.26-.046.522-.026.785.016.178.026.356.037.534.027.446.054.891.15 1.328.12.551.617.979 1.164 1.079 1.02.184 2.058.168 3.09.151.095 0 .19-.002.284-.004.422-.023.845-.066 1.263-.133.625-.082 1.178-.59 1.28-1.218.18-.769.212-1.562.159-2.347-.1-.503-.456-.957-.94-1.14-.218-.106-.46-.105-.697-.105h-1.523c-.816 0-1.632 0-2.448.003-.093.002-.18-.03-.268-.062-.032-.012-.064-.024-.096-.034-.002-.175.004-.438.24-.442a63.32 63.32 0 0 1 1.844-.006c.81.005 1.62.01 2.427-.025-.087-.407-.336-.833-.764-.946a7.123 7.123 0 0 0-1.183-.193 19.107 19.107 0 0 1-.34-.006c-.644-.012-1.291-.024-1.925.101Zm4.377 3.424c-.206-.056-.453.026-.525.238-.045.244.027.48.1.714.03.098.06.196.081.295l.094.054.094.055c.08-.047.163-.09.248-.127.01-.207.06-.405.11-.604.021-.088.044-.177.062-.266a.608.608 0 0 0-.264-.36Z" clip-rule="evenodd"/>
  <path fill="#010101" fill-rule="evenodd" d="M26.794 21.1c-.605-.236-1.276-.21-1.909-.131-1.37.211-2.572 1.257-2.978 2.582-.184.526-.18 1.092-.132 1.64.164 1.402 1.218 2.632 2.556 3.06.948.288 2.043.297 2.918-.216.114-.064.218-.142.322-.22.097-.073.194-.146.3-.207l.001.073c.013.578.028 1.231-.41 1.667-.294.36-.739.548-1.188.617-.971.178-1.998-.154-2.72-.818-.16.163-.328.32-.496.476a9.254 9.254 0 0 0-.784.788c.756.715 1.713 1.23 2.75 1.368 1.015.128 2.106.066 3.01-.456.766-.425 1.37-1.152 1.606-1.999.147-.422.145-.873.143-1.314v-7.083a86.106 86.106 0 0 0-1.102-.005h-.796l.001.192c.002.208.003.417-.002.625-.327-.267-.688-.503-1.09-.639Zm-2.407 2.037c.314-.28.731-.386 1.138-.446.81-.123 1.72.248 2.135.973.167.293.16.625.153.954-.002.115-.005.23 0 .343.069.691-.47 1.3-1.087 1.536-.745.28-1.664.3-2.315-.219-.975-.731-.995-2.4-.024-3.141Zm19.059-2.214c-.81-.006-1.655.236-2.24.821l-.014-.224a30.332 30.332 0 0 0-.027-.385 67.844 67.844 0 0 0-1.914 0 10205.191 10205.191 0 0 1 .001 10.155c.448.03.898.027 1.347.024.209 0 .418-.002.627 0 .014-.896.01-1.793.008-2.69l-.003-.918c1.408 1.118 3.648.995 4.914-.288 1.378-1.382 1.457-3.845.13-5.287-.698-.802-1.77-1.246-2.829-1.208Zm-2.122 2.909c.206-.62.836-.99 1.448-1.111.63-.128 1.336.031 1.824.46.826.751.832 2.194.053 2.98-.781.757-2.164.743-2.94-.014a1.478 1.478 0 0 1-.476-1.187 3.714 3.714 0 0 0 0-.35c-.006-.264-.013-.53.09-.778Zm-7.796-2.813c1.114-.224 2.333-.09 3.302.53a3.556 3.556 0 0 1 1.55 1.992c.344 1.082.19 2.32-.455 3.262-.64.95-1.734 1.531-2.862 1.64-.696.047-1.414.023-2.072-.23-1.09-.366-2.003-1.265-2.325-2.375a3.75 3.75 0 0 1 .406-3.154c.547-.862 1.464-1.451 2.456-1.665Zm.466 1.712a2.285 2.285 0 0 0-.764.393c-.787.62-.979 1.846-.418 2.676.64 1.056 2.292 1.264 3.16.38.423-.39.624-.97.568-1.54.048-1.264-1.353-2.282-2.546-1.91Zm18.194-1.761c-1.14-.15-2.375.01-3.321.706-.547.434-1.014 1.031-1.106 1.741.272.047.542.106.812.165.352.077.704.153 1.061.203a1.66 1.66 0 0 1 1.323-1.215 2.68 2.68 0 0 1 1.23.072c.348.112.612.492.46.855-.283.258-.669.336-1.036.41l-.14.03-.192.026c-.931.132-1.9.269-2.693.807-.98.686-.984 2.3-.078 3.05.749.643 1.803.716 2.742.592.65-.122 1.304-.403 1.719-.938.002.132.002.264.002.396s0 .264.003.397l.429-.001c.454-.002.908-.003 1.362.004.002-.886.002-1.77.002-2.656v-1.991c.007-.539-.19-1.063-.486-1.507-.481-.675-1.298-1.016-2.093-1.146Zm-2.467 5.364c-.103-.245.096-.488.296-.608.403-.223.857-.305 1.31-.388.546-.1 1.09-.2 1.543-.542-.004.108 0 .22.003.335.012.385.024.789-.26 1.077-.546.545-1.38.646-2.115.599-.306-.018-.708-.124-.777-.473Zm5.833-5.204h-.632a363.634 363.634 0 0 0 1.693 3.474c.533 1.085 1.066 2.17 1.59 3.259-.258.566-.537 1.12-.817 1.676a44.359 44.359 0 0 0-.86 1.772c.227-.001.453 0 .68.002.504.004 1.008.008 1.51-.018 1.652-3.384 3.302-6.769 4.95-10.155a52.35 52.35 0 0 0-2.22-.003 631.256 631.256 0 0 1-2.151 4.668l-.644-1.378c-.352-.75-.704-1.5-1.046-2.254-.054-.123-.115-.243-.175-.364a4.867 4.867 0 0 1-.297-.676c-.527-.005-1.054-.004-1.58-.003Z" clip-rule="evenodd"/>
</svg>
