<svg xmlns="http://www.w3.org/2000/svg" width="70" height="50" fill="none" viewBox="0 0 70 50">
  <rect width="70" height="50" fill="#fff" rx="4"/>
  <path fill="#5F6368" fill-rule="evenodd" d="M33.917 29.118v-4.512h2.44c1.007 0 1.852-.315 2.537-.948a3.043 3.043 0 0 0 1.06-2.365 3.057 3.057 0 0 0-1.06-2.35 3.605 3.605 0 0 0-2.536-.965H32.44v11.14h1.477Zm0-5.88V19.35h2.477c.553-.016 1.085.2 1.462.59.38.358.593.85.593 1.362a1.87 1.87 0 0 1-.593 1.361 1.985 1.985 0 0 1-1.462.576h-2.477Zm12.026-1.143c-.632-.565-1.493-.848-2.585-.848-1.403 0-2.462.498-3.177 1.493l1.3.794c.481-.674 1.134-1.011 1.96-1.011a2.13 2.13 0 0 1 1.425.521c.39.312.614.777.61 1.267v.327c-.567-.31-1.29-.466-2.167-.466-1.027 0-1.849.234-2.464.7-.615.466-.923 1.093-.923 1.882a2.353 2.353 0 0 0 .875 1.866c.584.498 1.309.747 2.175.747 1.016 0 1.83-.435 2.44-1.307h.065v1.058h1.413V24.42c0-.984-.315-1.76-.947-2.325Zm-4.006 5.623a1.132 1.132 0 0 1-.49-.933c0-.415.2-.761.605-1.045.4-.28.901-.42 1.501-.42.824 0 1.466.177 1.927.532 0 .601-.245 1.125-.734 1.571a2.394 2.394 0 0 1-1.662.669 1.84 1.84 0 0 1-1.147-.374ZM55 21.496l-4.932 10.982h-1.525l1.83-3.842-3.243-7.14h1.606l2.344 5.476h.032l2.28-5.476H55Z" clip-rule="evenodd"/>
  <path fill="#4285F4" fill-rule="evenodd" d="M27.949 23.635c0-.437-.038-.872-.114-1.302h-6.23v2.465h3.568a2.959 2.959 0 0 1-1.319 1.945v1.6h2.13c1.246-1.114 1.965-2.76 1.965-4.708Z" clip-rule="evenodd"/>
  <path fill="#34A853" fill-rule="evenodd" d="M21.605 29.889c1.783 0 3.284-.567 4.378-1.545l-2.129-1.6c-.593.39-1.356.612-2.249.612a3.94 3.94 0 0 1-3.708-2.642h-2.193v1.649c1.12 2.161 3.404 3.526 5.901 3.526Z" clip-rule="evenodd"/>
  <path fill="#FBBC04" fill-rule="evenodd" d="M17.897 24.714a3.721 3.721 0 0 1 0-2.45v-1.649h-2.193a6.223 6.223 0 0 0 0 5.748l2.193-1.65Z" clip-rule="evenodd"/>
  <path fill="#EA4335" fill-rule="evenodd" d="M21.605 19.622a3.65 3.65 0 0 1 2.534.96l1.886-1.826a6.46 6.46 0 0 0-4.42-1.667c-2.497 0-4.78 1.364-5.901 3.526l2.193 1.649a3.94 3.94 0 0 1 3.708-2.642Z" clip-rule="evenodd"/>
</svg>
