<svg xmlns="http://www.w3.org/2000/svg" width="70" height="50" fill="none" viewBox="0 0 70 50">
  <rect width="70" height="50" fill="#0881D0" rx="4"/>
  <path fill="#A5C937" d="M11.744 15.53c2.832-1.841 6.318-3.057 9.71-2.303 4.494.81 8.505 3.892 10.346 8.083-3.202-1.332-7.038-1.372-10.11.336-.574.285-1.065.709-1.643.986-1.588-3.403-4.597-6.228-8.303-7.103Zm22.154 6.358a18.066 18.066 0 0 0-4.33-6.204c1.962.574 4.011.832 6.054.693.553 1.504 1.412 2.948 2.717 3.92.854.665 1.88 1.062 2.92 1.333-2.299 1.038-4.992 1.099-7.361.258Z"/>
  <path fill="#fff" fill-rule="evenodd" d="M42.755 20.404c.054-.738.92-.861 1.507-.79 1.381-.073 2.668 1.162 2.596 2.552-.003 1.44-.002 2.882 0 4.323v.003c.002 2.306.005 4.612-.013 6.918-.047 1.299-1.552 2.232-2.747 1.734-.654-.19-1.06-.765-1.334-1.35-1.025 1.276-2.726 1.998-4.352 1.661-1.937-.322-3.415-2.013-3.807-3.885-.374-1.872-.231-3.982.928-5.567 1.592-2.314 5.206-2.505 7.21-.628.002-.53-.001-1.06-.004-1.591-.007-1.127-.013-2.253.016-3.38Zm-3.013 7.141c-1.482.845-1.53 3.312-.186 4.31 1.015.679 2.352.201 3.19-.545a119.157 119.157 0 0 1-.002-3.101c-.785-.729-1.984-1.12-3.002-.664Zm-28.2-7.928c-.59-.072-1.49.031-1.531.787-.016 3.713-.011 7.428-.007 11.142l.002 1.856c.025 1.605 2.22 2.473 3.377 1.385.815-.673.766-1.685.718-2.678-.021-.436-.042-.868.01-1.266l.375.516c.69.952 1.381 1.903 2.087 2.843.498.66 1.303 1.141 2.153 1.058.872-.085 1.617-.605 2.26-1.161l-.682-.993c-.838-1.22-1.675-2.438-2.504-3.662.482-.677.96-1.357 1.437-2.038.5-.714 1-1.427 1.507-2.137-.621-.574-1.35-1.195-2.251-1.163-.88.02-1.828.387-2.31 1.161l-1.033 1.54-.002.003-1.036 1.542c-.02-1.15-.016-2.298-.013-3.446.003-.985.006-1.969-.005-2.953-.03-1.298-1.267-2.392-2.552-2.336Zm10.375 6.152c-.01-.744.558-1.412 1.26-1.612a5.003 5.003 0 0 1 1.583.011c.681.213 1.255.87 1.228 1.61.014.684.008 1.368.002 2.053-.007.932-.015 1.864.025 2.795.197 1.594 2.933 1.607 3.128.006.045-.95.036-1.901.028-2.853a71.773 71.773 0 0 1 .001-2.028c.023-1.605 2.108-2.053 3.28-1.38.485.284.799.84.785 1.405.007 3.045.005 6.09 0 9.134-.805.317-1.73.575-2.567.22-.64-.258-1.06-.832-1.395-1.408-1.031 1.366-2.836 2.135-4.524 1.69-1.725-.356-2.778-2.131-2.837-3.8l-.001-.584c-.004-1.754-.009-3.507.004-5.259Zm30.928-1.51c1.726-.418 3.641.015 4.998 1.172 1.598 1.305 2.367 3.52 1.937 5.538-.482 2.527-2.848 4.531-5.428 4.556-2.693.139-5.283-1.901-5.767-4.556-.69-2.91 1.345-6.08 4.26-6.71Zm.495 3.23a2.55 2.55 0 0 0-1.54 1.675c-.466 1.464.78 3.148 2.32 3.1 1.662.146 3.032-1.76 2.38-3.286-.415-1.267-1.922-1.937-3.16-1.489Z" clip-rule="evenodd"/>
</svg>
