<svg xmlns="http://www.w3.org/2000/svg" width="70" height="50" fill="none" viewBox="0 0 70 50">
  <rect width="70" height="50" fill="#E82529" rx="4"/>
  <path fill="#FEFEFE" fill-rule="evenodd" d="M31.001 8.038c.352-.073.74-.05 1.049.149.41.25.634.746.594 1.219-.073.854-.76 1.625-1.608 1.773-.393.072-.821-.015-1.132-.273a1.246 1.246 0 0 1-.452-1.038c.068-.848.691-1.668 1.55-1.83Zm12.985.464c.303-.026.61-.022.915-.018.188.002.375.005.562 0h.487c.23-.001.461-.002.692.002.105-.01.197.093.17.197-.298 2.172-.6 4.345-.9 6.517l-.001.004v.005c-.235 1.692-.47 3.384-.703 5.076l-.001.006c-.012.078-.027.173-.11.208a.859.859 0 0 1-.229.018h-.077c-.385-.002-.77-.001-1.156 0-.386 0-.77 0-1.156-.002a.181.181 0 0 1-.197-.228c.32-2.325.642-4.65.964-6.974v-.005l.001-.002V13.3l.001-.002v-.003l.64-4.615c.008-.068.026-.15.098-.179Zm-22.06.444c-.38-.004-.76-.008-1.137.018a.316.316 0 0 0-.212.284l-.65 4.875-.505 3.8c-.05.346-.01.706.123 1.03.411 1.003 1.501 1.625 2.565 1.62h.487c1.464.001 2.928.002 4.392 0a.252.252 0 0 0 .259-.237l.082-.55c.085-.569.17-1.138.249-1.707.03-.136-.104-.251-.235-.231h-1.667c-.88 0-1.76 0-2.64-.002a.511.511 0 0 1-.51-.59c.19-1.326.381-2.651.573-3.976.193-1.325.385-2.65.574-3.976a.304.304 0 0 0-.274-.352c-.16-.01-.32-.008-.48-.007-.1.001-.199.002-.298 0-.232.005-.464.003-.696 0Zm13.467 2.811c.905-.101 1.817-.108 2.727-.114.845.005 1.735.197 2.395.755.603.501.932 1.271.998 2.041.048.429-.01.855-.068 1.28v.001a15.77 15.77 0 0 0-.047.364c-.153 1.153-.326 2.305-.498 3.456l-.105.697a.273.273 0 0 1-.308.255h-.917c-.467 0-.934.002-1.401-.003-.176.001-.303-.188-.257-.354l.074-.52v-.001c.129-.906.258-1.813.397-2.718.02-.144.043-.288.066-.431.072-.453.144-.905.149-1.364v-.025c-.006-.263-.012-.558-.205-.759-.219-.223-.537-.31-.838-.347-.39-.047-.784-.008-1.17.055l-.316 2.234-.595 4.192c-.456-.39-1.055-.642-1.662-.575-.448.015-.851.228-1.223.458l.168-1.155c.227-1.564.455-3.128.69-4.69.024-.137.045-.274.066-.411.06-.386.119-.772.215-1.151.078-.293.201-.598.454-.785.345-.262.789-.325 1.206-.384l.005-.001Zm-5.81.103c-.077 0-.153-.001-.225.02-.123.043-.195.166-.203.29l-.45 3.214v.005c-.226 1.615-.453 3.23-.676 4.846-.035.141.096.276.237.256.789.002 1.577.002 2.366 0 .194.011.35-.163.355-.35.16-1.142.32-2.284.482-3.426v-.003l.63-4.483c.04-.176-.103-.367-.286-.365a78.41 78.41 0 0 0-1.188-.004 97.81 97.81 0 0 1-1.043 0Zm19.412.26a.505.505 0 0 1 .412-.19h.811c.587-.002 1.173-.003 1.76.002.19-.005.272.259.13.376l-2.304 2.549-.004.004-.682.754.77 1.649c.656 1.407 1.313 2.814 1.968 4.222.127.207-.046.502-.289.485-.771.004-1.543.003-2.314.001-.15.011-.274-.096-.324-.23l-1.54-3.346-1.32-2.863c.529-.615 1.057-1.231 1.584-1.847l.004-.005.003-.003.004-.005 1.331-1.553Zm-14.328 8.951c-.294-.177-.656-.199-.987-.136-.883.151-1.53.998-1.583 1.868-.012.345.123.694.373.933.294.29.729.415 1.135.357.889-.11 1.623-.916 1.687-1.803.035-.48-.203-.978-.625-1.219Zm-9.386.782c-.213-.002-.428-.003-.634.059a1.393 1.393 0 0 0-.884.795l-1.696 3.757-3.01 6.67c-.097.158.047.371.229.344.806-.001 1.612-.007 2.418-.014a.421.421 0 0 0 .399-.25c.138-.317.273-.636.408-.954.136-.318.27-.637.409-.954.026-.098.134-.108.22-.103h1.232c.548 0 1.095 0 1.642.002a.144.144 0 0 1 .162.138c.035.315.065.63.095.945.027.286.055.571.085.856a.413.413 0 0 0 .423.375h.691c.576.001 1.151.002 1.727-.002.2.002.353-.21.3-.401-.373-2.24-.75-4.482-1.125-6.723l-.627-3.735a.963.963 0 0 0-.916-.803c-.287-.003-.575-.002-.862-.002a84.69 84.69 0 0 1-.686 0Zm-.65 5.298c.26-.66.518-1.32.789-1.975.055-.05.13.014.114.08l.035.378c.091.99.183 1.978.268 2.967.022.106-.077.194-.179.183h-.513c-.356.003-.712.004-1.067-.006-.079-.034-.047-.111-.021-.175l.015-.041c.19-.47.374-.94.559-1.411Zm22.035-3.889c-.123-.001-.247-.003-.366.027a.353.353 0 0 0-.27.33c-.146 1.484-.288 2.967-.43 4.451l-.214 2.226c-.039.17.098.353.276.344.411.004.824.003 1.236.002h.412c.147.013.285-.1.303-.247.435-2.144.868-4.288 1.301-6.433l.06-.295c.04-.149.01-.376-.178-.396a34.56 34.56 0 0 0-1.205-.008 54.415 54.415 0 0 1-.925 0Zm-3.358 1.724a10.552 10.552 0 0 0-3.329-.374c-.994.037-2.026.252-2.837.86-.797.58-1.303 1.48-1.567 2.415a8.957 8.957 0 0 0-.31 2.735c.038.805.253 1.665.864 2.231.643.601 1.55.776 2.399.85a8.901 8.901 0 0 0 4.11-.587c.175-.062.348-.161.439-.33.08-.149.098-.317.114-.484.008-.074.015-.147.027-.218l.413-3.26.413-3.259c.018-.13.021-.292-.1-.374a1.321 1.321 0 0 0-.43-.152 2.898 2.898 0 0 1-.206-.053Zm-4.881 3.81c.091-.433.23-.873.527-1.213.295-.353.761-.568 1.224-.523.265.023.528.076.788.135l-.245 1.903-.244 1.905c-.429.123-.884.213-1.329.133-.377-.062-.666-.378-.77-.735-.155-.524-.064-1.081.049-1.604Zm-5.071-4.031a28.29 28.29 0 0 0-1.27.011.394.394 0 0 0-.295.357L31.535 27c-.216 1.58-.432 3.158-.668 4.734l-.038.243c-.072.473-.145.953-.373 1.38a2.258 2.258 0 0 1-.919.92 5.89 5.89 0 0 1-.825.384 21.19 21.19 0 0 0-.232.095c-.127.04-.206.178-.145.304.185.58.374 1.156.563 1.734l.012.03c.05.133.115.308.283.29.504-.086.991-.253 1.464-.442.757-.321 1.496-.77 1.979-1.452.433-.632.69-1.366.875-2.104.213-.843.321-1.704.43-2.566.039-.31.078-.622.122-.931.154-1.098.298-2.197.441-3.295v-.004l.151-1.151c.018-.11.024-.24-.066-.322-.075-.085-.19-.084-.297-.083h-.069c-.289.004-.578.002-.867 0Zm12.64 6.79c.387-.09.815-.082 1.17.114.447.235.738.737.71 1.244-.038.73-.568 1.385-1.245 1.633-.484.185-1.06.161-1.496-.13a1.278 1.278 0 0 1-.591-1.043c.01-.835.626-1.638 1.451-1.818Zm3.872 6.304c-4.212-.081-8.428.097-12.623.474-4.586.428-9.16 1.006-13.697 1.808-2.195.395-4.387.824-6.548 1.38l1.083.595c.386.214.773.427 1.16.639.441.241.972.306 1.459.187l.97-.239c.624-.154 1.247-.308 1.873-.454 4.063-.968 8.18-1.684 12.311-2.286a172.89 172.89 0 0 1 11.24-1.261c3.04-.238 6.086-.403 9.134-.443a14.163 14.163 0 0 0-1.004-.115l-.323-.03a76.305 76.305 0 0 0-5.035-.255Z" clip-rule="evenodd"/>
</svg>
