<svg xmlns="http://www.w3.org/2000/svg" width="70" height="50" fill="none" viewBox="0 0 70 50">
  <rect width="70" height="50" fill="#4C3494" rx="4"/>
  <path fill="#fff" fill-rule="evenodd" d="M57.185 18.96c-1.644-1.452-3.906-2.13-6.08-1.923a8.326 8.326 0 0 0-1.606.3 7.92 7.92 0 0 0-4.602 3.588c-1.35 2.27-1.511 5.186-.47 7.607a7.976 7.976 0 0 0 4.065 4.142 8.417 8.417 0 0 0 6.573.07 7.904 7.904 0 0 0 2.788-1.98c1.406-1.535 2.154-3.63 2.106-5.705-.012-2.3-1.022-4.595-2.774-6.099Zm-9.417 2.88c.773-1.152 2.047-1.955 3.428-2.127a4.927 4.927 0 0 1 3.19.643c.91.54 1.622 1.388 2.047 2.354.84 1.928.652 4.317-.617 6.018a4.928 4.928 0 0 1-2.405 1.742 5.02 5.02 0 0 1-3.701-.244 5.028 5.028 0 0 1-2.15-2.013c-1.116-1.938-1.052-4.517.208-6.372Zm-25.925-3.955c-1.484-.769-3.211-1.026-4.862-.807a7.932 7.932 0 0 0-4.31 1.979 8.053 8.053 0 0 0-2.442 4.157c-.446 1.886-.24 3.93.613 5.675a7.946 7.946 0 0 0 3.789 3.733c1.626.757 3.5.938 5.25.57a7.921 7.921 0 0 0 4.355-2.575 8.192 8.192 0 0 0 1.918-4.408 8.549 8.549 0 0 0-.656-4.45 7.958 7.958 0 0 0-3.655-3.874Zm-6.602 2.698a4.888 4.888 0 0 1 2.232-.873 4.936 4.936 0 0 1 2.82.46c1.02.498 1.838 1.37 2.32 2.392.547 1.141.696 2.456.49 3.7-.19 1.134-.71 2.23-1.538 3.037a4.807 4.807 0 0 1-2.659 1.353c-1.224.193-2.523-.072-3.549-.774-1.06-.707-1.803-1.835-2.124-3.06a6.372 6.372 0 0 1 .137-3.698c.353-1.006 1-1.916 1.871-2.537Zm11.652-3.14v2.632h1.585l2.94 6.77 2.134 4.915a2.708 2.708 0 0 0 1.836 1.54c.295.078.599.075.901.072.095-.001.189-.002.282 0 .93-2.19 1.862-4.377 2.794-6.564 1.111-2.607 2.222-5.214 3.328-7.824.028-.317.024-.638.02-.958a15.25 15.25 0 0 1 0-.582h-5.14c-.001.878-.002 1.755 0 2.632h1.566c-.41 1.003-.818 2.005-1.226 3.008-.791 1.945-1.583 3.89-2.381 5.83l-1.866-4.418-1.866-4.42h.79l.79-.001v-2.63c-2.162-.002-4.324-.001-6.487 0Z" clip-rule="evenodd"/>
</svg>
