<svg xmlns="http://www.w3.org/2000/svg" width="70" height="50" fill="none" viewBox="0 0 70 50">
  <rect width="70" height="50" fill="#fff" rx="4"/>
  <path fill="#3A8FF3" fill-rule="evenodd" d="M11.816 19H7.744c-.397 2.45-.784 4.9-1.17 7.351l-.514 3.246c.35.002.7.001 1.05 0 .447 0 .893 0 1.339.003l.21-1.33c.14-.897.282-1.793.428-2.689.914.165 1.84.297 2.77.292.684-.003 1.396-.222 1.868-.739.661-.72.888-1.715 1.02-2.657.1-.913.062-1.955-.589-2.673-.573-.663-1.51-.806-2.34-.804Zm-1.699 4.79c-.25-.003-.501-.005-.751-.001.09-.554.178-1.108.266-1.662l.164-1.02.721-.001c.386 0 .77-.001 1.155.001.288-.006.569.187.633.474.096.464.006.947-.133 1.394-.116.383-.407.763-.834.798-.406.023-.814.02-1.22.016ZM20.942 19h-2.725c-1.118 2.261-2.216 4.533-3.315 6.804-.611 1.265-1.223 2.53-1.838 3.794h.947c.569 0 1.137 0 1.705-.002.166-.356.334-.711.503-1.066.164-.345.328-.69.489-1.037h.31c.928-.002 1.855-.003 2.782.001.12.702.24 1.402.365 2.103.816.002 1.632.002 2.448 0-.227-1.425-.45-2.851-.672-4.277-.329-2.108-.658-4.215-.998-6.32Zm-1.523 6.406c-.599.002-1.197.004-1.796-.002.264-.575.527-1.15.789-1.727.241-.53.483-1.061.726-1.59.072.541.149 1.083.226 1.624.08.565.16 1.13.235 1.695h-.18ZM25.034 19h-2.536c.019.12.037.24.067.357.421 1.567.839 3.135 1.256 4.704a4394.742 4394.742 0 0 0 .565 2.114c.047.163.096.33.056.5-.126.78-.25 1.56-.374 2.339l-.093.583c.341.002.682.001 1.023 0 .455 0 .91 0 1.365.003l.095-.59a269.179 269.179 0 0 0 .359-2.267.88.88 0 0 1 .091-.316c.643-1.06 1.295-2.113 1.947-3.168.875-1.415 1.75-2.83 2.603-4.259h-2.694c-.503.88-.993 1.766-1.484 2.652-.41.74-.818 1.479-1.235 2.214l-.461-2.284-.338-1.677a5.599 5.599 0 0 1-.052-.264c-.04-.217-.08-.435-.16-.641Z" clip-rule="evenodd"/>
  <path fill="#18BA62" fill-rule="evenodd" d="M42.133 19h2.64c.105.04.118.142.13.24a.719.719 0 0 0 .018.106c.266 1.716.535 3.432.805 5.148v.007c.268 1.7.535 3.4.798 5.1a165.89 165.89 0 0 0-1.728-.003h-.72l-.05-.293c-.104-.604-.208-1.209-.315-1.813h-1.32c-.587 0-1.174 0-1.76-.002-.182.37-.358.743-.534 1.116a99.63 99.63 0 0 1-.473.992h-.952c-.565 0-1.13.001-1.693-.004.664-1.36 1.322-2.723 1.981-4.086 1.05-2.173 2.1-4.346 3.173-6.508Zm-.594 6.407h1.977l-.149-1.059v-.003c-.105-.75-.21-1.5-.32-2.249-.253.551-.504 1.103-.754 1.655l-.001.002c-.25.551-.5 1.103-.753 1.654ZM55.974 19h-7.332c-.08.441-.15.884-.22 1.326l-.141.87h1.27c1.058-.002 2.117-.002 3.176.002a2746.683 2746.683 0 0 1-3.654 4.201l-.002.002-1.68 1.93c-.087.086-.107.21-.126.326l-.004.026c-.064.424-.133.847-.202 1.27v.001l-.104.644h7.349l.13-.802v-.001c.074-.456.148-.912.218-1.369h-4.24c.879-1.047 1.756-2.094 2.633-3.142l.002-.002c.822-.982 1.644-1.964 2.467-2.943a.52.52 0 0 0 .144-.305c.041-.276.086-.551.132-.827.066-.401.132-.803.184-1.207Zm.665 0h7.333a36.42 36.42 0 0 1-.352 2.19c-1.046 1.28-2.111 2.547-3.176 3.814a531.05 531.05 0 0 0-2.029 2.421h4.24l-.11.689c-.079.496-.158.992-.242 1.486a1797.3 1797.3 0 0 0-7.343.001c.048-.337.103-.672.157-1.008a62.407 62.407 0 0 0 .15-.932c.018-.12.037-.242.126-.332l2.25-2.584c1.03-1.184 2.06-2.367 3.093-3.55h-.637c-1.272 0-2.545-.001-3.816.002l.116-.727v-.001c.078-.49.156-.98.24-1.469Zm-21.732.03c-.788-.048-1.643.102-2.246.648-.565.502-.812 1.259-.902 1.989-.417 2.837-.937 5.658-1.457 8.478l-.072.391.42-.072c.156-.027.313-.055.47-.08l-.082.334a361.307 361.307 0 0 0-1.104 4.56 908.67 908.67 0 0 0 3.587-5.387l1.436-2.166c-.31.037-.621.082-.931.126-.29.042-.578.083-.868.119.048-.297.094-.593.14-.89.082-.527.164-1.055.254-1.58a210.95 210.95 0 0 1 1.85-.066c.685-.023 1.37-.045 2.055-.075l.113-.737c.063-.409.127-.818.188-1.227-.75-.04-1.5-.07-2.25-.098-.532-.02-1.065-.041-1.597-.066.033-.188.06-.377.089-.566.043-.291.086-.583.147-.87.057-.32.364-.54.682-.533 1.318-.001 2.636-.001 3.954.001.108-.67.211-1.34.31-2.01-1.19-.13-2.389-.168-3.586-.205l-.6-.019Z" clip-rule="evenodd"/>
</svg>
