<svg xmlns="http://www.w3.org/2000/svg" width="70" height="50" fill="none" viewBox="0 0 70 50">
  <rect width="70" height="50" fill="#8A2784" rx="4"/>
  <path fill="#fff" fill-rule="evenodd" d="M33.33 10c.47.007.939.006 1.408.005h.796c1.744 4.537 3.496 9.07 5.25 13.604-.98-.002-1.96 0-2.941 0h-.005c-.144-.422-.294-.841-.443-1.26v-.002l-.001-.001a90.81 90.81 0 0 1-.402-1.142c-1.463.006-2.926.004-4.389.003l-.731-.001c-.156.453-.32.904-.484 1.354-.127.35-.254.698-.377 1.05l-.588-.002c-.783 0-1.566-.001-2.35.002.886-2.273 1.762-4.55 2.638-6.827.87-2.263 1.74-4.525 2.62-6.783Zm1.14 3.998c-.344.985-.706 1.965-1.067 2.945-.249.677-.498 1.353-.742 2.031.861-.005 1.722-.004 2.583-.003h.993l-.121-.345a652.271 652.271 0 0 0-1.645-4.629ZM19.004 10c1.095.006 2.19.005 3.284.004h2.101c.684.005 1.377.1 2.01.367a4.048 4.048 0 0 1 2.116 1.905c.51.994.614 2.19.274 3.256-.366 1.271-1.423 2.291-2.677 2.683-.579.209-1.197.27-1.808.276h-1.102a188.22 188.22 0 0 0-1.503.001v2.436c0 .893 0 1.786.002 2.68h-.9c-.6-.002-1.2-.002-1.8.002.002-2.268.002-4.537.001-6.805 0-2.269 0-4.537.002-6.805Zm2.695 2.368v.934c0 .934.001 1.867-.001 2.801.445-.002.89-.001 1.336 0 .397 0 .793 0 1.19-.002.383-.001.772-.069 1.11-.255.807-.402 1.091-1.454.799-2.267-.231-.697-.93-1.21-1.665-1.212-.924.003-1.846.005-2.769.001Zm17.275-2.365h.448c.896.001 1.792.002 2.687 0a709.24 709.24 0 0 1 2.784 5.497 803.64 803.64 0 0 1 2.734-5.5c1.047.01 2.094.007 3.141 0-.52.938-1.042 1.876-1.563 2.813l-.002.003-.022.04-.004.009-.002.002c-.931 1.677-1.863 3.354-2.796 5.029a.598.598 0 0 0-.07.326v2.852l.001 2.534a149.2 149.2 0 0 0-1.12 0c-.6.002-1.2.003-1.8-.007.034-.25.03-.501.028-.753a13.45 13.45 0 0 1-.001-.284V21.24c-.001-.947-.002-1.893.003-2.839-.002-.033-.002-.066-.003-.1-.002-.107-.004-.215-.044-.315a5.03 5.03 0 0 0-.294-.57c-.046-.081-.092-.162-.136-.243l-1.733-3.13v-.003h-.001a2128.78 2128.78 0 0 0-2.236-4.035ZM19.002 39.051V25.438c1.425.002 2.851.002 4.277 0h.855c1.293.005 2.542.718 3.253 1.79a4.2 4.2 0 0 1 .69 2.503 4.121 4.121 0 0 1-1.149 2.967c-.722.753-1.747 1.22-2.795 1.22h-2.671v2.333l-.001 2.8c-.82-.002-1.64-.004-2.46 0Zm2.46-11.252v3.733c.307-.001.614 0 .92.001h.001c.502.002 1.004.003 1.505-.006.783-.027 1.482-.628 1.672-1.38.316-1.046-.494-2.253-1.588-2.33-.5-.023-1-.02-1.499-.016-.337.002-.674.004-1.01-.002Zm9.487-2.359h-1.965c.004 2.63.004 5.26.003 7.89v5.697c.855-.001 1.708-.001 2.561.001.002-1.129.002-2.258.002-3.387v-2.033h.767c.365 0 .729.001 1.093-.001.492 1.007.975 2.02 1.459 3.031l.001.003c.384.804.768 1.608 1.157 2.41.49-.003.982-.003 1.473-.002.49 0 .982 0 1.473-.002a576.38 576.38 0 0 1-1.752-3.477v-.002l-1.201-2.389c1.388-.496 2.434-1.874 2.428-3.364.069-.976-.191-1.98-.8-2.755a4.146 4.146 0 0 0-3.26-1.622c-1.147.003-2.293.002-3.44.002Zm.6 2.813.001-.45h.968c.484 0 .967 0 1.45-.003.396-.008.8.075 1.134.295.703.425 1.054 1.383.716 2.148-.272.74-1.071 1.205-1.847 1.16h-.907l-1.512-.001c-.004-1.05-.003-2.1-.002-3.149Zm12.514-2.756c2.192-.384 4.616.881 5.379 3.006.365.973.387 2.022.408 3.05l.006.254c0 .174 0 .347.002.521.003.968.007 1.937-.066 2.903-.083 1.002-.351 2.027-.991 2.825a5 5 0 0 1-3.742 1.889 5.012 5.012 0 0 1-3.844-1.552c-.675-.7-1.07-1.634-1.203-2.591-.145-1.073-.139-2.155-.134-3.236.002-.28.003-.559.002-.838l.004-.175c.023-.99.046-1.999.366-2.945.538-1.656 2.12-2.846 3.813-3.111Zm.274 2.445c-.794.171-1.476.809-1.654 1.607-.192.904-.194 1.83-.196 2.75v.004l-.001.259v.396c0 .94 0 1.883.187 2.807.084.43.319.82.636 1.118.879.836 2.453.775 3.237-.162.529-.582.589-1.405.63-2.153a33.452 33.452 0 0 0-.024-4.157c-.052-.623-.164-1.293-.609-1.766-.525-.632-1.417-.878-2.206-.703Z" clip-rule="evenodd"/>
</svg>
