<svg xmlns="http://www.w3.org/2000/svg" width="70" height="50" fill="none" viewBox="0 0 70 50">
  <rect width="70" height="50" fill="#fff" rx="4"/>
  <path fill="#FB4C0F" d="M14.306 18.042a17.061 17.061 0 0 1 1.696.018 5.39 5.39 0 0 1 2.88 1.41 5.317 5.317 0 0 1 1.592 3.653c.04 1.444-.527 2.911-1.586 3.904a5.19 5.19 0 0 1-3.466 1.491c-1.385.021-2.77.003-4.153.026-.276.873-.504 1.76-.785 2.631-.186.576-.688 1.012-1.248 1.21-.399.102-.815.076-1.222.088-.671 0-1.342.021-2.011-.007.251-.864.504-1.729.777-2.587.229-.774 1.007-1.353 1.816-1.34.895-.017 1.79-.002 2.684-.016.07-.352.18-.694.283-1.038.921-3.145 1.861-6.286 2.743-9.443Z"/>
  <path fill="#2E4251" fill-rule="evenodd" d="M27.616 21.214a24.816 24.816 0 0 0-3.14.008l.004.323c.001.162.002.324.005.485 0 .084 0 .168-.002.252l-.001.251c-.004 1.383-.005 2.767-.005 4.15l-.001 1.844c.368.003.737.002 1.105.002h.369v-.745c0-.414 0-.828.002-1.242l.497-.007c.433-.004.867-.01 1.299-.035 1.078-.06 2.026-.897 2.306-1.926.287-.97-.046-2.094-.82-2.747a2.712 2.712 0 0 0-1.618-.613Zm-1.666 2.814v-1.544c.196.008.393.004.59 0 .429-.01.859-.019 1.272.102.388.106.65.433.83.774l.01.15c.018.267.037.537-.017.8-.175.495-.662.89-1.2.87a45.6 45.6 0 0 1-1.085.007h-.4v-1.159Zm18.056-2.815c.181-.006.363-.006.545-.005.276 0 .552.002.828-.022.023.445.026.89.028 1.335.001.192.002.384.005.576h1.38c.008.385.006.771.005 1.157v.097h-1.389l.007 1.028.01 1.44c-.012.253.225.484.474.485.135.024.26-.019.385-.061a1.26 1.26 0 0 1 .239-.064c.056.123.133.24.21.36.16.243.321.488.302.781-.703.33-1.573.457-2.273.057-.449-.244-.655-.755-.708-1.24-.063-.617-.058-1.239-.053-1.86.002-.31.005-.618 0-.926h-.981v-.314c0-.313-.001-.627.002-.94H44c0-.24.002-.479.004-.718.003-.389.006-.777.001-1.166Zm-12.244 2.204a2.561 2.561 0 0 1 2.102-.334c.385.108.691.375.98.64l.005-.313.005-.313h.344c.345 0 .69.001 1.035-.004.036 1.12.03 2.242.025 3.363-.003.691-.006 1.381 0 2.071-.352.003-.704.002-1.055.002h-.353v-.106a32.669 32.669 0 0 0-.007-.533c-.343.317-.73.59-1.186.712l-.143.006c-.382.018-.773.036-1.135-.102a2.597 2.597 0 0 1-1.543-1.402c-.573-1.238-.248-2.914.927-3.687Zm.82 1.157c-.383.253-.606.7-.644 1.151-.034.573.292 1.14.795 1.41.325.198.723.198 1.088.142.575-.136.985-.65 1.11-1.212l-.001-.346v-.174l-.005-.016c-.097-.294-.2-.605-.438-.818-.494-.49-1.343-.54-1.904-.137Zm17.338-1.46c.512-.195 1.086-.116 1.586.075-.078.243-.166.482-.254.722-.08.22-.161.44-.235.664a1.762 1.762 0 0 0-1.208-.097c-.392.11-.663.502-.667.903-.019.768-.023 1.537-.026 2.305l-.005.839c-.464.007-.928.006-1.391.002-.002-.68 0-1.359 0-2.038.001-1.118.002-2.237-.005-3.355.464-.055.94-.068 1.404.007-.004.238-.001.475.005.712.177-.323.44-.615.796-.739Zm2.634.532c.872-.763 2.212-.85 3.224-.325a2.672 2.672 0 0 1 1.344 1.796c.064.303.066.612.067.921 0 .082.001.165.003.247-1.435.008-2.87.013-4.306.017.146.511.552.96 1.083 1.074.454.1.972.086 1.363-.192.132-.096.246-.213.36-.33l.114-.114c.385.194.75.422 1.11.657-.44.605-1.098 1.08-1.85 1.19-.428.045-.859.03-1.287.012-1.219-.24-2.247-1.356-2.205-2.628-.092-.878.305-1.766.98-2.325Zm1.02.755c-.303.171-.5.468-.63.78.954.01 1.908.01 2.863 0-.11-.328-.31-.637-.62-.81a1.725 1.725 0 0 0-1.614.03Zm6.953-1.36c.612-.116 1.305-.052 1.805.353.467.375.768.97.756 1.573.037.78.037 1.562.037 2.343 0 .407 0 .813.005 1.219h-1.422a29.81 29.81 0 0 1-.003-.846c.002-.54.004-1.079-.04-1.617a5.624 5.624 0 0 1-.004-.473c.004-.22.008-.44-.023-.657-.115-.292-.338-.576-.65-.667-.363-.043-.78-.079-1.073.185-.256.173-.368.467-.444.753-.012.83-.012 1.661-.012 2.492v.83h-1.426v-1.81c-.001-1.208-.002-2.415.002-3.622h.526l.876.001v.002c.003.208.005.416.012.624.304-.302.642-.604 1.078-.683Zm-21.894.056h-1.421c-.007 1.1-.008 2.199.008 3.297.01.606.152 1.259.61 1.688.498.515 1.277.607 1.954.507.448-.078.801-.38 1.11-.693.034.498-.102 1.047-.505 1.373-.63.497-1.622.432-2.197-.12a.706.706 0 0 1-.1-.086c-.069-.066-.138-.134-.235-.125-.23.159-.447.332-.666.506-.14.112-.28.224-.424.332.246.249.507.489.813.662 1.037.538 2.367.59 3.401.017.772-.449 1.294-1.314 1.286-2.213.024-1.715.038-3.43.04-5.144h-.53c-.293 0-.587 0-.88-.005l-.003.013c-.047.253-.097.52-.007.77a.977.977 0 0 0-.048.334c-.001.73-.002 1.46-.014 2.189.014.295-.171.554-.378.745-.268.256-.67.264-1.015.22-.448-.087-.76-.526-.767-.971-.034-.69-.032-1.38-.03-2.07.002-.408.004-.817-.002-1.226Z" clip-rule="evenodd"/>
</svg>
