<svg xmlns="http://www.w3.org/2000/svg" width="70" height="50" fill="none" viewBox="0 0 70 50">
  <rect width="70" height="50" fill="#F0592C" rx="4"/>
  <path fill="#fff" fill-rule="evenodd" d="M31.66 13.713h-.824c-.824 0-1.649 0-2.474-.002h-.036c-.279.003-.6.008-.792.24-.194.21-.177.509-.162.777l.003.063c.125 1.663.246 3.325.367 4.988.084 1.156.168 2.312.254 3.467.009.117.015.235.022.354.034.6.069 1.216.403 1.732.3.502.885.784 1.463.765h4.755c1.783 0 3.566 0 5.35.002.416.01.846-.086 1.177-.35.507-.4.734-1.056.785-1.681l.01-.121v-.001c.201-2.78.404-5.56.61-8.338.007-.139.019-.277.03-.416.027-.308.053-.617.02-.924-.042-.33-.364-.568-.69-.55-.715-.009-1.43-.007-2.146-.006-.485.002-.97.003-1.455 0-.075-1.435-.477-2.967-1.538-3.998-.997-.99-2.777-.937-3.74.077-.99 1.04-1.322 2.528-1.392 3.922Zm1.131 3.814c.13-.849.863-1.533 1.7-1.674.882-.155 1.846.02 2.59.531.2.107.174.41-.037.49-.181-.025-.343-.106-.505-.188a2.401 2.401 0 0 0-.341-.15c-.708-.27-1.572-.368-2.226.09-.546.358-.838 1.177-.401 1.73.442.572 1.115.794 1.782 1.013.269.088.536.176.788.287.581.246 1.165.623 1.43 1.22.324.787.127 1.809-.58 2.325-.743.546-1.74.626-2.621.437-.702-.161-1.42-.447-1.901-1.004.023-.022.047-.049.072-.077.109-.12.237-.263.392-.125.69.473 1.51.79 2.355.761.563-.039 1.156-.222 1.543-.652.36-.393.424-1.017.15-1.474-.342-.571-.978-.87-1.58-1.085l-.218-.07c-.637-.2-1.292-.408-1.792-.87-.428-.369-.688-.946-.6-1.515Zm2.61-7.614c-.76-.195-1.568.205-1.998.834-.603.861-.786 1.935-.863 2.963 1.637.005 3.274.005 4.91 0-.09-.93-.265-1.876-.726-2.699-.286-.509-.74-.962-1.323-1.098ZM8.116 33.038c.511.488 1.164.722 1.816.955.657.236 1.314.47 1.824.965.464.392.516 1.106.252 1.625-.341.58-1.059.802-1.695.828-1.052.003-1.965-.587-2.802-1.156l-.073.06c-.27.22-.644.522-.3.85 1.37 1.257 3.724 1.778 5.258.53 1.096-.882 1.05-2.665-.01-3.555-.51-.532-1.182-.766-1.855-.999-.56-.194-1.121-.389-1.59-.756-.773-.534-.415-1.883.466-2.082.896-.3 1.818.03 2.624.427.54.302.886-.653.4-.9-1.048-.695-2.491-.91-3.653-.378-1.324.567-1.773 2.603-.662 3.586Zm5.848 4.265v.094c.003.274.006.551.06.82.205.26.711.292.88-.02.14-.5.112-1.042.083-1.583-.044-.83-.088-1.656.48-2.32.63-.837 2.252-.77 2.597.293.114.627.097 1.264.08 1.902-.016.575-.031 1.15.05 1.72.274.385 1.048.209.96-.312.01-1.002.017-2.004.01-3.006.009-1.207-1.16-2.235-2.345-2.19-.674-.066-1.278.26-1.839.587 0-.38.004-.76.008-1.14.01-.82.019-1.64-.02-2.459.012-.31-.233-.593-.56-.512-.394-.035-.44.423-.439.713-.003 1.07-.002 2.141 0 3.212.001 1.4.003 2.8-.005 4.201Zm31.564 1.319.63-.007.624-.008c.097-.623.207-1.242.317-1.862.064-.362.128-.725.19-1.087.16-.003.321-.004.482-.004.516-.002 1.032-.004 1.543-.075 1.418-.217 2.659-1.6 2.425-3.072-.128-.912-1-1.55-1.885-1.591a35.653 35.653 0 0 0-1.602-.013c-.45.004-.899.007-1.348-.004-.264 1.46-.523 2.92-.781 4.38l-.001.005a1786.95 1786.95 0 0 1-.594 3.338Zm1.972-4.154c.086-.454.168-.91.25-1.364.06-.34.121-.68.184-1.018.215.008.432.002.65-.005.471-.014.944-.029 1.396.107.718.32.616 1.37.104 1.837-.506.5-1.204.474-1.88.447a6.913 6.913 0 0 0-.704-.004ZM20.77 37.44c-.738-.868-.933-2.198-.348-3.2.393-.705 1.105-1.19 1.872-1.412 1.437-.419 3.064.551 3.49 1.963.203.8.116 1.703-.366 2.39-.976 1.54-3.505 1.675-4.648.26Zm4.004-1.254c.536-1.287-.855-2.723-2.167-2.354-1.299.169-2.005 1.89-1.102 2.877.835 1.162 2.833.828 3.269-.523Zm2.63-3.387c-.345-.145-.7.267-.636.604-.013 1.184-.01 2.367-.008 3.55v.001c.002 1.11.004 2.22-.007 3.33.005.084.005.17.005.257-.001.268-.002.544.153.771.29.117.857.162.86-.276.052-.746.04-1.494.027-2.242-.006-.348-.012-.696-.011-1.044 1.356 1.065 3.647.865 4.517-.72.889-1.398.187-3.417-1.334-4.027-1.015-.529-2.246-.232-3.105.46-.036-.065-.06-.146-.086-.228-.064-.205-.132-.42-.375-.436Zm1.577 1.154c.882-.372 2.03-.08 2.471.81.59.898.012 2.158-.946 2.512-.959.458-2.194-.12-2.513-1.118-.36-.852.185-1.846.988-2.204Zm9.436 3.994c-1.098.682-2.623.775-3.73.057-1.505-1.124-1.448-3.74.085-4.812 1.21-.865 3.205-.453 3.805.959.207.51.343 1.108.142 1.642-.171.12-.381.126-.584.13a3.895 3.895 0 0 0-.16.007c-.392.002-.785 0-1.178-.002-.74-.003-1.48-.007-2.218.015l.091.24c.158.427.326.881.77 1.075.816.383 1.754.154 2.552-.166.473-.266.89.62.425.855Zm-1.343-3.995c-.459-.189-.985-.192-1.458-.06-.41.113-.62.491-.817.842-.036.066-.072.13-.11.192 1.036.017 2.073.015 3.11 0-.036-.068-.07-.139-.105-.21-.147-.305-.3-.62-.62-.764Zm3.67 3.947c1.08.84 2.682.745 3.827.08.508-.262.057-1.23-.457-.865-.753.312-1.632.493-2.413.18-.496-.194-.689-.697-.866-1.16l-.075-.193c.76-.02 1.52-.016 2.28-.012.354.002.706.004 1.06.003a3.77 3.77 0 0 1 .18-.006c.233-.004.476-.008.658-.168.208-.776-.069-1.627-.568-2.234-.905-.928-2.515-1.054-3.536-.238-1.352 1.1-1.413 3.462-.09 4.612Zm.142-2.969c.258-.634.789-1.22 1.542-1.128.75-.098 1.361.427 1.553 1.126a138.83 138.83 0 0 1-3.095.002Zm14.124-.733c-.77-.506-1.72-.083-2.35.447l-.741-.65c.618-.544 1.36-.99 2.202-1.041.722-.043 1.571.03 2.078.614.378.393.44.989.352 1.506-.14.885-.301 1.766-.463 2.648v.002l-.164.895-1.2-.003.141-.646c-.774.777-2.063 1.146-3.035.52-.916-.616-.718-2.028.043-2.689.937-.88 2.352-.812 3.504-.473a2.877 2.877 0 0 1-.022-.289c-.015-.326-.032-.672-.345-.84Zm.193 2.113c-.722-.289-1.614-.486-2.308-.024-.471.3-.65 1.117-.061 1.395 1.022.446 2.077-.406 2.369-1.37Zm2.44-1.527c-.145-.551-.29-1.102-.437-1.652h1.356c.143.567.278 1.136.413 1.706.158.664.316 1.329.485 1.991.507-.77.966-1.57 1.426-2.368.256-.445.512-.89.776-1.33.444 0 .887.002 1.332.004H63c-.59.952-1.175 1.907-1.76 2.861a462.958 462.958 0 0 1-3.07 4.959 139.163 139.163 0 0 0-1.262-.011c.19-.303.383-.605.576-.906.372-.582.744-1.163 1.1-1.755a201.806 201.806 0 0 1-.941-3.5Z" clip-rule="evenodd"/>
</svg>
