<svg xmlns="http://www.w3.org/2000/svg" width="70" height="50" fill="none" viewBox="0 0 70 50">
  <rect width="70" height="50" fill="#3BB8EA" rx="4"/>
  <path fill="#fff" fill-rule="evenodd" d="M18.424 10.789c-.505.613-.39 1.457-.424 2.192.04 5.544-.034 11.088.037 16.629.217 5.29 5.137 9.735 10.404 9.549 5.198.071 9.99-4.348 10.196-9.57.102-5.215.01-10.433.047-15.649h9.736c.007 7.37.003 14.741 0 22.111-2.484.028-4.971-.04-7.452.028-1.26-.055-2.297 1.308-1.887 2.507.247.952 1.25 1.484 2.192 1.407 3.067-.014 6.137.033 9.207-.024 1.15.006 1.993-1.122 1.878-2.223.013-7.916-.007-15.832.01-23.745-.01-.864.057-1.738-.102-2.592-.237-.922-1.206-1.474-2.124-1.403-4.426-.003-8.855-.01-13.28 0-1.082-.074-2.15.82-2.095 1.938-.074 5.765.02 11.536-.044 17.303-.057 2.382-1.674 4.585-3.863 5.48-2.382 1.04-5.371.454-7.164-1.437-1.148-1.16-1.779-2.782-1.765-4.409.003-5.422-.024-10.847.024-16.266.003-.725-.038-1.538-.617-2.056-.79-.82-2.26-.692-2.914.23Z" clip-rule="evenodd"/>
</svg>
