<svg xmlns="http://www.w3.org/2000/svg" width="32" height="32" fill="none" viewBox="0 0 32 32">
  <path fill="#000" d="M23 16.28a3 3 0 0 0-4.24 0L7 28h18a5 5 0 0 0 4.65-3.2c0-.12.09-.25.13-.38l.12-.42c.034-.162.057-.325.07-.49a.533.533 0 0 0 0-.13.09.09 0 0 0 0-.05L23 16.28Z"/>
  <path fill="#000" d="M30 8.52A5 5 0 0 0 25 4H7a5 5 0 0 0-5 4.52A3.15 3.15 0 0 0 2 9v14c-.01.17-.01.34 0 .51.024.172.057.342.1.51a7 7 0 0 0 1.8 2.86c.262.212.547.393.85.54l12.57-12.56a5 5 0 0 1 7.08 0l5.6 5.6V9c.012-.16.012-.32 0-.48ZM8 12a2 2 0 1 1 0-4 2 2 0 0 1 0 4Z"/>
</svg>
