<svg xmlns="http://www.w3.org/2000/svg" width="32" height="32" fill="none" viewBox="0 0 32 32">
  <path fill="#000" d="M23.07 13.94a9.623 9.623 0 0 0-2.32-1.73 7.392 7.392 0 0 0-.69-.34 9.946 9.946 0 0 0-1.47-.53l-.48-.11c-.35-.07-.69-.12-1-.16h-.71a4.998 4.998 0 0 0-.77 0h-.73c-.336.029-.67.079-1 .15l-.47.11a10.474 10.474 0 0 0-2.16.86A10 10 0 0 0 6 21v3a5 5 0 0 0 5 5h10a5 5 0 0 0 5-5v-3a9.861 9.861 0 0 0-2.93-7.06ZM15.5 19h1a2.512 2.512 0 0 1 .5 5 1 1 0 0 1-2 0h-1a1 1 0 1 1 0-2h2.5a.5.5 0 0 0 0-1h-1a2.5 2.5 0 0 1-.5-4.95V16a1 1 0 0 1 2 0h1a1 1 0 0 1 0 2h-2.5a.5.5 0 0 0 0 1Zm5.96-11.39-.39 2.52-.19-.13c-.556-.253-1.13-.46-1.72-.62A12.09 12.09 0 0 0 16 9a12.4 12.4 0 0 0-3.16.42c-.582.163-1.15.37-1.7.62l-.21.1-.39-2.53a3 3 0 0 1 4.08-3.24l1 .4a1 1 0 0 0 .74 0l1-.4a3 3 0 0 1 4.08 3.24h.02Z"/>
</svg>
